<svg width="1478" height="699" viewBox="0 0 1478 699" fill="none" xmlns="http://www.w3.org/2000/svg">
<path d="M932.397 0H915.346V17.0488H932.397V0Z" fill="black"/>
<path d="M949.447 0H932.396V17.0488H949.447V0Z" fill="black"/>
<path d="M966.497 0H949.447V17.0488H966.497V0Z" fill="black"/>
<path d="M1034.7 0H1017.65V17.0488H1034.7V0Z" fill="black"/>
<path d="M1051.75 0H1034.7V17.0488H1051.75V0Z" fill="black"/>
<path d="M1068.8 0H1051.75V17.0488H1068.8V0Z" fill="black"/>
<path d="M1085.85 0H1068.8V17.0488H1085.85V0Z" fill="black"/>
<path d="M1102.9 0H1085.85V17.0488H1102.9V0Z" fill="black"/>
<path d="M1119.95 0H1102.9V17.0488H1119.95V0Z" fill="black"/>
<path d="M1137 0H1119.95V17.0488H1137V0Z" fill="black"/>
<path d="M1154.05 0H1137V17.0488H1154.05V0Z" fill="black"/>
<path d="M1188.15 0H1171.1V17.0488H1188.15V0Z" fill="black"/>
<path d="M1222.25 0H1205.2V17.0488H1222.25V0Z" fill="black"/>
<path d="M1239.3 0H1222.25V17.0488H1239.3V0Z" fill="black"/>
<path d="M1256.35 0H1239.3V17.0488H1256.35V0Z" fill="black"/>
<path d="M1273.4 0H1256.35V17.0488H1273.4V0Z" fill="black"/>
<path d="M1324.55 0H1307.5V17.0488H1324.55V0Z" fill="black"/>
<path d="M1341.6 0H1324.55V17.0488H1341.6V0Z" fill="black"/>
<path d="M932.397 17.0488H915.346V34.0976H932.397V17.0488Z" fill="black"/>
<path d="M949.447 17.0488H932.396V34.0976H949.447V17.0488Z" fill="black"/>
<path d="M983.547 17.0488H966.497V34.0976H983.547V17.0488Z" fill="black"/>
<path d="M1034.7 17.0488H1017.65V34.0976H1034.7V17.0488Z" fill="black"/>
<path d="M1068.8 17.0488H1051.75V34.0976H1068.8V17.0488Z" fill="black"/>
<path d="M1102.9 17.0488H1085.85V34.0976H1102.9V17.0488Z" fill="black"/>
<path d="M1188.15 17.0488H1171.1V34.0976H1188.15V17.0488Z" fill="black"/>
<path d="M1222.25 17.0488H1205.2V34.0976H1222.25V17.0488Z" fill="black"/>
<path d="M1290.45 17.0488H1273.4V34.0976H1290.45V17.0488Z" fill="black"/>
<path d="M1341.6 17.0488H1324.55V34.0976H1341.6V17.0488Z" fill="black"/>
<path d="M949.447 34.0977H932.396V51.1464H949.447V34.0977Z" fill="black"/>
<path d="M983.547 34.0977H966.497V51.1464H983.547V34.0977Z" fill="black"/>
<path d="M1051.75 34.0977H1034.7V51.1464H1051.75V34.0977Z" fill="black"/>
<path d="M1085.85 34.0977H1068.8V51.1464H1085.85V34.0977Z" fill="black"/>
<path d="M1137 34.0977H1119.95V51.1464H1137V34.0977Z" fill="black"/>
<path d="M1256.35 34.0977H1239.3V51.1464H1256.35V34.0977Z" fill="black"/>
<path d="M1273.4 34.0977H1256.35V51.1464H1273.4V34.0977Z" fill="black"/>
<path d="M1307.5 34.0977H1290.45V51.1464H1307.5V34.0977Z" fill="black"/>
<path d="M1324.55 34.0977H1307.5V51.1464H1324.55V34.0977Z" fill="black"/>
<path d="M1341.6 34.0977H1324.55V51.1464H1341.6V34.0977Z" fill="black"/>
<path d="M932.397 51.146H915.346V68.1948H932.397V51.146Z" fill="black"/>
<path d="M966.497 51.146H949.447V68.1948H966.497V51.146Z" fill="black"/>
<path d="M983.547 51.146H966.497V68.1948H983.547V51.146Z" fill="black"/>
<path d="M1017.65 51.146H1000.6V68.1948H1017.65V51.146Z" fill="black"/>
<path d="M1051.75 51.146H1034.7V68.1948H1051.75V51.146Z" fill="black"/>
<path d="M1119.95 51.146H1102.9V68.1948H1119.95V51.146Z" fill="black"/>
<path d="M1154.05 51.146H1137V68.1948H1154.05V51.146Z" fill="black"/>
<path d="M1239.3 51.146H1222.25V68.1948H1239.3V51.146Z" fill="black"/>
<path d="M1256.35 51.146H1239.3V68.1948H1256.35V51.146Z" fill="black"/>
<path d="M1307.5 51.146H1290.45V68.1948H1307.5V51.146Z" fill="black"/>
<path d="M1324.55 51.146H1307.5V68.1948H1324.55V51.146Z" fill="black"/>
<path d="M1000.6 68.1948H983.547V85.2436H1000.6V68.1948Z" fill="black"/>
<path d="M1034.7 68.1948H1017.65V85.2436H1034.7V68.1948Z" fill="black"/>
<path d="M1051.75 68.1948H1034.7V85.2436H1051.75V68.1948Z" fill="black"/>
<path d="M1068.8 68.1948H1051.75V85.2436H1068.8V68.1948Z" fill="black"/>
<path d="M1119.95 68.1948H1102.9V85.2436H1119.95V68.1948Z" fill="black"/>
<path d="M1171.1 68.1948H1154.05V85.2436H1171.1V68.1948Z" fill="black"/>
<path d="M1239.3 68.1948H1222.25V85.2436H1239.3V68.1948Z" fill="black"/>
<path d="M1256.35 68.1948H1239.3V85.2436H1256.35V68.1948Z" fill="black"/>
<path d="M1273.4 68.1948H1256.35V85.2436H1273.4V68.1948Z" fill="black"/>
<path d="M1290.45 68.1948H1273.4V85.2436H1290.45V68.1948Z" fill="black"/>
<path d="M1307.5 68.1948H1290.45V85.2436H1307.5V68.1948Z" fill="black"/>
<path d="M1324.55 68.1948H1307.5V85.2436H1324.55V68.1948Z" fill="black"/>
<path d="M949.447 85.2441H932.396V102.293H949.447V85.2441Z" fill="black"/>
<path d="M966.497 85.2441H949.447V102.293H966.497V85.2441Z" fill="black"/>
<path d="M983.547 85.2441H966.497V102.293H983.547V85.2441Z" fill="black"/>
<path d="M1068.8 85.2441H1051.75V102.293H1068.8V85.2441Z" fill="black"/>
<path d="M1085.85 85.2441H1068.8V102.293H1085.85V85.2441Z" fill="black"/>
<path d="M1102.9 85.2441H1085.85V102.293H1102.9V85.2441Z" fill="black"/>
<path d="M1119.95 85.2441H1102.9V102.293H1119.95V85.2441Z" fill="black"/>
<path d="M1137 85.2441H1119.95V102.293H1137V85.2441Z" fill="black"/>
<path d="M1239.3 85.2441H1222.25V102.293H1239.3V85.2441Z" fill="black"/>
<path d="M1324.55 85.2441H1307.5V102.293H1324.55V85.2441Z" fill="black"/>
<path d="M1341.6 85.2441H1324.55V102.293H1341.6V85.2441Z" fill="black"/>
<path d="M932.397 102.293H915.346V119.342H932.397V102.293Z" fill="black"/>
<path d="M966.497 102.293H949.447V119.342H966.497V102.293Z" fill="black"/>
<path d="M1000.6 102.293H983.547V119.342H1000.6V102.293Z" fill="black"/>
<path d="M1034.7 102.293H1017.65V119.342H1034.7V102.293Z" fill="black"/>
<path d="M1068.8 102.293H1051.75V119.342H1068.8V102.293Z" fill="black"/>
<path d="M1102.9 102.293H1085.85V119.342H1102.9V102.293Z" fill="black"/>
<path d="M1137 102.293H1119.95V119.342H1137V102.293Z" fill="black"/>
<path d="M1171.1 102.293H1154.05V119.342H1171.1V102.293Z" fill="black"/>
<path d="M1205.2 102.293H1188.15V119.342H1205.2V102.293Z" fill="black"/>
<path d="M1239.3 102.293H1222.25V119.342H1239.3V102.293Z" fill="black"/>
<path d="M1273.4 102.293H1256.35V119.342H1273.4V102.293Z" fill="black"/>
<path d="M1307.5 102.293H1290.45V119.342H1307.5V102.293Z" fill="black"/>
<path d="M1341.6 102.293H1324.55V119.342H1341.6V102.293Z" fill="black"/>
<path d="M932.397 119.341H915.346V136.39H932.397V119.341Z" fill="black"/>
<path d="M949.447 119.341H932.396V136.39H949.447V119.341Z" fill="black"/>
<path d="M966.497 119.341H949.447V136.39H966.497V119.341Z" fill="black"/>
<path d="M983.547 119.341H966.497V136.39H983.547V119.341Z" fill="black"/>
<path d="M1034.7 119.341H1017.65V136.39H1034.7V119.341Z" fill="black"/>
<path d="M1085.85 119.341H1068.8V136.39H1085.85V119.341Z" fill="black"/>
<path d="M1102.9 119.341H1085.85V136.39H1102.9V119.341Z" fill="black"/>
<path d="M1119.95 119.341H1102.9V136.39H1119.95V119.341Z" fill="black"/>
<path d="M1137 119.341H1119.95V136.39H1137V119.341Z" fill="black"/>
<path d="M1171.1 119.341H1154.05V136.39H1171.1V119.341Z" fill="black"/>
<path d="M1188.15 119.341H1171.1V136.39H1188.15V119.341Z" fill="black"/>
<path d="M1205.2 119.341H1188.15V136.39H1205.2V119.341Z" fill="black"/>
<path d="M1290.45 119.341H1273.4V136.39H1290.45V119.341Z" fill="black"/>
<path d="M1324.55 119.341H1307.5V136.39H1324.55V119.341Z" fill="black"/>
<path d="M795.996 136.39H778.946V153.439H795.996V136.39Z" fill="black"/>
<path d="M830.096 136.39H813.046V153.439H830.096V136.39Z" fill="black"/>
<path d="M847.146 136.39H830.096V153.439H847.146V136.39Z" fill="black"/>
<path d="M881.246 136.39H864.196V153.439H881.246V136.39Z" fill="black"/>
<path d="M898.297 136.39H881.247V153.439H898.297V136.39Z" fill="black"/>
<path d="M915.346 136.39H898.296V153.439H915.346V136.39Z" fill="black"/>
<path d="M949.447 136.39H932.396V153.439H949.447V136.39Z" fill="black"/>
<path d="M966.497 136.39H949.447V153.439H966.497V136.39Z" fill="black"/>
<path d="M983.547 136.39H966.497V153.439H983.547V136.39Z" fill="black"/>
<path d="M1000.6 136.39H983.547V153.439H1000.6V136.39Z" fill="black"/>
<path d="M1034.7 136.39H1017.65V153.439H1034.7V136.39Z" fill="black"/>
<path d="M1068.8 136.39H1051.75V153.439H1068.8V136.39Z" fill="black"/>
<path d="M1085.85 136.39H1068.8V153.439H1085.85V136.39Z" fill="black"/>
<path d="M1102.9 136.39H1085.85V153.439H1102.9V136.39Z" fill="black"/>
<path d="M1119.95 136.39H1102.9V153.439H1119.95V136.39Z" fill="black"/>
<path d="M1154.05 136.39H1137V153.439H1154.05V136.39Z" fill="black"/>
<path d="M1171.1 136.39H1154.05V153.439H1171.1V136.39Z" fill="black"/>
<path d="M1239.3 136.39H1222.25V153.439H1239.3V136.39Z" fill="black"/>
<path d="M1256.35 136.39H1239.3V153.439H1256.35V136.39Z" fill="black"/>
<path d="M1273.4 136.39H1256.35V153.439H1273.4V136.39Z" fill="black"/>
<path d="M1290.45 136.39H1273.4V153.439H1290.45V136.39Z" fill="black"/>
<path d="M1307.5 136.39H1290.45V153.439H1307.5V136.39Z" fill="black"/>
<path d="M1341.6 136.39H1324.55V153.439H1341.6V136.39Z" fill="black"/>
<path d="M1375.7 136.39H1358.65V153.439H1375.7V136.39Z" fill="black"/>
<path d="M1426.85 136.39H1409.8V153.439H1426.85V136.39Z" fill="black"/>
<path d="M1460.95 136.39H1443.9V153.439H1460.95V136.39Z" fill="black"/>
<path d="M1478 136.39H1460.95V153.439H1478V136.39Z" fill="black"/>
<path d="M795.996 153.439H778.946V170.488H795.996V153.439Z" fill="black"/>
<path d="M830.096 153.439H813.046V170.488H830.096V153.439Z" fill="black"/>
<path d="M847.146 153.439H830.096V170.488H847.146V153.439Z" fill="black"/>
<path d="M864.196 153.439H847.146V170.488H864.196V153.439Z" fill="black"/>
<path d="M932.397 153.439H915.346V170.488H932.397V153.439Z" fill="black"/>
<path d="M949.447 153.439H932.396V170.488H949.447V153.439Z" fill="black"/>
<path d="M966.497 153.439H949.447V170.488H966.497V153.439Z" fill="black"/>
<path d="M983.547 153.439H966.497V170.488H983.547V153.439Z" fill="black"/>
<path d="M1051.75 153.439H1034.7V170.488H1051.75V153.439Z" fill="black"/>
<path d="M1085.85 153.439H1068.8V170.488H1085.85V153.439Z" fill="black"/>
<path d="M1119.95 153.439H1102.9V170.488H1119.95V153.439Z" fill="black"/>
<path d="M1188.15 153.439H1171.1V170.488H1188.15V153.439Z" fill="black"/>
<path d="M1222.25 153.439H1205.2V170.488H1222.25V153.439Z" fill="black"/>
<path d="M1273.4 153.439H1256.35V170.488H1273.4V153.439Z" fill="black"/>
<path d="M1307.5 153.439H1290.45V170.488H1307.5V153.439Z" fill="black"/>
<path d="M1324.55 153.439H1307.5V170.488H1324.55V153.439Z" fill="black"/>
<path d="M1341.6 153.439H1324.55V170.488H1341.6V153.439Z" fill="black"/>
<path d="M1358.65 153.439H1341.6V170.488H1358.65V153.439Z" fill="black"/>
<path d="M1375.7 153.439H1358.65V170.488H1375.7V153.439Z" fill="black"/>
<path d="M1392.75 153.439H1375.7V170.488H1392.75V153.439Z" fill="black"/>
<path d="M1409.8 153.439H1392.75V170.488H1409.8V153.439Z" fill="black"/>
<path d="M1443.9 153.439H1426.85V170.488H1443.9V153.439Z" fill="black"/>
<path d="M1478 153.439H1460.95V170.488H1478V153.439Z" fill="black"/>
<path d="M795.996 170.488H778.946V187.537H795.996V170.488Z" fill="black"/>
<path d="M813.046 170.488H795.996V187.537H813.046V170.488Z" fill="black"/>
<path d="M830.096 170.488H813.046V187.537H830.096V170.488Z" fill="black"/>
<path d="M847.146 170.488H830.096V187.537H847.146V170.488Z" fill="black"/>
<path d="M864.196 170.488H847.146V187.537H864.196V170.488Z" fill="black"/>
<path d="M898.297 170.488H881.247V187.537H898.297V170.488Z" fill="black"/>
<path d="M949.447 170.488H932.396V187.537H949.447V170.488Z" fill="black"/>
<path d="M1017.65 170.488H1000.6V187.537H1017.65V170.488Z" fill="black"/>
<path d="M1051.75 170.488H1034.7V187.537H1051.75V170.488Z" fill="black"/>
<path d="M1068.8 170.488H1051.75V187.537H1068.8V170.488Z" fill="black"/>
<path d="M1085.85 170.488H1068.8V187.537H1085.85V170.488Z" fill="black"/>
<path d="M1171.1 170.488H1154.05V187.537H1171.1V170.488Z" fill="black"/>
<path d="M1188.15 170.488H1171.1V187.537H1188.15V170.488Z" fill="black"/>
<path d="M1290.45 170.488H1273.4V187.537H1290.45V170.488Z" fill="black"/>
<path d="M1307.5 170.488H1290.45V187.537H1307.5V170.488Z" fill="black"/>
<path d="M1358.65 170.488H1341.6V187.537H1358.65V170.488Z" fill="black"/>
<path d="M1375.7 170.488H1358.65V187.537H1375.7V170.488Z" fill="black"/>
<path d="M1409.8 170.488H1392.75V187.537H1409.8V170.488Z" fill="black"/>
<path d="M1443.9 170.488H1426.85V187.537H1443.9V170.488Z" fill="black"/>
<path d="M795.996 187.537H778.946V204.585H795.996V187.537Z" fill="black"/>
<path d="M813.046 187.537H795.996V204.585H813.046V187.537Z" fill="black"/>
<path d="M830.096 187.537H813.046V204.585H830.096V187.537Z" fill="black"/>
<path d="M847.146 187.537H830.096V204.585H847.146V187.537Z" fill="black"/>
<path d="M864.196 187.537H847.146V204.585H864.196V187.537Z" fill="black"/>
<path d="M881.246 187.537H864.196V204.585H881.246V187.537Z" fill="black"/>
<path d="M915.346 187.537H898.296V204.585H915.346V187.537Z" fill="black"/>
<path d="M932.397 187.537H915.346V204.585H932.397V187.537Z" fill="black"/>
<path d="M949.447 187.537H932.396V204.585H949.447V187.537Z" fill="black"/>
<path d="M1000.6 187.537H983.547V204.585H1000.6V187.537Z" fill="black"/>
<path d="M1034.7 187.537H1017.65V204.585H1034.7V187.537Z" fill="black"/>
<path d="M1102.9 187.537H1085.85V204.585H1102.9V187.537Z" fill="black"/>
<path d="M1119.95 187.537H1102.9V204.585H1119.95V187.537Z" fill="black"/>
<path d="M1137 187.537H1119.95V204.585H1137V187.537Z" fill="black"/>
<path d="M1205.2 187.537H1188.15V204.585H1205.2V187.537Z" fill="black"/>
<path d="M1222.25 187.537H1205.2V204.585H1222.25V187.537Z" fill="black"/>
<path d="M1256.35 187.537H1239.3V204.585H1256.35V187.537Z" fill="black"/>
<path d="M1341.6 187.537H1324.55V204.585H1341.6V187.537Z" fill="black"/>
<path d="M1358.65 187.537H1341.6V204.585H1358.65V187.537Z" fill="black"/>
<path d="M1392.75 187.537H1375.7V204.585H1392.75V187.537Z" fill="black"/>
<path d="M1409.8 187.537H1392.75V204.585H1409.8V187.537Z" fill="black"/>
<path d="M1478 187.537H1460.95V204.585H1478V187.537Z" fill="black"/>
<path d="M795.996 204.585H778.946V221.634H795.996V204.585Z" fill="black"/>
<path d="M830.096 204.585H813.046V221.634H830.096V204.585Z" fill="black"/>
<path d="M881.246 204.585H864.196V221.634H881.246V204.585Z" fill="black"/>
<path d="M898.297 204.585H881.247V221.634H898.297V204.585Z" fill="black"/>
<path d="M966.497 204.585H949.447V221.634H966.497V204.585Z" fill="black"/>
<path d="M983.547 204.585H966.497V221.634H983.547V204.585Z" fill="black"/>
<path d="M1017.65 204.585H1000.6V221.634H1017.65V204.585Z" fill="black"/>
<path d="M1068.8 204.585H1051.75V221.634H1068.8V204.585Z" fill="black"/>
<path d="M1085.85 204.585H1068.8V221.634H1085.85V204.585Z" fill="black"/>
<path d="M1119.95 204.585H1102.9V221.634H1119.95V204.585Z" fill="black"/>
<path d="M1137 204.585H1119.95V221.634H1137V204.585Z" fill="black"/>
<path d="M1171.1 204.585H1154.05V221.634H1171.1V204.585Z" fill="black"/>
<path d="M1188.15 204.585H1171.1V221.634H1188.15V204.585Z" fill="black"/>
<path d="M1205.2 204.585H1188.15V221.634H1205.2V204.585Z" fill="black"/>
<path d="M1222.25 204.585H1205.2V221.634H1222.25V204.585Z" fill="black"/>
<path d="M1239.3 204.585H1222.25V221.634H1239.3V204.585Z" fill="black"/>
<path d="M1273.4 204.585H1256.35V221.634H1273.4V204.585Z" fill="black"/>
<path d="M1290.45 204.585H1273.4V221.634H1290.45V204.585Z" fill="black"/>
<path d="M1324.55 204.585H1307.5V221.634H1324.55V204.585Z" fill="black"/>
<path d="M1392.75 204.585H1375.7V221.634H1392.75V204.585Z" fill="black"/>
<path d="M1426.85 204.585H1409.8V221.634H1426.85V204.585Z" fill="black"/>
<path d="M1443.9 204.585H1426.85V221.634H1443.9V204.585Z" fill="black"/>
<path d="M1478 204.585H1460.95V221.634H1478V204.585Z" fill="black"/>
<path d="M830.096 221.634H813.046V238.683H830.096V221.634Z" fill="black"/>
<path d="M847.146 221.634H830.096V238.683H847.146V221.634Z" fill="black"/>
<path d="M932.397 221.634H915.346V238.683H932.397V221.634Z" fill="black"/>
<path d="M949.447 221.634H932.396V238.683H949.447V221.634Z" fill="black"/>
<path d="M966.497 221.634H949.447V238.683H966.497V221.634Z" fill="black"/>
<path d="M983.547 221.634H966.497V238.683H983.547V221.634Z" fill="black"/>
<path d="M1034.7 221.634H1017.65V238.683H1034.7V221.634Z" fill="black"/>
<path d="M1068.8 221.634H1051.75V238.683H1068.8V221.634Z" fill="black"/>
<path d="M1137 221.634H1119.95V238.683H1137V221.634Z" fill="black"/>
<path d="M1154.05 221.634H1137V238.683H1154.05V221.634Z" fill="black"/>
<path d="M1188.15 221.634H1171.1V238.683H1188.15V221.634Z" fill="black"/>
<path d="M1205.2 221.634H1188.15V238.683H1205.2V221.634Z" fill="black"/>
<path d="M1222.25 221.634H1205.2V238.683H1222.25V221.634Z" fill="black"/>
<path d="M1290.45 221.634H1273.4V238.683H1290.45V221.634Z" fill="black"/>
<path d="M1358.65 221.634H1341.6V238.683H1358.65V221.634Z" fill="black"/>
<path d="M1443.9 221.634H1426.85V238.683H1443.9V221.634Z" fill="black"/>
<path d="M1460.95 221.634H1443.9V238.683H1460.95V221.634Z" fill="black"/>
<path d="M1478 221.634H1460.95V238.683H1478V221.634Z" fill="black"/>
<path d="M795.996 238.683H778.946V255.731H795.996V238.683Z" fill="black"/>
<path d="M847.146 238.683H830.096V255.731H847.146V238.683Z" fill="black"/>
<path d="M864.196 238.683H847.146V255.731H864.196V238.683Z" fill="black"/>
<path d="M881.246 238.683H864.196V255.731H881.246V238.683Z" fill="black"/>
<path d="M898.297 238.683H881.247V255.731H898.297V238.683Z" fill="black"/>
<path d="M949.447 238.683H932.396V255.731H949.447V238.683Z" fill="black"/>
<path d="M1034.7 238.683H1017.65V255.731H1034.7V238.683Z" fill="black"/>
<path d="M1051.75 238.683H1034.7V255.731H1051.75V238.683Z" fill="black"/>
<path d="M1085.85 238.683H1068.8V255.731H1085.85V238.683Z" fill="black"/>
<path d="M1119.95 238.683H1102.9V255.731H1119.95V238.683Z" fill="black"/>
<path d="M1137 238.683H1119.95V255.731H1137V238.683Z" fill="black"/>
<path d="M1188.15 238.683H1171.1V255.731H1188.15V238.683Z" fill="black"/>
<path d="M1239.3 238.683H1222.25V255.731H1239.3V238.683Z" fill="black"/>
<path d="M1307.5 238.683H1290.45V255.731H1307.5V238.683Z" fill="black"/>
<path d="M1375.7 238.683H1358.65V255.731H1375.7V238.683Z" fill="black"/>
<path d="M1392.75 238.683H1375.7V255.731H1392.75V238.683Z" fill="black"/>
<path d="M1426.85 238.683H1409.8V255.731H1426.85V238.683Z" fill="black"/>
<path d="M1443.9 238.683H1426.85V255.731H1443.9V238.683Z" fill="black"/>
<path d="M1460.95 238.683H1443.9V255.731H1460.95V238.683Z" fill="black"/>
<path d="M1478 238.683H1460.95V255.731H1478V238.683Z" fill="black"/>
<path d="M795.996 255.732H778.946V272.781H795.996V255.732Z" fill="black"/>
<path d="M881.246 255.732H864.196V272.781H881.246V255.732Z" fill="black"/>
<path d="M915.346 255.732H898.296V272.781H915.346V255.732Z" fill="black"/>
<path d="M983.547 255.732H966.497V272.781H983.547V255.732Z" fill="black"/>
<path d="M1068.8 255.732H1051.75V272.781H1068.8V255.732Z" fill="black"/>
<path d="M1154.05 255.732H1137V272.781H1154.05V255.732Z" fill="black"/>
<path d="M1188.15 255.732H1171.1V272.781H1188.15V255.732Z" fill="black"/>
<path d="M1239.3 255.732H1222.25V272.781H1239.3V255.732Z" fill="black"/>
<path d="M1256.35 255.732H1239.3V272.781H1256.35V255.732Z" fill="black"/>
<path d="M1324.55 255.732H1307.5V272.781H1324.55V255.732Z" fill="black"/>
<path d="M1341.6 255.732H1324.55V272.781H1341.6V255.732Z" fill="black"/>
<path d="M1375.7 255.732H1358.65V272.781H1375.7V255.732Z" fill="black"/>
<path d="M1409.8 255.732H1392.75V272.781H1409.8V255.732Z" fill="black"/>
<path d="M1426.85 255.732H1409.8V272.781H1426.85V255.732Z" fill="black"/>
<path d="M1460.95 255.732H1443.9V272.781H1460.95V255.732Z" fill="black"/>
<path d="M795.996 272.78H778.946V289.829H795.996V272.78Z" fill="black"/>
<path d="M813.046 272.78H795.996V289.829H813.046V272.78Z" fill="black"/>
<path d="M847.146 272.78H830.096V289.829H847.146V272.78Z" fill="black"/>
<path d="M864.196 272.78H847.146V289.829H864.196V272.78Z" fill="black"/>
<path d="M898.297 272.78H881.247V289.829H898.297V272.78Z" fill="black"/>
<path d="M915.346 272.78H898.296V289.829H915.346V272.78Z" fill="black"/>
<path d="M949.447 272.78H932.396V289.829H949.447V272.78Z" fill="black"/>
<path d="M983.547 272.78H966.497V289.829H983.547V272.78Z" fill="black"/>
<path d="M1034.7 272.78H1017.65V289.829H1034.7V272.78Z" fill="black"/>
<path d="M1068.8 272.78H1051.75V289.829H1068.8V272.78Z" fill="black"/>
<path d="M1137 272.78H1119.95V289.829H1137V272.78Z" fill="black"/>
<path d="M1154.05 272.78H1137V289.829H1154.05V272.78Z" fill="black"/>
<path d="M1171.1 272.78H1154.05V289.829H1171.1V272.78Z" fill="black"/>
<path d="M1205.2 272.78H1188.15V289.829H1205.2V272.78Z" fill="black"/>
<path d="M1222.25 272.78H1205.2V289.829H1222.25V272.78Z" fill="black"/>
<path d="M1273.4 272.78H1256.35V289.829H1273.4V272.78Z" fill="black"/>
<path d="M1307.5 272.78H1290.45V289.829H1307.5V272.78Z" fill="black"/>
<path d="M1324.55 272.78H1307.5V289.829H1324.55V272.78Z" fill="black"/>
<path d="M1341.6 272.78H1324.55V289.829H1341.6V272.78Z" fill="black"/>
<path d="M1409.8 272.78H1392.75V289.829H1409.8V272.78Z" fill="black"/>
<path d="M1460.95 272.78H1443.9V289.829H1460.95V272.78Z" fill="black"/>
<path d="M1478 272.78H1460.95V289.829H1478V272.78Z" fill="black"/>
<path d="M795.996 289.829H778.946V306.878H795.996V289.829Z" fill="black"/>
<path d="M813.046 289.829H795.996V306.878H813.046V289.829Z" fill="black"/>
<path d="M830.096 289.829H813.046V306.878H830.096V289.829Z" fill="black"/>
<path d="M847.146 289.829H830.096V306.878H847.146V289.829Z" fill="black"/>
<path d="M864.196 289.829H847.146V306.878H864.196V289.829Z" fill="black"/>
<path d="M915.346 289.829H898.296V306.878H915.346V289.829Z" fill="black"/>
<path d="M1000.6 289.829H983.547V306.878H1000.6V289.829Z" fill="black"/>
<path d="M1034.7 289.829H1017.65V306.878H1034.7V289.829Z" fill="black"/>
<path d="M1137 289.829H1119.95V306.878H1137V289.829Z" fill="black"/>
<path d="M1154.05 289.829H1137V306.878H1154.05V289.829Z" fill="black"/>
<path d="M1188.15 289.829H1171.1V306.878H1188.15V289.829Z" fill="black"/>
<path d="M1205.2 289.829H1188.15V306.878H1205.2V289.829Z" fill="black"/>
<path d="M1222.25 289.829H1205.2V306.878H1222.25V289.829Z" fill="black"/>
<path d="M1239.3 289.829H1222.25V306.878H1239.3V289.829Z" fill="black"/>
<path d="M1256.35 289.829H1239.3V306.878H1256.35V289.829Z" fill="black"/>
<path d="M1290.45 289.829H1273.4V306.878H1290.45V289.829Z" fill="black"/>
<path d="M1307.5 289.829H1290.45V306.878H1307.5V289.829Z" fill="black"/>
<path d="M1341.6 289.829H1324.55V306.878H1341.6V289.829Z" fill="black"/>
<path d="M1358.65 289.829H1341.6V306.878H1358.65V289.829Z" fill="black"/>
<path d="M1392.75 289.829H1375.7V306.878H1392.75V289.829Z" fill="black"/>
<path d="M1426.85 289.829H1409.8V306.878H1426.85V289.829Z" fill="black"/>
<path d="M1443.9 289.829H1426.85V306.878H1443.9V289.829Z" fill="black"/>
<path d="M1460.95 289.829H1443.9V306.878H1460.95V289.829Z" fill="black"/>
<path d="M847.146 306.878H830.096V323.927H847.146V306.878Z" fill="black"/>
<path d="M898.297 306.878H881.247V323.927H898.297V306.878Z" fill="black"/>
<path d="M949.447 306.878H932.396V323.927H949.447V306.878Z" fill="black"/>
<path d="M966.497 306.878H949.447V323.927H966.497V306.878Z" fill="black"/>
<path d="M983.547 306.878H966.497V323.927H983.547V306.878Z" fill="black"/>
<path d="M1017.65 306.878H1000.6V323.927H1017.65V306.878Z" fill="black"/>
<path d="M1051.75 306.878H1034.7V323.927H1051.75V306.878Z" fill="black"/>
<path d="M1068.8 306.878H1051.75V323.927H1068.8V306.878Z" fill="black"/>
<path d="M1102.9 306.878H1085.85V323.927H1102.9V306.878Z" fill="black"/>
<path d="M1137 306.878H1119.95V323.927H1137V306.878Z" fill="black"/>
<path d="M1171.1 306.878H1154.05V323.927H1171.1V306.878Z" fill="black"/>
<path d="M1256.35 306.878H1239.3V323.927H1256.35V306.878Z" fill="black"/>
<path d="M1273.4 306.878H1256.35V323.927H1273.4V306.878Z" fill="black"/>
<path d="M1290.45 306.878H1273.4V323.927H1290.45V306.878Z" fill="black"/>
<path d="M1358.65 306.878H1341.6V323.927H1358.65V306.878Z" fill="black"/>
<path d="M1409.8 306.878H1392.75V323.927H1409.8V306.878Z" fill="black"/>
<path d="M1426.85 306.878H1409.8V323.927H1426.85V306.878Z" fill="black"/>
<path d="M813.046 323.927H795.996V340.976H813.046V323.927Z" fill="black"/>
<path d="M830.096 323.927H813.046V340.976H830.096V323.927Z" fill="black"/>
<path d="M949.447 323.927H932.396V340.976H949.447V323.927Z" fill="black"/>
<path d="M966.497 323.927H949.447V340.976H966.497V323.927Z" fill="black"/>
<path d="M1000.6 323.927H983.547V340.976H1000.6V323.927Z" fill="black"/>
<path d="M1034.7 323.927H1017.65V340.976H1034.7V323.927Z" fill="black"/>
<path d="M1051.75 323.927H1034.7V340.976H1051.75V323.927Z" fill="black"/>
<path d="M1068.8 323.927H1051.75V340.976H1068.8V323.927Z" fill="black"/>
<path d="M1085.85 323.927H1068.8V340.976H1085.85V323.927Z" fill="black"/>
<path d="M1102.9 323.927H1085.85V340.976H1102.9V323.927Z" fill="black"/>
<path d="M1119.95 323.927H1102.9V340.976H1119.95V323.927Z" fill="black"/>
<path d="M1154.05 323.927H1137V340.976H1154.05V323.927Z" fill="black"/>
<path d="M1188.15 323.927H1171.1V340.976H1188.15V323.927Z" fill="black"/>
<path d="M1205.2 323.927H1188.15V340.976H1205.2V323.927Z" fill="black"/>
<path d="M1273.4 323.927H1256.35V340.976H1273.4V323.927Z" fill="black"/>
<path d="M1324.55 323.927H1307.5V340.976H1324.55V323.927Z" fill="black"/>
<path d="M1392.75 323.927H1375.7V340.976H1392.75V323.927Z" fill="black"/>
<path d="M1426.85 323.927H1409.8V340.976H1426.85V323.927Z" fill="black"/>
<path d="M1443.9 323.927H1426.85V340.976H1443.9V323.927Z" fill="black"/>
<path d="M1460.95 323.927H1443.9V340.976H1460.95V323.927Z" fill="black"/>
<path d="M1478 323.927H1460.95V340.976H1478V323.927Z" fill="black"/>
<path d="M813.046 340.976H795.996V358.024H813.046V340.976Z" fill="black"/>
<path d="M830.096 340.976H813.046V358.024H830.096V340.976Z" fill="black"/>
<path d="M847.146 340.976H830.096V358.024H847.146V340.976Z" fill="black"/>
<path d="M881.246 340.976H864.196V358.024H881.246V340.976Z" fill="black"/>
<path d="M898.297 340.976H881.247V358.024H898.297V340.976Z" fill="black"/>
<path d="M915.346 340.976H898.296V358.024H915.346V340.976Z" fill="black"/>
<path d="M1017.65 340.976H1000.6V358.024H1017.65V340.976Z" fill="black"/>
<path d="M1034.7 340.976H1017.65V358.024H1034.7V340.976Z" fill="black"/>
<path d="M1051.75 340.976H1034.7V358.024H1051.75V340.976Z" fill="black"/>
<path d="M1137 340.976H1119.95V358.024H1137V340.976Z" fill="black"/>
<path d="M1188.15 340.976H1171.1V358.024H1188.15V340.976Z" fill="black"/>
<path d="M1222.25 340.976H1205.2V358.024H1222.25V340.976Z" fill="black"/>
<path d="M1273.4 340.976H1256.35V358.024H1273.4V340.976Z" fill="black"/>
<path d="M1307.5 340.976H1290.45V358.024H1307.5V340.976Z" fill="black"/>
<path d="M1324.55 340.976H1307.5V358.024H1324.55V340.976Z" fill="black"/>
<path d="M1358.65 340.976H1341.6V358.024H1358.65V340.976Z" fill="black"/>
<path d="M1375.7 340.976H1358.65V358.024H1375.7V340.976Z" fill="black"/>
<path d="M1392.75 340.976H1375.7V358.024H1392.75V340.976Z" fill="black"/>
<path d="M1426.85 340.976H1409.8V358.024H1426.85V340.976Z" fill="black"/>
<path d="M1443.9 340.976H1426.85V358.024H1443.9V340.976Z" fill="black"/>
<path d="M1460.95 340.976H1443.9V358.024H1460.95V340.976Z" fill="black"/>
<path d="M795.996 358.024H778.946V375.073H795.996V358.024Z" fill="black"/>
<path d="M813.046 358.024H795.996V375.073H813.046V358.024Z" fill="black"/>
<path d="M830.096 358.024H813.046V375.073H830.096V358.024Z" fill="black"/>
<path d="M864.196 358.024H847.146V375.073H864.196V358.024Z" fill="black"/>
<path d="M881.246 358.024H864.196V375.073H881.246V358.024Z" fill="black"/>
<path d="M949.447 358.024H932.396V375.073H949.447V358.024Z" fill="black"/>
<path d="M1000.6 358.024H983.547V375.073H1000.6V358.024Z" fill="black"/>
<path d="M1017.65 358.024H1000.6V375.073H1017.65V358.024Z" fill="black"/>
<path d="M1034.7 358.024H1017.65V375.073H1034.7V358.024Z" fill="black"/>
<path d="M1051.75 358.024H1034.7V375.073H1051.75V358.024Z" fill="black"/>
<path d="M1119.95 358.024H1102.9V375.073H1119.95V358.024Z" fill="black"/>
<path d="M1137 358.024H1119.95V375.073H1137V358.024Z" fill="black"/>
<path d="M1188.15 358.024H1171.1V375.073H1188.15V358.024Z" fill="black"/>
<path d="M1222.25 358.024H1205.2V375.073H1222.25V358.024Z" fill="black"/>
<path d="M1239.3 358.024H1222.25V375.073H1239.3V358.024Z" fill="black"/>
<path d="M1273.4 358.024H1256.35V375.073H1273.4V358.024Z" fill="black"/>
<path d="M1290.45 358.024H1273.4V375.073H1290.45V358.024Z" fill="black"/>
<path d="M1307.5 358.024H1290.45V375.073H1307.5V358.024Z" fill="black"/>
<path d="M1324.55 358.024H1307.5V375.073H1324.55V358.024Z" fill="black"/>
<path d="M1375.7 358.024H1358.65V375.073H1375.7V358.024Z" fill="black"/>
<path d="M1392.75 358.024H1375.7V375.073H1392.75V358.024Z" fill="black"/>
<path d="M1409.8 358.024H1392.75V375.073H1409.8V358.024Z" fill="black"/>
<path d="M1426.85 358.024H1409.8V375.073H1426.85V358.024Z" fill="black"/>
<path d="M1443.9 358.024H1426.85V375.073H1443.9V358.024Z" fill="black"/>
<path d="M1460.95 358.024H1443.9V375.073H1460.95V358.024Z" fill="black"/>
<path d="M1478 358.024H1460.95V375.073H1478V358.024Z" fill="black"/>
<path d="M847.146 375.073H830.096V392.122H847.146V375.073Z" fill="black"/>
<path d="M881.246 375.073H864.196V392.122H881.246V375.073Z" fill="black"/>
<path d="M898.297 375.073H881.247V392.122H898.297V375.073Z" fill="black"/>
<path d="M915.346 375.073H898.296V392.122H915.346V375.073Z" fill="black"/>
<path d="M949.447 375.073H932.396V392.122H949.447V375.073Z" fill="black"/>
<path d="M966.497 375.073H949.447V392.122H966.497V375.073Z" fill="black"/>
<path d="M983.547 375.073H966.497V392.122H983.547V375.073Z" fill="black"/>
<path d="M1034.7 375.073H1017.65V392.122H1034.7V375.073Z" fill="black"/>
<path d="M1068.8 375.073H1051.75V392.122H1068.8V375.073Z" fill="black"/>
<path d="M1137 375.073H1119.95V392.122H1137V375.073Z" fill="black"/>
<path d="M1154.05 375.073H1137V392.122H1154.05V375.073Z" fill="black"/>
<path d="M1171.1 375.073H1154.05V392.122H1171.1V375.073Z" fill="black"/>
<path d="M1188.15 375.073H1171.1V392.122H1188.15V375.073Z" fill="black"/>
<path d="M1205.2 375.073H1188.15V392.122H1205.2V375.073Z" fill="black"/>
<path d="M1222.25 375.073H1205.2V392.122H1222.25V375.073Z" fill="black"/>
<path d="M1273.4 375.073H1256.35V392.122H1273.4V375.073Z" fill="black"/>
<path d="M1290.45 375.073H1273.4V392.122H1290.45V375.073Z" fill="black"/>
<path d="M1307.5 375.073H1290.45V392.122H1307.5V375.073Z" fill="black"/>
<path d="M1375.7 375.073H1358.65V392.122H1375.7V375.073Z" fill="black"/>
<path d="M1392.75 375.073H1375.7V392.122H1392.75V375.073Z" fill="black"/>
<path d="M1409.8 375.073H1392.75V392.122H1409.8V375.073Z" fill="black"/>
<path d="M1426.85 375.073H1409.8V392.122H1426.85V375.073Z" fill="black"/>
<path d="M1443.9 375.073H1426.85V392.122H1443.9V375.073Z" fill="black"/>
<path d="M1460.95 375.073H1443.9V392.122H1460.95V375.073Z" fill="black"/>
<path d="M795.996 392.122H778.946V409.17H795.996V392.122Z" fill="black"/>
<path d="M813.046 392.122H795.996V409.17H813.046V392.122Z" fill="black"/>
<path d="M847.146 392.122H830.096V409.17H847.146V392.122Z" fill="black"/>
<path d="M864.196 392.122H847.146V409.17H864.196V392.122Z" fill="black"/>
<path d="M915.346 392.122H898.296V409.17H915.346V392.122Z" fill="black"/>
<path d="M1000.6 392.122H983.547V409.17H1000.6V392.122Z" fill="black"/>
<path d="M1068.8 392.122H1051.75V409.17H1068.8V392.122Z" fill="black"/>
<path d="M1102.9 392.122H1085.85V409.17H1102.9V392.122Z" fill="black"/>
<path d="M1137 392.122H1119.95V409.17H1137V392.122Z" fill="black"/>
<path d="M1171.1 392.122H1154.05V409.17H1171.1V392.122Z" fill="black"/>
<path d="M1222.25 392.122H1205.2V409.17H1222.25V392.122Z" fill="black"/>
<path d="M1239.3 392.122H1222.25V409.17H1239.3V392.122Z" fill="black"/>
<path d="M1273.4 392.122H1256.35V409.17H1273.4V392.122Z" fill="black"/>
<path d="M1358.65 392.122H1341.6V409.17H1358.65V392.122Z" fill="black"/>
<path d="M1392.75 392.122H1375.7V409.17H1392.75V392.122Z" fill="black"/>
<path d="M1409.8 392.122H1392.75V409.17H1409.8V392.122Z" fill="black"/>
<path d="M1460.95 392.122H1443.9V409.17H1460.95V392.122Z" fill="black"/>
<path d="M795.996 409.17H778.946V426.219H795.996V409.17Z" fill="black"/>
<path d="M813.046 409.17H795.996V426.219H813.046V409.17Z" fill="black"/>
<path d="M830.096 409.17H813.046V426.219H830.096V409.17Z" fill="black"/>
<path d="M847.146 409.17H830.096V426.219H847.146V409.17Z" fill="black"/>
<path d="M881.246 409.17H864.196V426.219H881.246V409.17Z" fill="black"/>
<path d="M898.297 409.17H881.247V426.219H898.297V409.17Z" fill="black"/>
<path d="M1000.6 409.17H983.547V426.219H1000.6V409.17Z" fill="black"/>
<path d="M1068.8 409.17H1051.75V426.219H1068.8V409.17Z" fill="black"/>
<path d="M1085.85 409.17H1068.8V426.219H1085.85V409.17Z" fill="black"/>
<path d="M1119.95 409.17H1102.9V426.219H1119.95V409.17Z" fill="black"/>
<path d="M1171.1 409.17H1154.05V426.219H1171.1V409.17Z" fill="black"/>
<path d="M1188.15 409.17H1171.1V426.219H1188.15V409.17Z" fill="black"/>
<path d="M1205.2 409.17H1188.15V426.219H1205.2V409.17Z" fill="black"/>
<path d="M1222.25 409.17H1205.2V426.219H1222.25V409.17Z" fill="black"/>
<path d="M1239.3 409.17H1222.25V426.219H1239.3V409.17Z" fill="black"/>
<path d="M1256.35 409.17H1239.3V426.219H1256.35V409.17Z" fill="black"/>
<path d="M1290.45 409.17H1273.4V426.219H1290.45V409.17Z" fill="black"/>
<path d="M1358.65 409.17H1341.6V426.219H1358.65V409.17Z" fill="black"/>
<path d="M1443.9 409.17H1426.85V426.219H1443.9V409.17Z" fill="black"/>
<path d="M795.996 426.219H778.946V443.268H795.996V426.219Z" fill="black"/>
<path d="M1017.65 426.219H1000.6V443.268H1017.65V426.219Z" fill="black"/>
<path d="M1034.7 426.219H1017.65V443.268H1034.7V426.219Z" fill="black"/>
<path d="M1051.75 426.219H1034.7V443.268H1051.75V426.219Z" fill="black"/>
<path d="M1068.8 426.219H1051.75V443.268H1068.8V426.219Z" fill="black"/>
<path d="M1102.9 426.219H1085.85V443.268H1102.9V426.219Z" fill="black"/>
<path d="M1119.95 426.219H1102.9V443.268H1119.95V426.219Z" fill="black"/>
<path d="M1154.05 426.219H1137V443.268H1154.05V426.219Z" fill="black"/>
<path d="M1205.2 426.219H1188.15V443.268H1205.2V426.219Z" fill="black"/>
<path d="M1239.3 426.219H1222.25V443.268H1239.3V426.219Z" fill="black"/>
<path d="M1256.35 426.219H1239.3V443.268H1256.35V426.219Z" fill="black"/>
<path d="M1290.45 426.219H1273.4V443.268H1290.45V426.219Z" fill="black"/>
<path d="M1324.55 426.219H1307.5V443.268H1324.55V426.219Z" fill="black"/>
<path d="M1341.6 426.219H1324.55V443.268H1341.6V426.219Z" fill="black"/>
<path d="M1375.7 426.219H1358.65V443.268H1375.7V426.219Z" fill="black"/>
<path d="M1426.85 426.219H1409.8V443.268H1426.85V426.219Z" fill="black"/>
<path d="M1443.9 426.219H1426.85V443.268H1443.9V426.219Z" fill="black"/>
<path d="M1478 426.219H1460.95V443.268H1478V426.219Z" fill="black"/>
<path d="M813.046 443.268H795.996V460.316H813.046V443.268Z" fill="black"/>
<path d="M864.196 443.268H847.146V460.316H864.196V443.268Z" fill="black"/>
<path d="M881.246 443.268H864.196V460.316H881.246V443.268Z" fill="black"/>
<path d="M898.297 443.268H881.247V460.316H898.297V443.268Z" fill="black"/>
<path d="M949.447 443.268H932.396V460.316H949.447V443.268Z" fill="black"/>
<path d="M966.497 443.268H949.447V460.316H966.497V443.268Z" fill="black"/>
<path d="M983.547 443.268H966.497V460.316H983.547V443.268Z" fill="black"/>
<path d="M1000.6 443.268H983.547V460.316H1000.6V443.268Z" fill="black"/>
<path d="M1017.65 443.268H1000.6V460.316H1017.65V443.268Z" fill="black"/>
<path d="M1051.75 443.268H1034.7V460.316H1051.75V443.268Z" fill="black"/>
<path d="M1102.9 443.268H1085.85V460.316H1102.9V443.268Z" fill="black"/>
<path d="M1119.95 443.268H1102.9V460.316H1119.95V443.268Z" fill="black"/>
<path d="M1137 443.268H1119.95V460.316H1137V443.268Z" fill="black"/>
<path d="M1205.2 443.268H1188.15V460.316H1205.2V443.268Z" fill="black"/>
<path d="M1307.5 443.268H1290.45V460.316H1307.5V443.268Z" fill="black"/>
<path d="M1324.55 443.268H1307.5V460.316H1324.55V443.268Z" fill="black"/>
<path d="M1341.6 443.268H1324.55V460.316H1341.6V443.268Z" fill="black"/>
<path d="M1358.65 443.268H1341.6V460.316H1358.65V443.268Z" fill="black"/>
<path d="M1375.7 443.268H1358.65V460.316H1375.7V443.268Z" fill="black"/>
<path d="M1392.75 443.268H1375.7V460.316H1392.75V443.268Z" fill="black"/>
<path d="M1409.8 443.268H1392.75V460.316H1409.8V443.268Z" fill="black"/>
<path d="M1426.85 443.268H1409.8V460.316H1426.85V443.268Z" fill="black"/>
<path d="M1460.95 443.268H1443.9V460.316H1460.95V443.268Z" fill="black"/>
<path d="M1478 443.268H1460.95V460.316H1478V443.268Z" fill="black"/>
<path d="M830.096 460.317H813.046V477.366H830.096V460.317Z" fill="black"/>
<path d="M847.146 460.317H830.096V477.366H847.146V460.317Z" fill="black"/>
<path d="M881.246 460.317H864.196V477.366H881.246V460.317Z" fill="black"/>
<path d="M915.346 460.317H898.296V477.366H915.346V460.317Z" fill="black"/>
<path d="M932.397 460.317H915.346V477.366H932.397V460.317Z" fill="black"/>
<path d="M983.547 460.317H966.497V477.366H983.547V460.317Z" fill="black"/>
<path d="M1000.6 460.317H983.547V477.366H1000.6V460.317Z" fill="black"/>
<path d="M1017.65 460.317H1000.6V477.366H1017.65V460.317Z" fill="black"/>
<path d="M1051.75 460.317H1034.7V477.366H1051.75V460.317Z" fill="black"/>
<path d="M1068.8 460.317H1051.75V477.366H1068.8V460.317Z" fill="black"/>
<path d="M1119.95 460.317H1102.9V477.366H1119.95V460.317Z" fill="black"/>
<path d="M1137 460.317H1119.95V477.366H1137V460.317Z" fill="black"/>
<path d="M1154.05 460.317H1137V477.366H1154.05V460.317Z" fill="black"/>
<path d="M1171.1 460.317H1154.05V477.366H1171.1V460.317Z" fill="black"/>
<path d="M1188.15 460.317H1171.1V477.366H1188.15V460.317Z" fill="black"/>
<path d="M1239.3 460.317H1222.25V477.366H1239.3V460.317Z" fill="black"/>
<path d="M1256.35 460.317H1239.3V477.366H1256.35V460.317Z" fill="black"/>
<path d="M1324.55 460.317H1307.5V477.366H1324.55V460.317Z" fill="black"/>
<path d="M1341.6 460.317H1324.55V477.366H1341.6V460.317Z" fill="black"/>
<path d="M1392.75 460.317H1375.7V477.366H1392.75V460.317Z" fill="black"/>
<path d="M1426.85 460.317H1409.8V477.366H1426.85V460.317Z" fill="black"/>
<path d="M1460.95 460.317H1443.9V477.366H1460.95V460.317Z" fill="black"/>
<path d="M795.996 477.366H778.946V494.414H795.996V477.366Z" fill="black"/>
<path d="M813.046 477.366H795.996V494.414H813.046V477.366Z" fill="black"/>
<path d="M864.196 477.366H847.146V494.414H864.196V477.366Z" fill="black"/>
<path d="M898.297 477.366H881.247V494.414H898.297V477.366Z" fill="black"/>
<path d="M1017.65 477.366H1000.6V494.414H1017.65V477.366Z" fill="black"/>
<path d="M1051.75 477.366H1034.7V494.414H1051.75V477.366Z" fill="black"/>
<path d="M1068.8 477.366H1051.75V494.414H1068.8V477.366Z" fill="black"/>
<path d="M1102.9 477.366H1085.85V494.414H1102.9V477.366Z" fill="black"/>
<path d="M1119.95 477.366H1102.9V494.414H1119.95V477.366Z" fill="black"/>
<path d="M1137 477.366H1119.95V494.414H1137V477.366Z" fill="black"/>
<path d="M1154.05 477.366H1137V494.414H1154.05V477.366Z" fill="black"/>
<path d="M1171.1 477.366H1154.05V494.414H1171.1V477.366Z" fill="black"/>
<path d="M1188.15 477.366H1171.1V494.414H1188.15V477.366Z" fill="black"/>
<path d="M1205.2 477.366H1188.15V494.414H1205.2V477.366Z" fill="black"/>
<path d="M1222.25 477.366H1205.2V494.414H1222.25V477.366Z" fill="black"/>
<path d="M1239.3 477.366H1222.25V494.414H1239.3V477.366Z" fill="black"/>
<path d="M1256.35 477.366H1239.3V494.414H1256.35V477.366Z" fill="black"/>
<path d="M1307.5 477.366H1290.45V494.414H1307.5V477.366Z" fill="black"/>
<path d="M1324.55 477.366H1307.5V494.414H1324.55V477.366Z" fill="black"/>
<path d="M1341.6 477.366H1324.55V494.414H1341.6V477.366Z" fill="black"/>
<path d="M1358.65 477.366H1341.6V494.414H1358.65V477.366Z" fill="black"/>
<path d="M1392.75 477.366H1375.7V494.414H1392.75V477.366Z" fill="black"/>
<path d="M1409.8 477.366H1392.75V494.414H1409.8V477.366Z" fill="black"/>
<path d="M1426.85 477.366H1409.8V494.414H1426.85V477.366Z" fill="black"/>
<path d="M1478 477.366H1460.95V494.414H1478V477.366Z" fill="black"/>
<path d="M932.397 494.415H915.346V511.463H932.397V494.415Z" fill="black"/>
<path d="M949.447 494.415H932.396V511.463H949.447V494.415Z" fill="black"/>
<path d="M966.497 494.415H949.447V511.463H966.497V494.415Z" fill="black"/>
<path d="M1000.6 494.415H983.547V511.463H1000.6V494.415Z" fill="black"/>
<path d="M1017.65 494.415H1000.6V511.463H1017.65V494.415Z" fill="black"/>
<path d="M1051.75 494.415H1034.7V511.463H1051.75V494.415Z" fill="black"/>
<path d="M1068.8 494.415H1051.75V511.463H1068.8V494.415Z" fill="black"/>
<path d="M1102.9 494.415H1085.85V511.463H1102.9V494.415Z" fill="black"/>
<path d="M1119.95 494.415H1102.9V511.463H1119.95V494.415Z" fill="black"/>
<path d="M1137 494.415H1119.95V511.463H1137V494.415Z" fill="black"/>
<path d="M1154.05 494.415H1137V511.463H1154.05V494.415Z" fill="black"/>
<path d="M1171.1 494.415H1154.05V511.463H1171.1V494.415Z" fill="black"/>
<path d="M1222.25 494.415H1205.2V511.463H1222.25V494.415Z" fill="black"/>
<path d="M1239.3 494.415H1222.25V511.463H1239.3V494.415Z" fill="black"/>
<path d="M1307.5 494.415H1290.45V511.463H1307.5V494.415Z" fill="black"/>
<path d="M1324.55 494.415H1307.5V511.463H1324.55V494.415Z" fill="black"/>
<path d="M1358.65 494.415H1341.6V511.463H1358.65V494.415Z" fill="black"/>
<path d="M1375.7 494.415H1358.65V511.463H1375.7V494.415Z" fill="black"/>
<path d="M1392.75 494.415H1375.7V511.463H1392.75V494.415Z" fill="black"/>
<path d="M795.996 511.463H778.946V528.512H795.996V511.463Z" fill="black"/>
<path d="M898.297 511.463H881.247V528.512H898.297V511.463Z" fill="black"/>
<path d="M915.346 511.463H898.296V528.512H915.346V511.463Z" fill="black"/>
<path d="M932.397 511.463H915.346V528.512H932.397V511.463Z" fill="black"/>
<path d="M949.447 511.463H932.396V528.512H949.447V511.463Z" fill="black"/>
<path d="M1000.6 511.463H983.547V528.512H1000.6V511.463Z" fill="black"/>
<path d="M1034.7 511.463H1017.65V528.512H1034.7V511.463Z" fill="black"/>
<path d="M1085.85 511.463H1068.8V528.512H1085.85V511.463Z" fill="black"/>
<path d="M1119.95 511.463H1102.9V528.512H1119.95V511.463Z" fill="black"/>
<path d="M1154.05 511.463H1137V528.512H1154.05V511.463Z" fill="black"/>
<path d="M1222.25 511.463H1205.2V528.512H1222.25V511.463Z" fill="black"/>
<path d="M1341.6 511.463H1324.55V528.512H1341.6V511.463Z" fill="black"/>
<path d="M1358.65 511.463H1341.6V528.512H1358.65V511.463Z" fill="black"/>
<path d="M1375.7 511.463H1358.65V528.512H1375.7V511.463Z" fill="black"/>
<path d="M1392.75 511.463H1375.7V528.512H1392.75V511.463Z" fill="black"/>
<path d="M1426.85 511.463H1409.8V528.512H1426.85V511.463Z" fill="black"/>
<path d="M830.096 528.512H813.046V545.56H830.096V528.512Z" fill="black"/>
<path d="M847.146 528.512H830.096V545.56H847.146V528.512Z" fill="black"/>
<path d="M864.196 528.512H847.146V545.56H864.196V528.512Z" fill="black"/>
<path d="M881.246 528.512H864.196V545.56H881.246V528.512Z" fill="black"/>
<path d="M915.346 528.512H898.296V545.56H915.346V528.512Z" fill="black"/>
<path d="M932.397 528.512H915.346V545.56H932.397V528.512Z" fill="black"/>
<path d="M949.447 528.512H932.396V545.56H949.447V528.512Z" fill="black"/>
<path d="M966.497 528.512H949.447V545.56H966.497V528.512Z" fill="black"/>
<path d="M983.547 528.512H966.497V545.56H983.547V528.512Z" fill="black"/>
<path d="M1000.6 528.512H983.547V545.56H1000.6V528.512Z" fill="black"/>
<path d="M1017.65 528.512H1000.6V545.56H1017.65V528.512Z" fill="black"/>
<path d="M1051.75 528.512H1034.7V545.56H1051.75V528.512Z" fill="black"/>
<path d="M1068.8 528.512H1051.75V545.56H1068.8V528.512Z" fill="black"/>
<path d="M1085.85 528.512H1068.8V545.56H1085.85V528.512Z" fill="black"/>
<path d="M1119.95 528.512H1102.9V545.56H1119.95V528.512Z" fill="black"/>
<path d="M1171.1 528.512H1154.05V545.56H1171.1V528.512Z" fill="black"/>
<path d="M1188.15 528.512H1171.1V545.56H1188.15V528.512Z" fill="black"/>
<path d="M1256.35 528.512H1239.3V545.56H1256.35V528.512Z" fill="black"/>
<path d="M1273.4 528.512H1256.35V545.56H1273.4V528.512Z" fill="black"/>
<path d="M1290.45 528.512H1273.4V545.56H1290.45V528.512Z" fill="black"/>
<path d="M1324.55 528.512H1307.5V545.56H1324.55V528.512Z" fill="black"/>
<path d="M1341.6 528.512H1324.55V545.56H1341.6V528.512Z" fill="black"/>
<path d="M1375.7 528.512H1358.65V545.56H1375.7V528.512Z" fill="black"/>
<path d="M1409.8 528.512H1392.75V545.56H1409.8V528.512Z" fill="black"/>
<path d="M1443.9 528.512H1426.85V545.56H1443.9V528.512Z" fill="black"/>
<path d="M813.046 545.561H795.996V562.609H813.046V545.561Z" fill="black"/>
<path d="M864.196 545.561H847.146V562.609H864.196V545.561Z" fill="black"/>
<path d="M898.297 545.561H881.247V562.609H898.297V545.561Z" fill="black"/>
<path d="M966.497 545.561H949.447V562.609H966.497V545.561Z" fill="black"/>
<path d="M983.547 545.561H966.497V562.609H983.547V545.561Z" fill="black"/>
<path d="M1000.6 545.561H983.547V562.609H1000.6V545.561Z" fill="black"/>
<path d="M1034.7 545.561H1017.65V562.609H1034.7V545.561Z" fill="black"/>
<path d="M1068.8 545.561H1051.75V562.609H1068.8V545.561Z" fill="black"/>
<path d="M1085.85 545.561H1068.8V562.609H1085.85V545.561Z" fill="black"/>
<path d="M1102.9 545.561H1085.85V562.609H1102.9V545.561Z" fill="black"/>
<path d="M1154.05 545.561H1137V562.609H1154.05V545.561Z" fill="black"/>
<path d="M1239.3 545.561H1222.25V562.609H1239.3V545.561Z" fill="black"/>
<path d="M1256.35 545.561H1239.3V562.609H1256.35V545.561Z" fill="black"/>
<path d="M1273.4 545.561H1256.35V562.609H1273.4V545.561Z" fill="black"/>
<path d="M1290.45 545.561H1273.4V562.609H1290.45V545.561Z" fill="black"/>
<path d="M1307.5 545.561H1290.45V562.609H1307.5V545.561Z" fill="black"/>
<path d="M1324.55 545.561H1307.5V562.609H1324.55V545.561Z" fill="black"/>
<path d="M1341.6 545.561H1324.55V562.609H1341.6V545.561Z" fill="black"/>
<path d="M1358.65 545.561H1341.6V562.609H1358.65V545.561Z" fill="black"/>
<path d="M1375.7 545.561H1358.65V562.609H1375.7V545.561Z" fill="black"/>
<path d="M1392.75 545.561H1375.7V562.609H1392.75V545.561Z" fill="black"/>
<path d="M1409.8 545.561H1392.75V562.609H1409.8V545.561Z" fill="black"/>
<path d="M1426.85 545.561H1409.8V562.609H1426.85V545.561Z" fill="black"/>
<path d="M1443.9 545.561H1426.85V562.609H1443.9V545.561Z" fill="black"/>
<path d="M1478 545.561H1460.95V562.609H1478V545.561Z" fill="black"/>
<path d="M932.397 562.609H915.346V579.658H932.397V562.609Z" fill="black"/>
<path d="M966.497 562.609H949.447V579.658H966.497V562.609Z" fill="black"/>
<path d="M983.547 562.609H966.497V579.658H983.547V562.609Z" fill="black"/>
<path d="M1000.6 562.609H983.547V579.658H1000.6V562.609Z" fill="black"/>
<path d="M1017.65 562.609H1000.6V579.658H1017.65V562.609Z" fill="black"/>
<path d="M1034.7 562.609H1017.65V579.658H1034.7V562.609Z" fill="black"/>
<path d="M1085.85 562.609H1068.8V579.658H1085.85V562.609Z" fill="black"/>
<path d="M1102.9 562.609H1085.85V579.658H1102.9V562.609Z" fill="black"/>
<path d="M1119.95 562.609H1102.9V579.658H1119.95V562.609Z" fill="black"/>
<path d="M1137 562.609H1119.95V579.658H1137V562.609Z" fill="black"/>
<path d="M1154.05 562.609H1137V579.658H1154.05V562.609Z" fill="black"/>
<path d="M1188.15 562.609H1171.1V579.658H1188.15V562.609Z" fill="black"/>
<path d="M1222.25 562.609H1205.2V579.658H1222.25V562.609Z" fill="black"/>
<path d="M1273.4 562.609H1256.35V579.658H1273.4V562.609Z" fill="black"/>
<path d="M1341.6 562.609H1324.55V579.658H1341.6V562.609Z" fill="black"/>
<path d="M1409.8 562.609H1392.75V579.658H1409.8V562.609Z" fill="black"/>
<path d="M1460.95 562.609H1443.9V579.658H1460.95V562.609Z" fill="black"/>
<path d="M1478 562.609H1460.95V579.658H1478V562.609Z" fill="black"/>
<path d="M932.397 579.658H915.346V596.706H932.397V579.658Z" fill="black"/>
<path d="M949.447 579.658H932.396V596.706H949.447V579.658Z" fill="black"/>
<path d="M966.497 579.658H949.447V596.706H966.497V579.658Z" fill="black"/>
<path d="M1000.6 579.658H983.547V596.706H1000.6V579.658Z" fill="black"/>
<path d="M1017.65 579.658H1000.6V596.706H1017.65V579.658Z" fill="black"/>
<path d="M1034.7 579.658H1017.65V596.706H1034.7V579.658Z" fill="black"/>
<path d="M1051.75 579.658H1034.7V596.706H1051.75V579.658Z" fill="black"/>
<path d="M1102.9 579.658H1085.85V596.706H1102.9V579.658Z" fill="black"/>
<path d="M1137 579.658H1119.95V596.706H1137V579.658Z" fill="black"/>
<path d="M1188.15 579.658H1171.1V596.706H1188.15V579.658Z" fill="black"/>
<path d="M1205.2 579.658H1188.15V596.706H1205.2V579.658Z" fill="black"/>
<path d="M1222.25 579.658H1205.2V596.706H1222.25V579.658Z" fill="black"/>
<path d="M1290.45 579.658H1273.4V596.706H1290.45V579.658Z" fill="black"/>
<path d="M1324.55 579.658H1307.5V596.706H1324.55V579.658Z" fill="black"/>
<path d="M1341.6 579.658H1324.55V596.706H1341.6V579.658Z" fill="black"/>
<path d="M1375.7 579.658H1358.65V596.706H1375.7V579.658Z" fill="black"/>
<path d="M1409.8 579.658H1392.75V596.706H1409.8V579.658Z" fill="black"/>
<path d="M1460.95 579.658H1443.9V596.706H1460.95V579.658Z" fill="black"/>
<path d="M932.397 596.707H915.346V613.755H932.397V596.707Z" fill="black"/>
<path d="M949.447 596.707H932.396V613.755H949.447V596.707Z" fill="black"/>
<path d="M966.497 596.707H949.447V613.755H966.497V596.707Z" fill="black"/>
<path d="M1000.6 596.707H983.547V613.755H1000.6V596.707Z" fill="black"/>
<path d="M1017.65 596.707H1000.6V613.755H1017.65V596.707Z" fill="black"/>
<path d="M1034.7 596.707H1017.65V613.755H1034.7V596.707Z" fill="black"/>
<path d="M1051.75 596.707H1034.7V613.755H1051.75V596.707Z" fill="black"/>
<path d="M1068.8 596.707H1051.75V613.755H1068.8V596.707Z" fill="black"/>
<path d="M1085.85 596.707H1068.8V613.755H1085.85V596.707Z" fill="black"/>
<path d="M1307.5 596.707H1290.45V613.755H1307.5V596.707Z" fill="black"/>
<path d="M1341.6 596.707H1324.55V613.755H1341.6V596.707Z" fill="black"/>
<path d="M1409.8 596.707H1392.75V613.755H1409.8V596.707Z" fill="black"/>
<path d="M1478 596.707H1460.95V613.755H1478V596.707Z" fill="black"/>
<path d="M949.447 613.756H932.396V630.805H949.447V613.756Z" fill="black"/>
<path d="M983.547 613.756H966.497V630.805H983.547V613.756Z" fill="black"/>
<path d="M1000.6 613.756H983.547V630.805H1000.6V613.756Z" fill="black"/>
<path d="M1034.7 613.756H1017.65V630.805H1034.7V613.756Z" fill="black"/>
<path d="M1068.8 613.756H1051.75V630.805H1068.8V613.756Z" fill="black"/>
<path d="M1154.05 613.756H1137V630.805H1154.05V613.756Z" fill="black"/>
<path d="M1188.15 613.756H1171.1V630.805H1188.15V613.756Z" fill="black"/>
<path d="M1205.2 613.756H1188.15V630.805H1205.2V613.756Z" fill="black"/>
<path d="M1239.3 613.756H1222.25V630.805H1239.3V613.756Z" fill="black"/>
<path d="M1256.35 613.756H1239.3V630.805H1256.35V613.756Z" fill="black"/>
<path d="M1307.5 613.756H1290.45V630.805H1307.5V613.756Z" fill="black"/>
<path d="M1341.6 613.756H1324.55V630.805H1341.6V613.756Z" fill="black"/>
<path d="M1358.65 613.756H1341.6V630.805H1358.65V613.756Z" fill="black"/>
<path d="M1375.7 613.756H1358.65V630.805H1375.7V613.756Z" fill="black"/>
<path d="M1392.75 613.756H1375.7V630.805H1392.75V613.756Z" fill="black"/>
<path d="M1409.8 613.756H1392.75V630.805H1409.8V613.756Z" fill="black"/>
<path d="M1443.9 613.756H1426.85V630.805H1443.9V613.756Z" fill="black"/>
<path d="M932.397 630.805H915.346V647.853H932.397V630.805Z" fill="black"/>
<path d="M949.447 630.805H932.396V647.853H949.447V630.805Z" fill="black"/>
<path d="M1000.6 630.805H983.547V647.853H1000.6V630.805Z" fill="black"/>
<path d="M1034.7 630.805H1017.65V647.853H1034.7V630.805Z" fill="black"/>
<path d="M1051.75 630.805H1034.7V647.853H1051.75V630.805Z" fill="black"/>
<path d="M1085.85 630.805H1068.8V647.853H1085.85V630.805Z" fill="black"/>
<path d="M1119.95 630.805H1102.9V647.853H1119.95V630.805Z" fill="black"/>
<path d="M1137 630.805H1119.95V647.853H1137V630.805Z" fill="black"/>
<path d="M1171.1 630.805H1154.05V647.853H1171.1V630.805Z" fill="black"/>
<path d="M1205.2 630.805H1188.15V647.853H1205.2V630.805Z" fill="black"/>
<path d="M1222.25 630.805H1205.2V647.853H1222.25V630.805Z" fill="black"/>
<path d="M1239.3 630.805H1222.25V647.853H1239.3V630.805Z" fill="black"/>
<path d="M1256.35 630.805H1239.3V647.853H1256.35V630.805Z" fill="black"/>
<path d="M1273.4 630.805H1256.35V647.853H1273.4V630.805Z" fill="black"/>
<path d="M1290.45 630.805H1273.4V647.853H1290.45V630.805Z" fill="black"/>
<path d="M1307.5 630.805H1290.45V647.853H1307.5V630.805Z" fill="black"/>
<path d="M1409.8 630.805H1392.75V647.853H1409.8V630.805Z" fill="black"/>
<path d="M1426.85 630.805H1409.8V647.853H1426.85V630.805Z" fill="black"/>
<path d="M1443.9 630.805H1426.85V647.853H1443.9V630.805Z" fill="black"/>
<path d="M1460.95 630.805H1443.9V647.853H1460.95V630.805Z" fill="black"/>
<path d="M932.397 647.854H915.346V664.902H932.397V647.854Z" fill="black"/>
<path d="M949.447 647.854H932.396V664.902H949.447V647.854Z" fill="black"/>
<path d="M966.497 647.854H949.447V664.902H966.497V647.854Z" fill="black"/>
<path d="M1000.6 647.854H983.547V664.902H1000.6V647.854Z" fill="black"/>
<path d="M1017.65 647.854H1000.6V664.902H1017.65V647.854Z" fill="black"/>
<path d="M1051.75 647.854H1034.7V664.902H1051.75V647.854Z" fill="black"/>
<path d="M1085.85 647.854H1068.8V664.902H1085.85V647.854Z" fill="black"/>
<path d="M1102.9 647.854H1085.85V664.902H1102.9V647.854Z" fill="black"/>
<path d="M1119.95 647.854H1102.9V664.902H1119.95V647.854Z" fill="black"/>
<path d="M1137 647.854H1119.95V664.902H1137V647.854Z" fill="black"/>
<path d="M1154.05 647.854H1137V664.902H1154.05V647.854Z" fill="black"/>
<path d="M1171.1 647.854H1154.05V664.902H1171.1V647.854Z" fill="black"/>
<path d="M1205.2 647.854H1188.15V664.902H1205.2V647.854Z" fill="black"/>
<path d="M1239.3 647.854H1222.25V664.902H1239.3V647.854Z" fill="black"/>
<path d="M1273.4 647.854H1256.35V664.902H1273.4V647.854Z" fill="black"/>
<path d="M1341.6 647.854H1324.55V664.902H1341.6V647.854Z" fill="black"/>
<path d="M1392.75 647.854H1375.7V664.902H1392.75V647.854Z" fill="black"/>
<path d="M1460.95 647.854H1443.9V664.902H1460.95V647.854Z" fill="black"/>
<path d="M1478 647.854H1460.95V664.902H1478V647.854Z" fill="black"/>
<path d="M1017.65 664.902H1000.6V681.951H1017.65V664.902Z" fill="black"/>
<path d="M1068.8 664.902H1051.75V681.951H1068.8V664.902Z" fill="black"/>
<path d="M1085.85 664.902H1068.8V681.951H1085.85V664.902Z" fill="black"/>
<path d="M1102.9 664.902H1085.85V681.951H1102.9V664.902Z" fill="black"/>
<path d="M1137 664.902H1119.95V681.951H1137V664.902Z" fill="black"/>
<path d="M1154.05 664.902H1137V681.951H1154.05V664.902Z" fill="black"/>
<path d="M1171.1 664.902H1154.05V681.951H1171.1V664.902Z" fill="black"/>
<path d="M1188.15 664.902H1171.1V681.951H1188.15V664.902Z" fill="black"/>
<path d="M1239.3 664.902H1222.25V681.951H1239.3V664.902Z" fill="black"/>
<path d="M1256.35 664.902H1239.3V681.951H1256.35V664.902Z" fill="black"/>
<path d="M1273.4 664.902H1256.35V681.951H1273.4V664.902Z" fill="black"/>
<path d="M1324.55 664.902H1307.5V681.951H1324.55V664.902Z" fill="black"/>
<path d="M1341.6 664.902H1324.55V681.951H1341.6V664.902Z" fill="black"/>
<path d="M1358.65 664.902H1341.6V681.951H1358.65V664.902Z" fill="black"/>
<path d="M1409.8 664.902H1392.75V681.951H1409.8V664.902Z" fill="black"/>
<path d="M1426.85 664.902H1409.8V681.951H1426.85V664.902Z" fill="black"/>
<path d="M1460.95 664.902H1443.9V681.951H1460.95V664.902Z" fill="black"/>
<path d="M932.397 681.951H915.346V699H932.397V681.951Z" fill="black"/>
<path d="M949.447 681.951H932.396V699H949.447V681.951Z" fill="black"/>
<path d="M983.547 681.951H966.497V699H983.547V681.951Z" fill="black"/>
<path d="M1000.6 681.951H983.547V699H1000.6V681.951Z" fill="black"/>
<path d="M1017.65 681.951H1000.6V699H1017.65V681.951Z" fill="black"/>
<path d="M1051.75 681.951H1034.7V699H1051.75V681.951Z" fill="black"/>
<path d="M1137 681.951H1119.95V699H1137V681.951Z" fill="black"/>
<path d="M1154.05 681.951H1137V699H1154.05V681.951Z" fill="black"/>
<path d="M1171.1 681.951H1154.05V699H1171.1V681.951Z" fill="black"/>
<path d="M1222.25 681.951H1205.2V699H1222.25V681.951Z" fill="black"/>
<path d="M1273.4 681.951H1256.35V699H1273.4V681.951Z" fill="black"/>
<path d="M1307.5 681.951H1290.45V699H1307.5V681.951Z" fill="black"/>
<path d="M1324.55 681.951H1307.5V699H1324.55V681.951Z" fill="black"/>
<path d="M1341.6 681.951H1324.55V699H1341.6V681.951Z" fill="black"/>
<path d="M1460.95 681.951H1443.9V699H1460.95V681.951Z" fill="black"/>
<path d="M880.394 0H796.848H778.946V17.9012V101.44V119.341H796.848H880.394H898.296V101.44V17.9012V0H880.394ZM880.394 101.44H796.848V17.9012H880.394V101.44Z" fill="black"/>
<path d="M1460.1 0H1376.55H1358.65V17.9012V101.44V119.341H1376.55H1460.1H1478V101.44V17.9012V0H1460.1ZM1460.1 101.44H1376.55V17.9012H1460.1V101.44Z" fill="black"/>
<path d="M880.394 579.658H796.848H778.946V597.559V681.098V698.999H796.848H880.394H898.296V681.098V597.559V579.658H880.394ZM880.394 681.098H796.848V597.559H880.394V681.098Z" fill="black"/>
<path d="M864.197 34.0977H813.046V85.2439H864.197V34.0977Z" fill="black"/>
<path d="M1443.9 34.0977H1392.75V85.2439H1443.9V34.0977Z" fill="black"/>
<path d="M864.197 613.756H813.046V664.902H864.197V613.756Z" fill="black"/>
<path d="M190.651 0H169.468V21.1818H190.651V0Z" fill="black"/>
<path d="M211.835 0H190.651V21.1818H211.835V0Z" fill="black"/>
<path d="M233.018 0H211.834V21.1818H233.018V0Z" fill="black"/>
<path d="M254.202 0H233.018V21.1818H254.202V0Z" fill="black"/>
<path d="M296.568 0H275.385V21.1818H296.568V0Z" fill="black"/>
<path d="M317.752 0H296.568V21.1818H317.752V0Z" fill="black"/>
<path d="M360.119 0H338.935V21.1818H360.119V0Z" fill="black"/>
<path d="M381.302 0H360.119V21.1818H381.302V0Z" fill="black"/>
<path d="M402.486 0H381.302V21.1818H402.486V0Z" fill="black"/>
<path d="M466.036 0H444.853V21.1818H466.036V0Z" fill="black"/>
<path d="M487.22 0H466.036V21.1818H487.22V0Z" fill="black"/>
<path d="M190.651 21.1816H169.468V42.3635H190.651V21.1816Z" fill="black"/>
<path d="M275.385 21.1816H254.201V42.3635H275.385V21.1816Z" fill="black"/>
<path d="M296.568 21.1816H275.385V42.3635H296.568V21.1816Z" fill="black"/>
<path d="M402.486 21.1816H381.302V42.3635H402.486V21.1816Z" fill="black"/>
<path d="M423.67 21.1816H402.486V42.3635H423.67V21.1816Z" fill="black"/>
<path d="M529.586 21.1816H508.403V42.3635H529.586V21.1816Z" fill="black"/>
<path d="M190.651 42.3643H169.468V63.5461H190.651V42.3643Z" fill="black"/>
<path d="M211.835 42.3643H190.651V63.5461H211.835V42.3643Z" fill="black"/>
<path d="M233.018 42.3643H211.834V63.5461H233.018V42.3643Z" fill="black"/>
<path d="M275.385 42.3643H254.201V63.5461H275.385V42.3643Z" fill="black"/>
<path d="M296.568 42.3643H275.385V63.5461H296.568V42.3643Z" fill="black"/>
<path d="M338.935 42.3643H317.752V63.5461H338.935V42.3643Z" fill="black"/>
<path d="M360.119 42.3643H338.935V63.5461H360.119V42.3643Z" fill="black"/>
<path d="M444.853 42.3643H423.669V63.5461H444.853V42.3643Z" fill="black"/>
<path d="M466.036 42.3643H444.853V63.5461H466.036V42.3643Z" fill="black"/>
<path d="M508.403 42.3643H487.22V63.5461H508.403V42.3643Z" fill="black"/>
<path d="M233.018 63.5459H211.834V84.7277H233.018V63.5459Z" fill="black"/>
<path d="M275.385 63.5459H254.201V84.7277H275.385V63.5459Z" fill="black"/>
<path d="M296.568 63.5459H275.385V84.7277H296.568V63.5459Z" fill="black"/>
<path d="M317.752 63.5459H296.568V84.7277H317.752V63.5459Z" fill="black"/>
<path d="M381.302 63.5459H360.119V84.7277H381.302V63.5459Z" fill="black"/>
<path d="M402.486 63.5459H381.302V84.7277H402.486V63.5459Z" fill="black"/>
<path d="M423.67 63.5459H402.486V84.7277H423.67V63.5459Z" fill="black"/>
<path d="M466.036 63.5459H444.853V84.7277H466.036V63.5459Z" fill="black"/>
<path d="M508.403 63.5459H487.22V84.7277H508.403V63.5459Z" fill="black"/>
<path d="M529.586 63.5459H508.403V84.7277H529.586V63.5459Z" fill="black"/>
<path d="M190.651 84.7275H169.468V105.909H190.651V84.7275Z" fill="black"/>
<path d="M296.568 84.7275H275.385V105.909H296.568V84.7275Z" fill="black"/>
<path d="M423.67 84.7275H402.486V105.909H423.67V84.7275Z" fill="black"/>
<path d="M444.853 84.7275H423.669V105.909H444.853V84.7275Z" fill="black"/>
<path d="M466.036 84.7275H444.853V105.909H466.036V84.7275Z" fill="black"/>
<path d="M233.018 105.91H211.834V127.091H233.018V105.91Z" fill="black"/>
<path d="M254.202 105.91H233.018V127.091H254.202V105.91Z" fill="black"/>
<path d="M296.568 105.91H275.385V127.091H296.568V105.91Z" fill="black"/>
<path d="M317.752 105.91H296.568V127.091H317.752V105.91Z" fill="black"/>
<path d="M381.302 105.91H360.119V127.091H381.302V105.91Z" fill="black"/>
<path d="M487.22 105.91H466.036V127.091H487.22V105.91Z" fill="black"/>
<path d="M508.403 105.91H487.22V127.091H508.403V105.91Z" fill="black"/>
<path d="M190.651 127.092H169.468V148.274H190.651V127.092Z" fill="black"/>
<path d="M233.018 127.092H211.834V148.274H233.018V127.092Z" fill="black"/>
<path d="M275.385 127.092H254.201V148.274H275.385V127.092Z" fill="black"/>
<path d="M317.752 127.092H296.568V148.274H317.752V127.092Z" fill="black"/>
<path d="M360.119 127.092H338.935V148.274H360.119V127.092Z" fill="black"/>
<path d="M402.486 127.092H381.302V148.274H402.486V127.092Z" fill="black"/>
<path d="M444.853 127.092H423.669V148.274H444.853V127.092Z" fill="black"/>
<path d="M487.22 127.092H466.036V148.274H487.22V127.092Z" fill="black"/>
<path d="M529.586 127.092H508.403V148.274H529.586V127.092Z" fill="black"/>
<path d="M233.018 148.274H211.834V169.456H233.018V148.274Z" fill="black"/>
<path d="M254.202 148.274H233.018V169.456H254.202V148.274Z" fill="black"/>
<path d="M296.568 148.274H275.385V169.456H296.568V148.274Z" fill="black"/>
<path d="M338.935 148.274H317.752V169.456H338.935V148.274Z" fill="black"/>
<path d="M360.119 148.274H338.935V169.456H360.119V148.274Z" fill="black"/>
<path d="M423.67 148.274H402.486V169.456H423.67V148.274Z" fill="black"/>
<path d="M487.22 148.274H466.036V169.456H487.22V148.274Z" fill="black"/>
<path d="M21.1835 169.456H0V190.637H21.1835V169.456Z" fill="black"/>
<path d="M84.734 169.456H63.5505V190.637H84.734V169.456Z" fill="black"/>
<path d="M105.918 169.456H84.7343V190.637H105.918V169.456Z" fill="black"/>
<path d="M127.101 169.456H105.918V190.637H127.101V169.456Z" fill="black"/>
<path d="M148.284 169.456H127.101V190.637H148.284V169.456Z" fill="black"/>
<path d="M169.468 169.456H148.284V190.637H169.468V169.456Z" fill="black"/>
<path d="M190.651 169.456H169.468V190.637H190.651V169.456Z" fill="black"/>
<path d="M211.835 169.456H190.651V190.637H211.835V169.456Z" fill="black"/>
<path d="M233.018 169.456H211.834V190.637H233.018V169.456Z" fill="black"/>
<path d="M317.752 169.456H296.568V190.637H317.752V169.456Z" fill="black"/>
<path d="M338.935 169.456H317.752V190.637H338.935V169.456Z" fill="black"/>
<path d="M381.302 169.456H360.119V190.637H381.302V169.456Z" fill="black"/>
<path d="M402.486 169.456H381.302V190.637H402.486V169.456Z" fill="black"/>
<path d="M423.67 169.456H402.486V190.637H423.67V169.456Z" fill="black"/>
<path d="M508.403 169.456H487.22V190.637H508.403V169.456Z" fill="black"/>
<path d="M529.586 169.456H508.403V190.637H529.586V169.456Z" fill="black"/>
<path d="M550.77 169.456H529.586V190.637H550.77V169.456Z" fill="black"/>
<path d="M614.32 169.456H593.137V190.637H614.32V169.456Z" fill="black"/>
<path d="M656.687 169.456H635.503V190.637H656.687V169.456Z" fill="black"/>
<path d="M677.87 169.456H656.687V190.637H677.87V169.456Z" fill="black"/>
<path d="M699.054 169.456H677.871V190.637H699.054V169.456Z" fill="black"/>
<path d="M42.3668 190.636H21.1833V211.818H42.3668V190.636Z" fill="black"/>
<path d="M127.101 190.636H105.918V211.818H127.101V190.636Z" fill="black"/>
<path d="M169.468 190.636H148.284V211.818H169.468V190.636Z" fill="black"/>
<path d="M190.651 190.636H169.468V211.818H190.651V190.636Z" fill="black"/>
<path d="M211.835 190.636H190.651V211.818H211.835V190.636Z" fill="black"/>
<path d="M233.018 190.636H211.834V211.818H233.018V190.636Z" fill="black"/>
<path d="M254.202 190.636H233.018V211.818H254.202V190.636Z" fill="black"/>
<path d="M275.385 190.636H254.201V211.818H275.385V190.636Z" fill="black"/>
<path d="M338.935 190.636H317.752V211.818H338.935V190.636Z" fill="black"/>
<path d="M402.486 190.636H381.302V211.818H402.486V190.636Z" fill="black"/>
<path d="M423.67 190.636H402.486V211.818H423.67V190.636Z" fill="black"/>
<path d="M508.403 190.636H487.22V211.818H508.403V190.636Z" fill="black"/>
<path d="M529.586 190.636H508.403V211.818H529.586V190.636Z" fill="black"/>
<path d="M614.32 190.636H593.137V211.818H614.32V190.636Z" fill="black"/>
<path d="M635.503 190.636H614.32V211.818H635.503V190.636Z" fill="black"/>
<path d="M656.687 190.636H635.503V211.818H656.687V190.636Z" fill="black"/>
<path d="M677.87 190.636H656.687V211.818H677.87V190.636Z" fill="black"/>
<path d="M21.1835 211.818H0V233H21.1835V211.818Z" fill="black"/>
<path d="M42.3668 211.818H21.1833V233H42.3668V211.818Z" fill="black"/>
<path d="M63.5506 211.818H42.3672V233H63.5506V211.818Z" fill="black"/>
<path d="M105.918 211.818H84.7343V233H105.918V211.818Z" fill="black"/>
<path d="M127.101 211.818H105.918V233H127.101V211.818Z" fill="black"/>
<path d="M148.284 211.818H127.101V233H148.284V211.818Z" fill="black"/>
<path d="M211.835 211.818H190.651V233H211.835V211.818Z" fill="black"/>
<path d="M233.018 211.818H211.834V233H233.018V211.818Z" fill="black"/>
<path d="M275.385 211.818H254.201V233H275.385V211.818Z" fill="black"/>
<path d="M338.935 211.818H317.752V233H338.935V211.818Z" fill="black"/>
<path d="M381.302 211.818H360.119V233H381.302V211.818Z" fill="black"/>
<path d="M466.036 211.818H444.853V233H466.036V211.818Z" fill="black"/>
<path d="M487.22 211.818H466.036V233H487.22V211.818Z" fill="black"/>
<path d="M508.403 211.818H487.22V233H508.403V211.818Z" fill="black"/>
<path d="M550.77 211.818H529.586V233H550.77V211.818Z" fill="black"/>
<path d="M614.32 211.818H593.137V233H614.32V211.818Z" fill="black"/>
<path d="M635.503 211.818H614.32V233H635.503V211.818Z" fill="black"/>
<path d="M656.687 211.818H635.503V233H656.687V211.818Z" fill="black"/>
<path d="M677.87 211.818H656.687V233H677.87V211.818Z" fill="black"/>
<path d="M699.054 211.818H677.871V233H699.054V211.818Z" fill="black"/>
<path d="M63.5506 233H42.3672V254.181H63.5506V233Z" fill="black"/>
<path d="M84.734 233H63.5505V254.181H84.734V233Z" fill="black"/>
<path d="M169.468 233H148.284V254.181H169.468V233Z" fill="black"/>
<path d="M190.651 233H169.468V254.181H190.651V233Z" fill="black"/>
<path d="M211.835 233H190.651V254.181H211.835V233Z" fill="black"/>
<path d="M233.018 233H211.834V254.181H233.018V233Z" fill="black"/>
<path d="M254.202 233H233.018V254.181H254.202V233Z" fill="black"/>
<path d="M275.385 233H254.201V254.181H275.385V233Z" fill="black"/>
<path d="M317.752 233H296.568V254.181H317.752V233Z" fill="black"/>
<path d="M360.119 233H338.935V254.181H360.119V233Z" fill="black"/>
<path d="M381.302 233H360.119V254.181H381.302V233Z" fill="black"/>
<path d="M402.486 233H381.302V254.181H402.486V233Z" fill="black"/>
<path d="M423.67 233H402.486V254.181H423.67V233Z" fill="black"/>
<path d="M487.22 233H466.036V254.181H487.22V233Z" fill="black"/>
<path d="M529.586 233H508.403V254.181H529.586V233Z" fill="black"/>
<path d="M550.77 233H529.586V254.181H550.77V233Z" fill="black"/>
<path d="M571.953 233H550.77V254.181H571.953V233Z" fill="black"/>
<path d="M593.138 233H571.954V254.181H593.138V233Z" fill="black"/>
<path d="M656.687 233H635.503V254.181H656.687V233Z" fill="black"/>
<path d="M677.87 233H656.687V254.181H677.87V233Z" fill="black"/>
<path d="M21.1835 254.182H0V275.364H21.1835V254.182Z" fill="black"/>
<path d="M84.734 254.182H63.5505V275.364H84.734V254.182Z" fill="black"/>
<path d="M148.284 254.182H127.101V275.364H148.284V254.182Z" fill="black"/>
<path d="M169.468 254.182H148.284V275.364H169.468V254.182Z" fill="black"/>
<path d="M211.835 254.182H190.651V275.364H211.835V254.182Z" fill="black"/>
<path d="M254.202 254.182H233.018V275.364H254.202V254.182Z" fill="black"/>
<path d="M275.385 254.182H254.201V275.364H275.385V254.182Z" fill="black"/>
<path d="M296.568 254.182H275.385V275.364H296.568V254.182Z" fill="black"/>
<path d="M317.752 254.182H296.568V275.364H317.752V254.182Z" fill="black"/>
<path d="M338.935 254.182H317.752V275.364H338.935V254.182Z" fill="black"/>
<path d="M402.486 254.182H381.302V275.364H402.486V254.182Z" fill="black"/>
<path d="M423.67 254.182H402.486V275.364H423.67V254.182Z" fill="black"/>
<path d="M444.853 254.182H423.669V275.364H444.853V254.182Z" fill="black"/>
<path d="M508.403 254.182H487.22V275.364H508.403V254.182Z" fill="black"/>
<path d="M529.586 254.182H508.403V275.364H529.586V254.182Z" fill="black"/>
<path d="M571.953 254.182H550.77V275.364H571.953V254.182Z" fill="black"/>
<path d="M593.138 254.182H571.954V275.364H593.138V254.182Z" fill="black"/>
<path d="M21.1835 275.364H0V296.546H21.1835V275.364Z" fill="black"/>
<path d="M84.734 275.364H63.5505V296.546H84.734V275.364Z" fill="black"/>
<path d="M105.918 275.364H84.7343V296.546H105.918V275.364Z" fill="black"/>
<path d="M127.101 275.364H105.918V296.546H127.101V275.364Z" fill="black"/>
<path d="M169.468 275.364H148.284V296.546H169.468V275.364Z" fill="black"/>
<path d="M233.018 275.364H211.834V296.546H233.018V275.364Z" fill="black"/>
<path d="M254.202 275.364H233.018V296.546H254.202V275.364Z" fill="black"/>
<path d="M296.568 275.364H275.385V296.546H296.568V275.364Z" fill="black"/>
<path d="M317.752 275.364H296.568V296.546H317.752V275.364Z" fill="black"/>
<path d="M338.935 275.364H317.752V296.546H338.935V275.364Z" fill="black"/>
<path d="M381.302 275.364H360.119V296.546H381.302V275.364Z" fill="black"/>
<path d="M508.403 275.364H487.22V296.546H508.403V275.364Z" fill="black"/>
<path d="M529.586 275.364H508.403V296.546H529.586V275.364Z" fill="black"/>
<path d="M550.77 275.364H529.586V296.546H550.77V275.364Z" fill="black"/>
<path d="M593.138 275.364H571.954V296.546H593.138V275.364Z" fill="black"/>
<path d="M656.687 275.364H635.503V296.546H656.687V275.364Z" fill="black"/>
<path d="M21.1835 296.546H0V317.728H21.1835V296.546Z" fill="black"/>
<path d="M42.3668 296.546H21.1833V317.728H42.3668V296.546Z" fill="black"/>
<path d="M84.734 296.546H63.5505V317.728H84.734V296.546Z" fill="black"/>
<path d="M105.918 296.546H84.7343V317.728H105.918V296.546Z" fill="black"/>
<path d="M127.101 296.546H105.918V317.728H127.101V296.546Z" fill="black"/>
<path d="M148.284 296.546H127.101V317.728H148.284V296.546Z" fill="black"/>
<path d="M169.468 296.546H148.284V317.728H169.468V296.546Z" fill="black"/>
<path d="M190.651 296.546H169.468V317.728H190.651V296.546Z" fill="black"/>
<path d="M233.018 296.546H211.834V317.728H233.018V296.546Z" fill="black"/>
<path d="M254.202 296.546H233.018V317.728H254.202V296.546Z" fill="black"/>
<path d="M296.568 296.546H275.385V317.728H296.568V296.546Z" fill="black"/>
<path d="M338.935 296.546H317.752V317.728H338.935V296.546Z" fill="black"/>
<path d="M360.119 296.546H338.935V317.728H360.119V296.546Z" fill="black"/>
<path d="M381.302 296.546H360.119V317.728H381.302V296.546Z" fill="black"/>
<path d="M423.67 296.546H402.486V317.728H423.67V296.546Z" fill="black"/>
<path d="M444.853 296.546H423.669V317.728H444.853V296.546Z" fill="black"/>
<path d="M466.036 296.546H444.853V317.728H466.036V296.546Z" fill="black"/>
<path d="M487.22 296.546H466.036V317.728H487.22V296.546Z" fill="black"/>
<path d="M571.953 296.546H550.77V317.728H571.953V296.546Z" fill="black"/>
<path d="M656.687 296.546H635.503V317.728H656.687V296.546Z" fill="black"/>
<path d="M21.1835 317.728H0V338.909H21.1835V317.728Z" fill="black"/>
<path d="M63.5506 317.728H42.3672V338.909H63.5506V317.728Z" fill="black"/>
<path d="M84.734 317.728H63.5505V338.909H84.734V317.728Z" fill="black"/>
<path d="M105.918 317.728H84.7343V338.909H105.918V317.728Z" fill="black"/>
<path d="M211.835 317.728H190.651V338.909H211.835V317.728Z" fill="black"/>
<path d="M275.385 317.728H254.201V338.909H275.385V317.728Z" fill="black"/>
<path d="M317.752 317.728H296.568V338.909H317.752V317.728Z" fill="black"/>
<path d="M360.119 317.728H338.935V338.909H360.119V317.728Z" fill="black"/>
<path d="M444.853 317.728H423.669V338.909H444.853V317.728Z" fill="black"/>
<path d="M487.22 317.728H466.036V338.909H487.22V317.728Z" fill="black"/>
<path d="M550.77 317.728H529.586V338.909H550.77V317.728Z" fill="black"/>
<path d="M593.138 317.728H571.954V338.909H593.138V317.728Z" fill="black"/>
<path d="M635.503 317.728H614.32V338.909H635.503V317.728Z" fill="black"/>
<path d="M656.687 317.728H635.503V338.909H656.687V317.728Z" fill="black"/>
<path d="M699.054 317.728H677.871V338.909H699.054V317.728Z" fill="black"/>
<path d="M21.1835 338.909H0V360.091H21.1835V338.909Z" fill="black"/>
<path d="M63.5506 338.909H42.3672V360.091H63.5506V338.909Z" fill="black"/>
<path d="M148.284 338.909H127.101V360.091H148.284V338.909Z" fill="black"/>
<path d="M233.018 338.909H211.834V360.091H233.018V338.909Z" fill="black"/>
<path d="M275.385 338.909H254.201V360.091H275.385V338.909Z" fill="black"/>
<path d="M296.568 338.909H275.385V360.091H296.568V338.909Z" fill="black"/>
<path d="M338.935 338.909H317.752V360.091H338.935V338.909Z" fill="black"/>
<path d="M360.119 338.909H338.935V360.091H360.119V338.909Z" fill="black"/>
<path d="M423.67 338.909H402.486V360.091H423.67V338.909Z" fill="black"/>
<path d="M444.853 338.909H423.669V360.091H444.853V338.909Z" fill="black"/>
<path d="M487.22 338.909H466.036V360.091H487.22V338.909Z" fill="black"/>
<path d="M508.403 338.909H487.22V360.091H508.403V338.909Z" fill="black"/>
<path d="M550.77 338.909H529.586V360.091H550.77V338.909Z" fill="black"/>
<path d="M571.953 338.909H550.77V360.091H571.953V338.909Z" fill="black"/>
<path d="M593.138 338.909H571.954V360.091H593.138V338.909Z" fill="black"/>
<path d="M614.32 338.909H593.137V360.091H614.32V338.909Z" fill="black"/>
<path d="M635.503 338.909H614.32V360.091H635.503V338.909Z" fill="black"/>
<path d="M42.3668 360.092H21.1833V381.274H42.3668V360.092Z" fill="black"/>
<path d="M63.5506 360.092H42.3672V381.274H63.5506V360.092Z" fill="black"/>
<path d="M84.734 360.092H63.5505V381.274H84.734V360.092Z" fill="black"/>
<path d="M105.918 360.092H84.7343V381.274H105.918V360.092Z" fill="black"/>
<path d="M127.101 360.092H105.918V381.274H127.101V360.092Z" fill="black"/>
<path d="M169.468 360.092H148.284V381.274H169.468V360.092Z" fill="black"/>
<path d="M254.202 360.092H233.018V381.274H254.202V360.092Z" fill="black"/>
<path d="M296.568 360.092H275.385V381.274H296.568V360.092Z" fill="black"/>
<path d="M338.935 360.092H317.752V381.274H338.935V360.092Z" fill="black"/>
<path d="M423.67 360.092H402.486V381.274H423.67V360.092Z" fill="black"/>
<path d="M444.853 360.092H423.669V381.274H444.853V360.092Z" fill="black"/>
<path d="M466.036 360.092H444.853V381.274H466.036V360.092Z" fill="black"/>
<path d="M571.953 360.092H550.77V381.274H571.953V360.092Z" fill="black"/>
<path d="M614.32 360.092H593.137V381.274H614.32V360.092Z" fill="black"/>
<path d="M656.687 360.092H635.503V381.274H656.687V360.092Z" fill="black"/>
<path d="M699.054 360.092H677.871V381.274H699.054V360.092Z" fill="black"/>
<path d="M42.3668 381.272H21.1833V402.454H42.3668V381.272Z" fill="black"/>
<path d="M105.918 381.272H84.7343V402.454H105.918V381.272Z" fill="black"/>
<path d="M127.101 381.272H105.918V402.454H127.101V381.272Z" fill="black"/>
<path d="M148.284 381.272H127.101V402.454H148.284V381.272Z" fill="black"/>
<path d="M190.651 381.272H169.468V402.454H190.651V381.272Z" fill="black"/>
<path d="M211.835 381.272H190.651V402.454H211.835V381.272Z" fill="black"/>
<path d="M254.202 381.272H233.018V402.454H254.202V381.272Z" fill="black"/>
<path d="M296.568 381.272H275.385V402.454H296.568V381.272Z" fill="black"/>
<path d="M338.935 381.272H317.752V402.454H338.935V381.272Z" fill="black"/>
<path d="M381.302 381.272H360.119V402.454H381.302V381.272Z" fill="black"/>
<path d="M402.486 381.272H381.302V402.454H402.486V381.272Z" fill="black"/>
<path d="M423.67 381.272H402.486V402.454H423.67V381.272Z" fill="black"/>
<path d="M444.853 381.272H423.669V402.454H444.853V381.272Z" fill="black"/>
<path d="M466.036 381.272H444.853V402.454H466.036V381.272Z" fill="black"/>
<path d="M508.403 381.272H487.22V402.454H508.403V381.272Z" fill="black"/>
<path d="M529.586 381.272H508.403V402.454H529.586V381.272Z" fill="black"/>
<path d="M550.77 381.272H529.586V402.454H550.77V381.272Z" fill="black"/>
<path d="M593.138 381.272H571.954V402.454H593.138V381.272Z" fill="black"/>
<path d="M635.503 381.272H614.32V402.454H635.503V381.272Z" fill="black"/>
<path d="M656.687 381.272H635.503V402.454H656.687V381.272Z" fill="black"/>
<path d="M699.054 381.272H677.871V402.454H699.054V381.272Z" fill="black"/>
<path d="M21.1835 402.455H0V423.637H21.1835V402.455Z" fill="black"/>
<path d="M42.3668 402.455H21.1833V423.637H42.3668V402.455Z" fill="black"/>
<path d="M84.734 402.455H63.5505V423.637H84.734V402.455Z" fill="black"/>
<path d="M105.918 402.455H84.7343V423.637H105.918V402.455Z" fill="black"/>
<path d="M127.101 402.455H105.918V423.637H127.101V402.455Z" fill="black"/>
<path d="M169.468 402.455H148.284V423.637H169.468V402.455Z" fill="black"/>
<path d="M190.651 402.455H169.468V423.637H190.651V402.455Z" fill="black"/>
<path d="M254.202 402.455H233.018V423.637H254.202V402.455Z" fill="black"/>
<path d="M275.385 402.455H254.201V423.637H275.385V402.455Z" fill="black"/>
<path d="M317.752 402.455H296.568V423.637H317.752V402.455Z" fill="black"/>
<path d="M487.22 402.455H466.036V423.637H487.22V402.455Z" fill="black"/>
<path d="M529.586 402.455H508.403V423.637H529.586V402.455Z" fill="black"/>
<path d="M614.32 402.455H593.137V423.637H614.32V402.455Z" fill="black"/>
<path d="M635.503 402.455H614.32V423.637H635.503V402.455Z" fill="black"/>
<path d="M656.687 402.455H635.503V423.637H656.687V402.455Z" fill="black"/>
<path d="M699.054 402.455H677.871V423.637H699.054V402.455Z" fill="black"/>
<path d="M21.1835 423.637H0V444.819H21.1835V423.637Z" fill="black"/>
<path d="M63.5506 423.637H42.3672V444.819H63.5506V423.637Z" fill="black"/>
<path d="M148.284 423.637H127.101V444.819H148.284V423.637Z" fill="black"/>
<path d="M169.468 423.637H148.284V444.819H169.468V423.637Z" fill="black"/>
<path d="M190.651 423.637H169.468V444.819H190.651V423.637Z" fill="black"/>
<path d="M233.018 423.637H211.834V444.819H233.018V423.637Z" fill="black"/>
<path d="M317.752 423.637H296.568V444.819H317.752V423.637Z" fill="black"/>
<path d="M338.935 423.637H317.752V444.819H338.935V423.637Z" fill="black"/>
<path d="M381.302 423.637H360.119V444.819H381.302V423.637Z" fill="black"/>
<path d="M402.486 423.637H381.302V444.819H402.486V423.637Z" fill="black"/>
<path d="M529.586 423.637H508.403V444.819H529.586V423.637Z" fill="black"/>
<path d="M550.77 423.637H529.586V444.819H550.77V423.637Z" fill="black"/>
<path d="M593.138 423.637H571.954V444.819H593.138V423.637Z" fill="black"/>
<path d="M635.503 423.637H614.32V444.819H635.503V423.637Z" fill="black"/>
<path d="M677.87 423.637H656.687V444.819H677.87V423.637Z" fill="black"/>
<path d="M699.054 423.637H677.871V444.819H699.054V423.637Z" fill="black"/>
<path d="M21.1835 444.819H0V466.001H21.1835V444.819Z" fill="black"/>
<path d="M42.3668 444.819H21.1833V466.001H42.3668V444.819Z" fill="black"/>
<path d="M63.5506 444.819H42.3672V466.001H63.5506V444.819Z" fill="black"/>
<path d="M84.734 444.819H63.5505V466.001H84.734V444.819Z" fill="black"/>
<path d="M105.918 444.819H84.7343V466.001H105.918V444.819Z" fill="black"/>
<path d="M254.202 444.819H233.018V466.001H254.202V444.819Z" fill="black"/>
<path d="M296.568 444.819H275.385V466.001H296.568V444.819Z" fill="black"/>
<path d="M338.935 444.819H317.752V466.001H338.935V444.819Z" fill="black"/>
<path d="M360.119 444.819H338.935V466.001H360.119V444.819Z" fill="black"/>
<path d="M423.67 444.819H402.486V466.001H423.67V444.819Z" fill="black"/>
<path d="M487.22 444.819H466.036V466.001H487.22V444.819Z" fill="black"/>
<path d="M508.403 444.819H487.22V466.001H508.403V444.819Z" fill="black"/>
<path d="M593.138 444.819H571.954V466.001H593.138V444.819Z" fill="black"/>
<path d="M614.32 444.819H593.137V466.001H614.32V444.819Z" fill="black"/>
<path d="M635.503 444.819H614.32V466.001H635.503V444.819Z" fill="black"/>
<path d="M21.1835 466H0V487.182H21.1835V466Z" fill="black"/>
<path d="M84.734 466H63.5505V487.182H84.734V466Z" fill="black"/>
<path d="M127.101 466H105.918V487.182H127.101V466Z" fill="black"/>
<path d="M148.284 466H127.101V487.182H148.284V466Z" fill="black"/>
<path d="M169.468 466H148.284V487.182H169.468V466Z" fill="black"/>
<path d="M275.385 466H254.201V487.182H275.385V466Z" fill="black"/>
<path d="M296.568 466H275.385V487.182H296.568V466Z" fill="black"/>
<path d="M338.935 466H317.752V487.182H338.935V466Z" fill="black"/>
<path d="M360.119 466H338.935V487.182H360.119V466Z" fill="black"/>
<path d="M381.302 466H360.119V487.182H381.302V466Z" fill="black"/>
<path d="M466.036 466H444.853V487.182H466.036V466Z" fill="black"/>
<path d="M508.403 466H487.22V487.182H508.403V466Z" fill="black"/>
<path d="M571.953 466H550.77V487.182H571.953V466Z" fill="black"/>
<path d="M593.138 466H571.954V487.182H593.138V466Z" fill="black"/>
<path d="M614.32 466H593.137V487.182H614.32V466Z" fill="black"/>
<path d="M635.503 466H614.32V487.182H635.503V466Z" fill="black"/>
<path d="M656.687 466H635.503V487.182H656.687V466Z" fill="black"/>
<path d="M677.87 466H656.687V487.182H677.87V466Z" fill="black"/>
<path d="M699.054 466H677.871V487.182H699.054V466Z" fill="black"/>
<path d="M21.1835 487.183H0V508.364H21.1835V487.183Z" fill="black"/>
<path d="M63.5506 487.183H42.3672V508.364H63.5506V487.183Z" fill="black"/>
<path d="M105.918 487.183H84.7343V508.364H105.918V487.183Z" fill="black"/>
<path d="M169.468 487.183H148.284V508.364H169.468V487.183Z" fill="black"/>
<path d="M211.835 487.183H190.651V508.364H211.835V487.183Z" fill="black"/>
<path d="M296.568 487.183H275.385V508.364H296.568V487.183Z" fill="black"/>
<path d="M317.752 487.183H296.568V508.364H317.752V487.183Z" fill="black"/>
<path d="M360.119 487.183H338.935V508.364H360.119V487.183Z" fill="black"/>
<path d="M381.302 487.183H360.119V508.364H381.302V487.183Z" fill="black"/>
<path d="M423.67 487.183H402.486V508.364H423.67V487.183Z" fill="black"/>
<path d="M444.853 487.183H423.669V508.364H444.853V487.183Z" fill="black"/>
<path d="M487.22 487.183H466.036V508.364H487.22V487.183Z" fill="black"/>
<path d="M508.403 487.183H487.22V508.364H508.403V487.183Z" fill="black"/>
<path d="M550.77 487.183H529.586V508.364H550.77V487.183Z" fill="black"/>
<path d="M614.32 487.183H593.137V508.364H614.32V487.183Z" fill="black"/>
<path d="M656.687 487.183H635.503V508.364H656.687V487.183Z" fill="black"/>
<path d="M699.054 487.183H677.871V508.364H699.054V487.183Z" fill="black"/>
<path d="M21.1835 508.365H0V529.547H21.1835V508.365Z" fill="black"/>
<path d="M42.3668 508.365H21.1833V529.547H42.3668V508.365Z" fill="black"/>
<path d="M63.5506 508.365H42.3672V529.547H63.5506V508.365Z" fill="black"/>
<path d="M105.918 508.365H84.7343V529.547H105.918V508.365Z" fill="black"/>
<path d="M127.101 508.365H105.918V529.547H127.101V508.365Z" fill="black"/>
<path d="M148.284 508.365H127.101V529.547H148.284V508.365Z" fill="black"/>
<path d="M211.835 508.365H190.651V529.547H211.835V508.365Z" fill="black"/>
<path d="M233.018 508.365H211.834V529.547H233.018V508.365Z" fill="black"/>
<path d="M254.202 508.365H233.018V529.547H254.202V508.365Z" fill="black"/>
<path d="M296.568 508.365H275.385V529.547H296.568V508.365Z" fill="black"/>
<path d="M338.935 508.365H317.752V529.547H338.935V508.365Z" fill="black"/>
<path d="M360.119 508.365H338.935V529.547H360.119V508.365Z" fill="black"/>
<path d="M444.853 508.365H423.669V529.547H444.853V508.365Z" fill="black"/>
<path d="M529.586 508.365H508.403V529.547H529.586V508.365Z" fill="black"/>
<path d="M550.77 508.365H529.586V529.547H550.77V508.365Z" fill="black"/>
<path d="M571.953 508.365H550.77V529.547H571.953V508.365Z" fill="black"/>
<path d="M593.138 508.365H571.954V529.547H593.138V508.365Z" fill="black"/>
<path d="M614.32 508.365H593.137V529.547H614.32V508.365Z" fill="black"/>
<path d="M190.651 529.547H169.468V550.729H190.651V529.547Z" fill="black"/>
<path d="M211.835 529.547H190.651V550.729H211.835V529.547Z" fill="black"/>
<path d="M233.018 529.547H211.834V550.729H233.018V529.547Z" fill="black"/>
<path d="M254.202 529.547H233.018V550.729H254.202V529.547Z" fill="black"/>
<path d="M275.385 529.547H254.201V550.729H275.385V529.547Z" fill="black"/>
<path d="M317.752 529.547H296.568V550.729H317.752V529.547Z" fill="black"/>
<path d="M338.935 529.547H317.752V550.729H338.935V529.547Z" fill="black"/>
<path d="M360.119 529.547H338.935V550.729H360.119V529.547Z" fill="black"/>
<path d="M381.302 529.547H360.119V550.729H381.302V529.547Z" fill="black"/>
<path d="M444.853 529.547H423.669V550.729H444.853V529.547Z" fill="black"/>
<path d="M466.036 529.547H444.853V550.729H466.036V529.547Z" fill="black"/>
<path d="M508.403 529.547H487.22V550.729H508.403V529.547Z" fill="black"/>
<path d="M529.586 529.547H508.403V550.729H529.586V529.547Z" fill="black"/>
<path d="M614.32 529.547H593.137V550.729H614.32V529.547Z" fill="black"/>
<path d="M656.687 529.547H635.503V550.729H656.687V529.547Z" fill="black"/>
<path d="M677.87 529.547H656.687V550.729H677.87V529.547Z" fill="black"/>
<path d="M190.651 550.727H169.468V571.909H190.651V550.727Z" fill="black"/>
<path d="M211.835 550.727H190.651V571.909H211.835V550.727Z" fill="black"/>
<path d="M317.752 550.727H296.568V571.909H317.752V550.727Z" fill="black"/>
<path d="M338.935 550.727H317.752V571.909H338.935V550.727Z" fill="black"/>
<path d="M402.486 550.727H381.302V571.909H402.486V550.727Z" fill="black"/>
<path d="M423.67 550.727H402.486V571.909H423.67V550.727Z" fill="black"/>
<path d="M444.853 550.727H423.669V571.909H444.853V550.727Z" fill="black"/>
<path d="M466.036 550.727H444.853V571.909H466.036V550.727Z" fill="black"/>
<path d="M487.22 550.727H466.036V571.909H487.22V550.727Z" fill="black"/>
<path d="M508.403 550.727H487.22V571.909H508.403V550.727Z" fill="black"/>
<path d="M529.586 550.727H508.403V571.909H529.586V550.727Z" fill="black"/>
<path d="M571.953 550.727H550.77V571.909H571.953V550.727Z" fill="black"/>
<path d="M614.32 550.727H593.137V571.909H614.32V550.727Z" fill="black"/>
<path d="M656.687 550.727H635.503V571.909H656.687V550.727Z" fill="black"/>
<path d="M190.651 571.91H169.468V593.091H190.651V571.91Z" fill="black"/>
<path d="M254.202 571.91H233.018V593.091H254.202V571.91Z" fill="black"/>
<path d="M338.935 571.91H317.752V593.091H338.935V571.91Z" fill="black"/>
<path d="M402.486 571.91H381.302V593.091H402.486V571.91Z" fill="black"/>
<path d="M508.403 571.91H487.22V593.091H508.403V571.91Z" fill="black"/>
<path d="M529.586 571.91H508.403V593.091H529.586V571.91Z" fill="black"/>
<path d="M614.32 571.91H593.137V593.091H614.32V571.91Z" fill="black"/>
<path d="M635.503 571.91H614.32V593.091H635.503V571.91Z" fill="black"/>
<path d="M656.687 571.91H635.503V593.091H656.687V571.91Z" fill="black"/>
<path d="M677.87 571.91H656.687V593.091H677.87V571.91Z" fill="black"/>
<path d="M190.651 593.091H169.468V614.273H190.651V593.091Z" fill="black"/>
<path d="M211.835 593.091H190.651V614.273H211.835V593.091Z" fill="black"/>
<path d="M275.385 593.091H254.201V614.273H275.385V593.091Z" fill="black"/>
<path d="M296.568 593.091H275.385V614.273H296.568V593.091Z" fill="black"/>
<path d="M317.752 593.091H296.568V614.273H317.752V593.091Z" fill="black"/>
<path d="M360.119 593.091H338.935V614.273H360.119V593.091Z" fill="black"/>
<path d="M402.486 593.091H381.302V614.273H402.486V593.091Z" fill="black"/>
<path d="M444.853 593.091H423.669V614.273H444.853V593.091Z" fill="black"/>
<path d="M487.22 593.091H466.036V614.273H487.22V593.091Z" fill="black"/>
<path d="M508.403 593.091H487.22V614.273H508.403V593.091Z" fill="black"/>
<path d="M529.586 593.091H508.403V614.273H529.586V593.091Z" fill="black"/>
<path d="M550.77 593.091H529.586V614.273H550.77V593.091Z" fill="black"/>
<path d="M571.953 593.091H550.77V614.273H571.953V593.091Z" fill="black"/>
<path d="M593.138 593.091H571.954V614.273H593.138V593.091Z" fill="black"/>
<path d="M614.32 593.091H593.137V614.273H614.32V593.091Z" fill="black"/>
<path d="M699.054 593.091H677.871V614.273H699.054V593.091Z" fill="black"/>
<path d="M190.651 614.273H169.468V635.455H190.651V614.273Z" fill="black"/>
<path d="M254.202 614.273H233.018V635.455H254.202V614.273Z" fill="black"/>
<path d="M275.385 614.273H254.201V635.455H275.385V614.273Z" fill="black"/>
<path d="M296.568 614.273H275.385V635.455H296.568V614.273Z" fill="black"/>
<path d="M317.752 614.273H296.568V635.455H317.752V614.273Z" fill="black"/>
<path d="M338.935 614.273H317.752V635.455H338.935V614.273Z" fill="black"/>
<path d="M360.119 614.273H338.935V635.455H360.119V614.273Z" fill="black"/>
<path d="M381.302 614.273H360.119V635.455H381.302V614.273Z" fill="black"/>
<path d="M423.67 614.273H402.486V635.455H423.67V614.273Z" fill="black"/>
<path d="M466.036 614.273H444.853V635.455H466.036V614.273Z" fill="black"/>
<path d="M487.22 614.273H466.036V635.455H487.22V614.273Z" fill="black"/>
<path d="M508.403 614.273H487.22V635.455H508.403V614.273Z" fill="black"/>
<path d="M529.586 614.273H508.403V635.455H529.586V614.273Z" fill="black"/>
<path d="M550.77 614.273H529.586V635.455H550.77V614.273Z" fill="black"/>
<path d="M593.138 614.273H571.954V635.455H593.138V614.273Z" fill="black"/>
<path d="M635.503 614.273H614.32V635.455H635.503V614.273Z" fill="black"/>
<path d="M677.87 614.273H656.687V635.455H677.87V614.273Z" fill="black"/>
<path d="M699.054 614.273H677.871V635.455H699.054V614.273Z" fill="black"/>
<path d="M233.018 635.455H211.834V656.637H233.018V635.455Z" fill="black"/>
<path d="M275.385 635.455H254.201V656.637H275.385V635.455Z" fill="black"/>
<path d="M317.752 635.455H296.568V656.637H317.752V635.455Z" fill="black"/>
<path d="M338.935 635.455H317.752V656.637H338.935V635.455Z" fill="black"/>
<path d="M402.486 635.455H381.302V656.637H402.486V635.455Z" fill="black"/>
<path d="M423.67 635.455H402.486V656.637H423.67V635.455Z" fill="black"/>
<path d="M444.853 635.455H423.669V656.637H444.853V635.455Z" fill="black"/>
<path d="M466.036 635.455H444.853V656.637H466.036V635.455Z" fill="black"/>
<path d="M508.403 635.455H487.22V656.637H508.403V635.455Z" fill="black"/>
<path d="M529.586 635.455H508.403V656.637H529.586V635.455Z" fill="black"/>
<path d="M593.138 635.455H571.954V656.637H593.138V635.455Z" fill="black"/>
<path d="M614.32 635.455H593.137V656.637H614.32V635.455Z" fill="black"/>
<path d="M656.687 635.455H635.503V656.637H656.687V635.455Z" fill="black"/>
<path d="M677.87 635.455H656.687V656.637H677.87V635.455Z" fill="black"/>
<path d="M699.054 635.455H677.871V656.637H699.054V635.455Z" fill="black"/>
<path d="M211.835 656.636H190.651V677.818H211.835V656.636Z" fill="black"/>
<path d="M233.018 656.636H211.834V677.818H233.018V656.636Z" fill="black"/>
<path d="M254.202 656.636H233.018V677.818H254.202V656.636Z" fill="black"/>
<path d="M593.138 656.636H571.954V677.818H593.138V656.636Z" fill="black"/>
<path d="M614.32 656.636H593.137V677.818H614.32V656.636Z" fill="black"/>
<path d="M635.503 656.636H614.32V677.818H635.503V656.636Z" fill="black"/>
<path d="M656.687 656.636H635.503V677.818H656.687V656.636Z" fill="black"/>
<path d="M677.87 656.636H656.687V677.818H677.87V656.636Z" fill="black"/>
<path d="M699.054 656.636H677.871V677.818H699.054V656.636Z" fill="black"/>
<path d="M190.651 677.818H169.468V699H190.651V677.818Z" fill="black"/>
<path d="M233.018 677.818H211.834V699H233.018V677.818Z" fill="black"/>
<path d="M254.202 677.818H233.018V699H254.202V677.818Z" fill="black"/>
<path d="M360.119 677.818H338.935V699H360.119V677.818Z" fill="black"/>
<path d="M381.302 677.818H360.119V699H381.302V677.818Z" fill="black"/>
<path d="M402.486 677.818H381.302V699H402.486V677.818Z" fill="black"/>
<path d="M508.403 677.818H487.22V699H508.403V677.818Z" fill="black"/>
<path d="M529.586 677.818H508.403V699H529.586V677.818Z" fill="black"/>
<path d="M593.138 677.818H571.954V699H593.138V677.818Z" fill="black"/>
<path d="M614.32 677.818H593.137V699H614.32V677.818Z" fill="black"/>
<path d="M126.042 0H22.2426H0V22.2409V126.032V148.273H22.2426H126.042H148.284V126.032V22.2409V0H126.042ZM126.042 126.032H22.2426V22.2409H126.042V126.032Z" fill="black"/>
<path d="M676.812 0H573.013H550.77V22.2409V126.032V148.273H573.013H676.812H699.054V126.032V22.2409V0H676.812ZM676.812 126.032H573.013V22.2409H676.812V126.032Z" fill="black"/>
<path d="M126.042 550.727H22.2426H0V572.968V676.759V699H22.2426H126.042H148.284V676.759V572.968V550.727H126.042ZM126.042 676.759H22.2426V572.968H126.042V676.759Z" fill="black"/>
<path d="M105.918 42.3643H42.3672V105.91H105.918V42.3643Z" fill="black"/>
<path d="M656.687 42.3643H593.137V105.91H656.687V42.3643Z" fill="black"/>
<path d="M105.918 593.091H42.3672V656.636H105.918V593.091Z" fill="black"/>
</svg>
