<svg width="30" height="30" viewBox="0 0 30 30" fill="none" xmlns="http://www.w3.org/2000/svg">
<circle cx="15" cy="15" r="15" fill="white"/>
<path d="M15 5.50732C17.0539 5.50735 18.8926 6.10533 20.2051 7.04639C21.5184 7.98805 22.2734 9.24417 22.2734 10.5806C22.2734 11.917 21.5183 13.1731 20.2051 14.1147C18.8926 15.0558 17.0539 15.6538 15 15.6538C12.9461 15.6538 11.1075 15.0558 9.79492 14.1147C8.48152 13.1731 7.72656 11.917 7.72656 10.5806C7.72658 9.24411 8.48152 7.98807 9.79492 7.04639C11.1075 6.10532 12.9461 5.50732 15 5.50732Z" stroke="black"/>
<mask id="path-3-inside-1_1270_1910" fill="white">
<ellipse cx="12.6532" cy="10.5804" rx="0.733328" ry="1.46666"/>
</mask>
<ellipse cx="12.6532" cy="10.5804" rx="0.733328" ry="1.46666" fill="black"/>
<path d="M13.3866 10.5804H12.3866C12.3866 10.8638 12.327 11.071 12.2774 11.1703C12.2527 11.2197 12.2491 11.2053 12.2929 11.1684C12.3431 11.1259 12.4676 11.0471 12.6533 11.0471V12.0471V13.0471C13.4386 13.0471 13.8804 12.4364 14.0662 12.0647C14.282 11.6332 14.3866 11.107 14.3866 10.5804H13.3866ZM12.6533 12.0471V11.0471C12.8389 11.0471 12.9634 11.1259 13.0136 11.1684C13.0574 11.2053 13.0538 11.2197 13.0291 11.1703C12.9795 11.071 12.9199 10.8638 12.9199 10.5804H11.9199H10.9199C10.9199 11.107 11.0245 11.6332 11.2403 12.0647C11.4261 12.4364 11.8679 13.0471 12.6533 13.0471V12.0471ZM11.9199 10.5804H12.9199C12.9199 10.297 12.9795 10.0899 13.0291 9.99056C13.0538 9.94119 13.0574 9.95551 13.0136 9.9925C12.9634 10.035 12.8389 10.1138 12.6533 10.1138V9.11377V8.11377C11.8679 8.11377 11.4261 8.72441 11.2403 9.09613C11.0245 9.52766 10.9199 10.0538 10.9199 10.5804H11.9199ZM12.6533 9.11377V10.1138C12.4676 10.1138 12.3431 10.035 12.2929 9.9925C12.2491 9.95551 12.2527 9.94119 12.2774 9.99056C12.327 10.0899 12.3866 10.297 12.3866 10.5804H13.3866H14.3866C14.3866 10.0538 14.282 9.52766 14.0662 9.09613C13.8804 8.72441 13.4386 8.11377 12.6533 8.11377V9.11377Z" fill="black" mask="url(#path-3-inside-1_1270_1910)"/>
<mask id="path-5-inside-2_1270_1910" fill="white">
<ellipse cx="17.3466" cy="10.5804" rx="0.733328" ry="1.46666"/>
</mask>
<ellipse cx="17.3466" cy="10.5804" rx="0.733328" ry="1.46666" fill="black"/>
<path d="M18.0799 10.5804H17.0799C17.0799 10.8638 17.0204 11.071 16.9707 11.1703C16.946 11.2197 16.9425 11.2053 16.9862 11.1684C17.0364 11.1259 17.161 11.0471 17.3466 11.0471V12.0471V13.0471C18.1319 13.0471 18.5737 12.4364 18.7596 12.0647C18.9753 11.6332 19.0799 11.107 19.0799 10.5804H18.0799ZM17.3466 12.0471V11.0471C17.5322 11.0471 17.6568 11.1259 17.707 11.1684C17.7507 11.2053 17.7472 11.2197 17.7225 11.1703C17.6728 11.071 17.6133 10.8638 17.6133 10.5804H16.6133H15.6133C15.6133 11.107 15.7179 11.6332 15.9336 12.0647C16.1195 12.4364 16.5613 13.0471 17.3466 13.0471V12.0471ZM16.6133 10.5804H17.6133C17.6133 10.297 17.6728 10.0899 17.7225 9.99056C17.7472 9.94119 17.7507 9.95551 17.707 9.9925C17.6568 10.035 17.5322 10.1138 17.3466 10.1138V9.11377V8.11377C16.5613 8.11377 16.1195 8.72441 15.9336 9.09613C15.7179 9.52766 15.6133 10.0538 15.6133 10.5804H16.6133ZM17.3466 9.11377V10.1138C17.161 10.1138 17.0364 10.035 16.9862 9.9925C16.9425 9.95551 16.946 9.94119 16.9707 9.99056C17.0204 10.0899 17.0799 10.297 17.0799 10.5804H18.0799H19.0799C19.0799 10.0538 18.9753 9.52766 18.7596 9.09613C18.5737 8.72441 18.1319 8.11377 17.3466 8.11377V9.11377Z" fill="black" mask="url(#path-5-inside-2_1270_1910)"/>
<path d="M9.12953 24.5062C9.12953 24.5995 9.0962 24.6795 9.02953 24.7462C8.96286 24.8129 8.88286 24.8462 8.78953 24.8462H8.18953C8.0962 24.8462 8.0162 24.8129 7.94953 24.7462C7.88286 24.6795 7.84953 24.5995 7.84953 24.5062V17.8862C7.84953 17.8662 7.84953 17.8529 7.84953 17.8462H6.40953C6.3162 17.8462 6.2362 17.8195 6.16953 17.7662C6.10286 17.7062 6.06953 17.6329 6.06953 17.5462C6.06953 17.4595 6.10286 17.3895 6.16953 17.3362C6.2362 17.2762 6.3162 17.2462 6.40953 17.2462H10.5695C10.6629 17.2462 10.7429 17.2762 10.8095 17.3362C10.8762 17.3895 10.9095 17.4595 10.9095 17.5462C10.9095 17.6329 10.8762 17.7062 10.8095 17.7662C10.7429 17.8195 10.6629 17.8462 10.5695 17.8462H9.12953V17.8862V24.5062ZM16.6205 21.1762C16.6205 21.9362 16.4905 22.5995 16.2305 23.1662C15.9772 23.7262 15.6339 24.1629 15.2005 24.4762C14.7672 24.7895 14.2772 24.9462 13.7305 24.9462C13.1505 24.9462 12.6239 24.7962 12.1505 24.4962C11.6772 24.1895 11.3005 23.7629 11.0205 23.2162C10.7472 22.6695 10.6105 22.0329 10.6105 21.3062C10.6105 20.7529 10.6872 20.2262 10.8405 19.7262C11.0005 19.2262 11.2205 18.7829 11.5005 18.3962C11.7805 18.0095 12.1005 17.7062 12.4605 17.4862C12.8272 17.2595 13.2139 17.1462 13.6205 17.1462C14.0405 17.1462 14.4305 17.2462 14.7905 17.4462C15.1572 17.6395 15.4772 17.9162 15.7505 18.2762C16.0239 18.6362 16.2372 19.0629 16.3905 19.5562C16.5439 20.0495 16.6205 20.5895 16.6205 21.1762ZM15.3405 21.1762C15.3405 20.5629 15.2739 20.0062 15.1405 19.5062C15.0139 19.0062 14.8239 18.6095 14.5705 18.3162C14.3172 18.0229 14.0005 17.8762 13.6205 17.8762C13.3605 17.8762 13.1239 17.9762 12.9105 18.1762C12.6972 18.3695 12.5139 18.6329 12.3605 18.9662C12.2139 19.2929 12.0972 19.6595 12.0105 20.0662C11.9305 20.4729 11.8905 20.8862 11.8905 21.3062C11.8905 21.8795 11.9639 22.3895 12.1105 22.8362C12.2572 23.2762 12.4672 23.6229 12.7405 23.8762C13.0205 24.1229 13.3505 24.2462 13.7305 24.2462C14.0639 24.2462 14.3505 24.1129 14.5905 23.8462C14.8305 23.5729 15.0139 23.2029 15.1405 22.7362C15.2739 22.2695 15.3405 21.7495 15.3405 21.1762ZM18.5554 24.5062C18.5554 24.5995 18.5221 24.6795 18.4554 24.7462C18.3887 24.8129 18.3087 24.8462 18.2154 24.8462H17.6154C17.5221 24.8462 17.4421 24.8129 17.3754 24.7462C17.3087 24.6795 17.2754 24.5995 17.2754 24.5062V17.5362C17.2754 17.4495 17.3021 17.3762 17.3554 17.3162C17.4154 17.2562 17.4887 17.2229 17.5754 17.2162C17.8087 17.1895 18.0287 17.1729 18.2354 17.1662C18.4487 17.1529 18.6521 17.1462 18.8454 17.1462C21.1121 17.1462 22.2454 18.0229 22.2454 19.7762C22.2454 20.5229 21.9587 21.0862 21.3854 21.4662C20.8187 21.8395 19.9887 22.0262 18.8954 22.0262C18.8421 22.0262 18.7854 22.0262 18.7254 22.0262C18.6721 22.0262 18.6154 22.0229 18.5554 22.0162V24.5062ZM18.5554 17.7362V21.4162C18.7021 21.4229 18.8387 21.4262 18.9654 21.4262C19.4721 21.4262 19.8687 21.3729 20.1554 21.2662C20.4487 21.1529 20.6554 20.9762 20.7754 20.7362C20.9021 20.4895 20.9654 20.1695 20.9654 19.7762C20.9654 19.2762 20.8987 18.8795 20.7654 18.5862C20.6387 18.2862 20.4221 18.0695 20.1154 17.9362C19.8154 17.8029 19.4021 17.7362 18.8754 17.7362H18.5554Z" fill="black"/>
</svg>
