<svg width="38" height="173" viewBox="0 0 38 173" fill="none" xmlns="http://www.w3.org/2000/svg">
<path d="M13.3564 155.5C16.7755 155.5 19.8067 156.47 21.9424 157.96C24.0829 159.454 25.2117 161.373 25.2119 163.32C25.2119 165.268 24.0831 167.188 21.9424 168.682C19.8067 170.172 16.7755 171.142 13.3564 171.142C9.93739 171.142 6.90626 170.172 4.77051 168.682C2.6297 167.188 1.5 165.268 1.5 163.32C1.50017 161.373 2.62986 159.454 4.77051 157.96C6.90626 156.47 9.93736 155.5 13.3564 155.5Z" stroke="white" stroke-width="3"/>
<mask id="path-2-inside-1_1294_1836" fill="white">
<ellipse cx="9.32252" cy="163.321" rx="1.26002" ry="2.45283"/>
</mask>
<ellipse cx="9.32252" cy="163.321" rx="1.26002" ry="2.45283" fill="white"/>
<path d="M10.5825 163.321H8.58253C8.58253 163.747 8.48943 164.034 8.43448 164.141C8.40761 164.193 8.4269 164.131 8.5417 164.037C8.66955 163.931 8.93923 163.773 9.32252 163.773V165.773V167.773C10.8077 167.773 11.6452 166.645 11.9925 165.969C12.3936 165.188 12.5825 164.249 12.5825 163.321H10.5825ZM9.32252 165.773V163.773C9.7058 163.773 9.97548 163.931 10.1033 164.037C10.2181 164.131 10.2374 164.193 10.2106 164.141C10.1556 164.034 10.0625 163.747 10.0625 163.321H8.0625H6.0625C6.0625 164.249 6.25147 165.188 6.65255 165.969C6.99981 166.645 7.83728 167.773 9.32252 167.773V165.773ZM8.0625 163.321H10.0625C10.0625 162.894 10.1556 162.607 10.2106 162.5C10.2374 162.448 10.2181 162.51 10.1033 162.604C9.97548 162.71 9.7058 162.868 9.32252 162.868V160.868V158.868C7.83728 158.868 6.99981 159.996 6.65255 160.672C6.25147 161.453 6.0625 162.392 6.0625 163.321H8.0625ZM9.32252 160.868V162.868C8.93923 162.868 8.66955 162.71 8.5417 162.604C8.4269 162.51 8.40761 162.448 8.43448 162.5C8.48943 162.607 8.58253 162.894 8.58253 163.321H10.5825H12.5825C12.5825 162.392 12.3936 161.453 11.9925 160.672C11.6452 159.996 10.8077 158.868 9.32252 158.868V160.868Z" fill="white" mask="url(#path-2-inside-1_1294_1836)"/>
<mask id="path-4-inside-2_1294_1836" fill="white">
<ellipse cx="17.3889" cy="163.321" rx="1.26002" ry="2.45283"/>
</mask>
<ellipse cx="17.3889" cy="163.321" rx="1.26002" ry="2.45283" fill="white"/>
<path d="M18.6489 163.321H16.6489C16.6489 163.747 16.5558 164.034 16.5009 164.141C16.474 164.193 16.4933 164.131 16.6081 164.037C16.736 163.931 17.0056 163.773 17.3889 163.773V165.773V167.773C18.8742 167.773 19.7116 166.645 20.0589 165.969C20.46 165.188 20.6489 164.249 20.6489 163.321H18.6489ZM17.3889 165.773V163.773C17.7722 163.773 18.0419 163.931 18.1697 164.037C18.2845 164.131 18.3038 164.193 18.277 164.141C18.222 164.034 18.1289 163.747 18.1289 163.321H16.1289H14.1289C14.1289 164.249 14.3179 165.188 14.719 165.969C15.0662 166.645 15.9037 167.773 17.3889 167.773V165.773ZM16.1289 163.321H18.1289C18.1289 162.894 18.222 162.607 18.277 162.5C18.3038 162.448 18.2845 162.51 18.1697 162.604C18.0419 162.71 17.7722 162.868 17.3889 162.868V160.868V158.868C15.9037 158.868 15.0662 159.996 14.719 160.672C14.3179 161.453 14.1289 162.392 14.1289 163.321H16.1289ZM17.3889 160.868V162.868C17.0056 162.868 16.736 162.71 16.6081 162.604C16.4933 162.51 16.474 162.448 16.5009 162.5C16.5558 162.607 16.6489 162.894 16.6489 163.321H18.6489H20.6489C20.6489 162.392 20.46 161.453 20.0589 160.672C19.7116 159.996 18.8742 158.868 17.3889 158.868V160.868Z" fill="white" mask="url(#path-4-inside-2_1294_1836)"/>
<path d="M29 34.33C29 34.2833 29.0167 34.2467 29.05 34.22C29.0833 34.2 29.1233 34.19 29.17 34.19C29.21 34.19 29.2467 34.2 29.28 34.22C29.3133 34.2467 29.33 34.2833 29.33 34.33C29.33 34.5233 29.3833 34.6867 29.49 34.82C29.5967 34.96 29.75 35.0833 29.95 35.19C30.0367 35.2367 30.2033 35.3067 30.45 35.4C30.6967 35.5 30.9967 35.6133 31.35 35.74C31.71 35.8733 32.0933 36.0133 32.5 36.16C32.9067 36.3067 33.31 36.45 33.71 36.59C34.1167 36.7367 34.4933 36.87 34.84 36.99C35.1867 37.1167 35.4767 37.22 35.71 37.3C35.95 37.3867 36.1033 37.4433 36.17 37.47C36.25 37.5033 36.3033 37.5433 36.33 37.59C36.3633 37.6367 36.38 37.7233 36.38 37.85C36.38 38.05 36.3167 38.17 36.19 38.21C36.1033 38.2367 35.92 38.2967 35.64 38.39C35.36 38.49 35.02 38.61 34.62 38.75C34.22 38.89 33.7967 39.0367 33.35 39.19C32.9033 39.35 32.4667 39.5033 32.04 39.65C31.6133 39.8033 31.2333 39.94 30.9 40.06C30.5733 40.18 30.33 40.27 30.17 40.33C29.9367 40.4233 29.7367 40.5267 29.57 40.64C29.41 40.76 29.33 40.93 29.33 41.15C29.33 41.19 29.3133 41.2233 29.28 41.25C29.2467 41.2767 29.21 41.29 29.17 41.29C29.1233 41.29 29.0833 41.2767 29.05 41.25C29.0167 41.2233 29 41.19 29 41.15C29 41.0833 29.0033 40.9633 29.01 40.79C29.0233 40.6233 29.03 40.3667 29.03 40.02C29.03 39.7333 29.0233 39.4933 29.01 39.3C29.0033 39.1067 29 38.9733 29 38.9C29 38.8533 29.0167 38.8167 29.05 38.79C29.0833 38.77 29.1233 38.76 29.17 38.76C29.21 38.76 29.2467 38.77 29.28 38.79C29.3133 38.8167 29.33 38.8533 29.33 38.9C29.33 39.1733 29.37 39.3433 29.45 39.41C29.53 39.4767 29.69 39.4733 29.93 39.4C29.95 39.3933 29.9733 39.3867 30 39.38C30.0267 39.3733 30.08 39.3567 30.16 39.33C30.2467 39.3033 30.38 39.26 30.56 39.2C30.7467 39.14 31.01 39.0533 31.35 38.94C31.4367 38.9133 31.48 38.8533 31.48 38.76L31.48 36.25C31.48 36.19 31.45 36.15 31.39 36.13C31.25 36.0833 31.0867 36.03 30.9 35.97C30.7133 35.9167 30.5333 35.87 30.36 35.83C30.1867 35.79 30.05 35.77 29.95 35.77C29.7567 35.77 29.6033 35.8267 29.49 35.94C29.3833 36.06 29.33 36.2 29.33 36.36C29.33 36.4067 29.3133 36.44 29.28 36.46C29.2467 36.4867 29.21 36.5 29.17 36.5C29.1233 36.5 29.0833 36.4867 29.05 36.46C29.0167 36.44 29 36.4067 29 36.36C29 36.2933 29.0033 36.18 29.01 36.02C29.0233 35.86 29.03 35.6333 29.03 35.34C29.03 35.0867 29.0233 34.87 29.01 34.69C29.0033 34.5167 29 34.3967 29 34.33ZM31.84 36.42L31.84 38.63C31.84 38.6633 31.85 38.69 31.87 38.71C31.89 38.7367 31.9233 38.7433 31.97 38.73C32.2767 38.63 32.6 38.5233 32.94 38.41C33.28 38.2967 33.6033 38.1867 33.91 38.08C34.2167 37.98 34.48 37.89 34.7 37.81C34.9267 37.7367 35.0733 37.6867 35.14 37.66C35.2067 37.6333 35.2367 37.6 35.23 37.56C35.23 37.5267 35.2033 37.4967 35.15 37.47C35.1033 37.45 34.9867 37.4033 34.8 37.33C34.62 37.2633 34.4 37.1833 34.14 37.09C33.8867 37.0033 33.62 36.91 33.34 36.81C33.0667 36.71 32.8067 36.6167 32.56 36.53C32.32 36.45 32.1233 36.3833 31.97 36.33C31.8833 36.2967 31.84 36.3267 31.84 36.42ZM28.88 46.0305C28.88 45.7039 28.9433 45.4439 29.07 45.2505C29.2033 45.0572 29.3233 44.9139 29.43 44.8205C29.4833 44.7739 29.5067 44.7372 29.5 44.7105C29.5 44.6839 29.4833 44.6572 29.45 44.6305C29.41 44.6039 29.3333 44.5505 29.22 44.4705C29.1067 44.3972 29.0267 44.3439 28.98 44.3105C28.9333 44.2839 28.92 44.2305 28.94 44.1505C28.96 44.0772 29.0033 44.0439 29.07 44.0505C29.1433 44.0572 29.2967 44.0739 29.53 44.1005C29.77 44.1272 30.0367 44.1405 30.33 44.1405L35.43 44.1405C35.5967 44.1405 35.7067 44.1239 35.76 44.0905C35.82 44.0639 35.8533 44.0072 35.86 43.9205C35.8733 43.8739 35.8833 43.8105 35.89 43.7305C35.9033 43.6505 35.9133 43.5905 35.92 43.5505C35.9267 43.4639 35.98 43.4205 36.08 43.4205C36.12 43.4205 36.1567 43.4305 36.19 43.4505C36.2233 43.4772 36.24 43.5139 36.24 43.5605C36.24 43.5805 36.24 43.6439 36.24 43.7505C36.2467 43.8572 36.25 43.9805 36.25 44.1205C36.25 44.2605 36.25 44.3872 36.25 44.5005C36.2567 44.6205 36.26 44.7005 36.26 44.7405C36.26 44.8872 36.18 44.9605 36.02 44.9605L32.94 44.9605C32.9067 44.9605 32.8833 44.9739 32.87 45.0005C32.8633 45.0339 32.8833 45.0672 32.93 45.1005C33.0167 45.1805 33.12 45.3105 33.24 45.4905C33.36 45.6705 33.42 45.9205 33.42 46.2405C33.42 46.4205 33.3833 46.6105 33.31 46.8105C33.2433 47.0172 33.1267 47.2072 32.96 47.3805C32.7933 47.5539 32.5667 47.6939 32.28 47.8005C32 47.9139 31.6433 47.9705 31.21 47.9705C30.77 47.9705 30.4 47.9039 30.1 47.7705C29.8067 47.6439 29.57 47.4772 29.39 47.2705C29.21 47.0639 29.08 46.8505 29 46.6305C28.92 46.4105 28.88 46.2105 28.88 46.0305ZM29.22 45.9605C29.22 46.2005 29.28 46.4005 29.4 46.5605C29.52 46.7272 29.7233 46.8505 30.01 46.9305C30.3033 47.0172 30.7033 47.0605 31.21 47.0605C31.7167 47.0605 32.1033 47.0139 32.37 46.9205C32.6367 46.8339 32.82 46.7139 32.92 46.5605C33.0267 46.4072 33.08 46.2339 33.08 46.0405C33.08 45.8872 33.0333 45.7239 32.94 45.5505C32.8467 45.3839 32.6967 45.2405 32.49 45.1205C32.2833 45.0072 32.01 44.9505 31.67 44.9505L30.76 44.9505C30.2133 44.9505 29.82 45.0472 29.58 45.2405C29.34 45.4339 29.22 45.6739 29.22 45.9605ZM28.88 52.8249C28.88 52.4449 28.9833 52.0949 29.19 51.7749C29.3967 51.4616 29.67 51.2116 30.01 51.0249C30.3567 50.8383 30.7367 50.7449 31.15 50.7449C31.5633 50.7449 31.94 50.8383 32.28 51.0249C32.6267 51.2116 32.9033 51.4616 33.11 51.7749C33.3167 52.0949 33.42 52.4449 33.42 52.8249C33.42 53.2116 33.3167 53.5616 33.11 53.8749C32.9033 54.1949 32.6267 54.4483 32.28 54.6349C31.94 54.8216 31.5633 54.9149 31.15 54.9149C30.7367 54.9149 30.3567 54.8216 30.01 54.6349C29.67 54.4483 29.3967 54.1949 29.19 53.8749C28.9833 53.5616 28.88 53.2116 28.88 52.8249ZM29.19 52.8249C29.19 53.1983 29.37 53.4783 29.73 53.6649C30.09 53.8516 30.5633 53.9449 31.15 53.9449C31.7367 53.9449 32.21 53.8516 32.57 53.6649C32.93 53.4783 33.11 53.1983 33.11 52.8249C33.11 52.4583 32.93 52.1783 32.57 51.9849C32.21 51.7983 31.7367 51.7049 31.15 51.7049C30.5633 51.7049 30.09 51.7983 29.73 51.9849C29.37 52.1783 29.19 52.4583 29.19 52.8249ZM28.88 59.3117C28.88 58.9251 28.9967 58.6151 29.23 58.3817C29.4633 58.1484 29.8033 58.0317 30.25 58.0317L32.47 58.0317C32.6033 58.0317 32.7067 58.0184 32.78 57.9917C32.8533 57.9651 32.8967 57.9051 32.91 57.8117C32.9167 57.7584 32.9233 57.7051 32.93 57.6517C32.9367 57.5984 32.9433 57.5517 32.95 57.5117C32.97 57.4251 33.0267 57.3817 33.12 57.3817C33.16 57.3817 33.1967 57.3917 33.23 57.4117C33.2633 57.4384 33.28 57.4751 33.28 57.5217C33.28 57.5417 33.28 57.6017 33.28 57.7017C33.2867 57.8017 33.29 57.9151 33.29 58.0417C33.29 58.1751 33.29 58.2951 33.29 58.4017C33.2967 58.5151 33.3 58.5884 33.3 58.6217C33.3 58.7751 33.22 58.8517 33.06 58.8517L30.4 58.8517C30.0867 58.8517 29.8533 58.9284 29.7 59.0817C29.5533 59.2417 29.48 59.4517 29.48 59.7117C29.48 60.0317 29.5833 60.2684 29.79 60.4217C29.9967 60.5751 30.2367 60.6517 30.51 60.6517L32.47 60.6517C32.6033 60.6517 32.7067 60.6384 32.78 60.6117C32.8533 60.5851 32.8967 60.5251 32.91 60.4317C32.9167 60.3784 32.9233 60.3251 32.93 60.2717C32.9367 60.2184 32.9433 60.1717 32.95 60.1317C32.97 60.0451 33.0267 60.0017 33.12 60.0017C33.16 60.0017 33.1967 60.0117 33.23 60.0317C33.2633 60.0584 33.28 60.0951 33.28 60.1417C33.28 60.1617 33.28 60.2217 33.28 60.3217C33.2867 60.4217 33.29 60.5351 33.29 60.6617C33.29 60.7951 33.29 60.9151 33.29 61.0217C33.2967 61.1351 33.3 61.2084 33.3 61.2417C33.3 61.3951 33.22 61.4717 33.06 61.4717L29.81 61.4717C29.6567 61.4717 29.5533 61.4851 29.5 61.5117C29.4533 61.5451 29.4167 61.6051 29.39 61.6917C29.3833 61.7251 29.3767 61.7584 29.37 61.7917C29.3633 61.8317 29.3533 61.8684 29.34 61.9017C29.32 61.9884 29.2667 62.0317 29.18 62.0317C29.08 62.0317 29.0233 61.9851 29.01 61.8917C29.01 61.8651 29.01 61.7817 29.01 61.6417C29.01 61.5017 29.0067 61.3584 29 61.2117C29 61.0651 29 60.9651 29 60.9117C29 60.7651 29.07 60.6917 29.21 60.6917C29.2433 60.6851 29.2933 60.6784 29.36 60.6717C29.4333 60.6717 29.49 60.6717 29.53 60.6717C29.6233 60.6584 29.63 60.6184 29.55 60.5517C29.49 60.5051 29.4067 60.4284 29.3 60.3217C29.1933 60.2217 29.0967 60.0884 29.01 59.9217C28.9233 59.7617 28.88 59.5584 28.88 59.3117ZM28.88 66.1984C28.88 66.0518 28.9067 65.9018 28.96 65.7484C29.0133 65.6018 29.1 65.4784 29.22 65.3784C29.3467 65.2784 29.52 65.2284 29.74 65.2284L32.84 65.2284C32.8933 65.2284 32.92 65.2018 32.92 65.1484L32.92 64.6184C32.92 64.5251 32.9667 64.4784 33.06 64.4784L33.12 64.4784C33.1933 64.4784 33.24 64.5251 33.26 64.6184C33.3533 64.9318 33.53 65.1618 33.79 65.3084C34.0567 65.4618 34.4033 65.5618 34.83 65.6084C34.9233 65.6084 34.97 65.6551 34.97 65.7484L34.97 65.8984C34.97 65.9984 34.9233 66.0484 34.83 66.0484L33.38 66.0484C33.3267 66.0484 33.3 66.0751 33.3 66.1284L33.3 67.1284C33.3 67.1684 33.2833 67.2018 33.25 67.2284C33.2233 67.2551 33.1933 67.2684 33.16 67.2684L33.06 67.2684C32.9667 67.2684 32.92 67.2218 32.92 67.1284L32.92 66.1284C32.92 66.0751 32.8933 66.0484 32.84 66.0484L30.04 66.0484C29.68 66.0484 29.5 66.2218 29.5 66.5684C29.5 66.7284 29.5533 66.8651 29.66 66.9784C29.7733 67.0918 29.8933 67.1818 30.02 67.2484C30.0733 67.2818 30.1 67.3184 30.1 67.3584C30.1 67.3984 30.0867 67.4418 30.06 67.4884C30.0133 67.5684 29.94 67.5851 29.84 67.5384C29.6933 67.4784 29.5467 67.3918 29.4 67.2784C29.2533 67.1718 29.13 67.0318 29.03 66.8584C28.93 66.6851 28.88 66.4651 28.88 66.1984Z" fill="#A4A4A4"/>
<path d="M12.37 45.662V43.484H9.58C9.568 43.844 9.556 44.21 9.544 44.582C9.532 44.942 9.508 45.302 9.472 45.662H12.37ZM12.37 42.728V40.64H9.598V42.728H12.37ZM11.308 37.58C10.852 38.024 10.366 38.444 9.85 38.84C9.346 39.236 8.818 39.608 8.266 39.956H12.802C13.042 39.572 13.27 39.182 13.486 38.786C13.702 38.39 13.906 37.988 14.098 37.58H11.308ZM19.282 47.894C19.282 48.326 19.258 48.752 19.21 49.172C19.174 49.58 19.078 49.946 18.922 50.27C18.766 50.606 18.526 50.87 18.202 51.062C17.89 51.254 17.458 51.35 16.906 51.35C16.534 51.35 16.156 51.254 15.772 51.062C15.388 50.882 15.022 50.654 14.674 50.378C14.326 50.114 14.026 49.862 13.774 49.622C13.702 49.574 13.666 49.52 13.666 49.46C13.666 49.424 13.696 49.406 13.756 49.406C13.792 49.406 13.822 49.412 13.846 49.424C13.882 49.436 13.912 49.448 13.936 49.46C14.68 49.748 15.454 49.892 16.258 49.892C16.666 49.892 16.954 49.784 17.122 49.568C17.302 49.352 17.41 49.088 17.446 48.776C17.494 48.452 17.518 48.134 17.518 47.822V40.64H14.062V42.728H15.286C15.31 42.536 15.394 42.362 15.538 42.206C15.682 42.05 15.856 41.972 16.06 41.972C16.264 41.972 16.438 42.05 16.582 42.206C16.738 42.35 16.816 42.524 16.816 42.728C16.816 42.956 16.744 43.142 16.6 43.286C16.456 43.418 16.276 43.484 16.06 43.484H14.062V45.662H15.304C15.316 45.458 15.394 45.29 15.538 45.158C15.694 45.014 15.868 44.942 16.06 44.942C16.264 44.942 16.444 45.02 16.6 45.176C16.756 45.32 16.834 45.494 16.834 45.698C16.834 45.986 16.732 46.178 16.528 46.274C16.336 46.358 16.12 46.4 15.88 46.4H9.382C9.25 47.396 8.926 48.29 8.41 49.082C7.894 49.862 7.21 50.522 6.358 51.062C6.31 51.098 6.256 51.116 6.196 51.116C6.1 51.116 6.052 51.074 6.052 50.99C6.052 50.954 6.058 50.918 6.07 50.882C6.094 50.858 6.112 50.828 6.124 50.792C6.604 50.072 6.97 49.376 7.222 48.704C7.474 48.02 7.648 47.312 7.744 46.58C7.852 45.848 7.906 45.062 7.906 44.222C7.906 43.55 7.894 42.878 7.87 42.206C7.846 41.534 7.834 40.862 7.834 40.19C7.702 40.262 7.504 40.364 7.24 40.496C6.976 40.628 6.712 40.754 6.448 40.874C6.196 40.982 5.998 41.036 5.854 41.036C5.782 41.036 5.746 41.012 5.746 40.964C5.746 40.904 5.77 40.85 5.818 40.802C5.878 40.742 5.926 40.7 5.962 40.676C6.898 39.824 7.774 38.924 8.59 37.976C9.418 37.028 10.132 36.002 10.732 34.898L12.982 35.618C12.862 35.846 12.712 36.062 12.532 36.266C12.364 36.458 12.196 36.656 12.028 36.86H16.564C16.636 36.86 16.714 36.872 16.798 36.896C16.894 36.92 16.942 36.98 16.942 37.076C16.942 37.124 16.918 37.184 16.87 37.256C16.666 37.568 16.372 37.898 15.988 38.246C15.604 38.582 15.202 38.906 14.782 39.218C14.374 39.518 14.002 39.764 13.666 39.956H19.282V47.894ZM16.438 66.746H10.966V68.114H14.152C14.176 67.958 14.248 67.826 14.368 67.718C14.5 67.61 14.644 67.556 14.8 67.556C14.968 67.556 15.118 67.61 15.25 67.718C15.382 67.826 15.448 67.97 15.448 68.15C15.448 68.378 15.376 68.54 15.232 68.636C15.1 68.732 14.932 68.78 14.728 68.78H10.966V70.166H15.394C15.778 70.166 16.048 70.052 16.204 69.824C16.36 69.584 16.438 69.29 16.438 68.942V66.746ZM9.472 72.092C9.472 72.164 9.448 72.248 9.4 72.344C9.28 72.608 9.088 72.908 8.824 73.244C8.572 73.58 8.278 73.91 7.942 74.234C7.618 74.57 7.288 74.864 6.952 75.116C6.616 75.368 6.31 75.548 6.034 75.656C5.998 75.692 5.95 75.71 5.89 75.71C5.782 75.71 5.728 75.656 5.728 75.548C5.728 75.524 5.758 75.464 5.818 75.368C5.878 75.272 5.938 75.17 5.998 75.062C6.07 74.966 6.118 74.9 6.142 74.864C6.31 74.552 6.484 74.198 6.664 73.802C6.844 73.406 7.006 73.004 7.15 72.596C7.294 72.176 7.396 71.798 7.456 71.462L9.184 71.786C9.376 71.834 9.472 71.936 9.472 72.092ZM12.406 74.144C12.406 74.228 12.4 74.372 12.388 74.576C12.388 74.78 12.358 74.966 12.298 75.134C12.25 75.302 12.154 75.386 12.01 75.386C11.926 75.386 11.854 75.35 11.794 75.278C11.746 75.206 11.71 75.134 11.686 75.062C11.482 74.534 11.284 74.006 11.092 73.478C10.9 72.938 10.702 72.41 10.498 71.894C10.75 71.858 11.008 71.804 11.272 71.732C11.548 71.66 11.812 71.624 12.064 71.624C12.22 71.624 12.316 71.708 12.352 71.876C12.388 72.056 12.406 72.29 12.406 72.578C12.418 72.854 12.418 73.136 12.406 73.424C12.406 73.7 12.406 73.94 12.406 74.144ZM15.916 74.864C15.916 74.972 15.898 75.11 15.862 75.278C15.838 75.446 15.748 75.53 15.592 75.53C15.508 75.53 15.436 75.488 15.376 75.404C15.316 75.32 15.268 75.242 15.232 75.17C14.98 74.606 14.716 74.054 14.44 73.514C14.176 72.962 13.912 72.41 13.648 71.858C13.876 71.81 14.146 71.75 14.458 71.678C14.782 71.594 15.052 71.552 15.268 71.552C15.412 71.552 15.514 71.636 15.574 71.804C15.61 71.912 15.634 72.026 15.646 72.146C15.658 72.266 15.67 72.386 15.682 72.506C15.742 72.89 15.796 73.28 15.844 73.676C15.892 74.072 15.916 74.468 15.916 74.864ZM20.686 75.314C20.686 75.374 20.668 75.428 20.632 75.476C20.596 75.536 20.542 75.566 20.47 75.566C20.422 75.566 20.374 75.554 20.326 75.53C20.278 75.506 20.23 75.482 20.182 75.458C19.81 75.206 19.414 74.876 18.994 74.468C18.574 74.072 18.172 73.652 17.788 73.208C17.416 72.752 17.098 72.344 16.834 71.984C16.894 71.96 17.008 71.912 17.176 71.84C17.356 71.756 17.554 71.672 17.77 71.588C17.986 71.504 18.178 71.432 18.346 71.372C18.514 71.312 18.616 71.282 18.652 71.282C18.724 71.282 18.784 71.306 18.832 71.354C18.88 71.39 18.916 71.438 18.94 71.498C19.072 71.726 19.186 71.966 19.282 72.218C19.378 72.47 19.48 72.716 19.588 72.956C19.756 73.292 19.924 73.634 20.092 73.982C20.272 74.318 20.44 74.66 20.596 75.008C20.656 75.128 20.686 75.23 20.686 75.314ZM21.532 63.65C21.532 63.902 21.436 64.118 21.244 64.298C21.064 64.466 20.848 64.55 20.596 64.55H14.728C14.392 64.826 14.044 65.096 13.684 65.36C13.336 65.612 12.97 65.858 12.586 66.098H18.112V68.096C18.124 69.056 17.944 69.752 17.572 70.184C17.2 70.604 16.516 70.814 15.52 70.814H9.436V68.06C9.028 68.288 8.56 68.522 8.032 68.762C7.504 69.002 6.97 69.218 6.43 69.41C5.89 69.59 5.392 69.722 4.936 69.806C4.912 69.818 4.864 69.824 4.792 69.824C4.744 69.824 4.684 69.812 4.612 69.788C4.54 69.764 4.504 69.716 4.504 69.644C4.504 69.56 4.558 69.488 4.666 69.428C4.774 69.356 4.888 69.296 5.008 69.248C5.14 69.188 5.236 69.146 5.296 69.122C6.016 68.786 6.7 68.402 7.348 67.97C8.008 67.526 8.692 67.13 9.4 66.782L9.436 66.764V66.098H10.426C10.774 65.858 11.116 65.606 11.452 65.342C11.8 65.078 12.142 64.814 12.478 64.55H4.972V63.776H11.038V61.94H7.87V61.166H11.038V59.186H12.784V61.166H13.846C13.846 61.154 13.84 61.142 13.828 61.13C13.828 61.118 13.828 61.106 13.828 61.094C13.828 60.854 13.912 60.656 14.08 60.5C14.248 60.332 14.446 60.248 14.674 60.248C14.914 60.248 15.112 60.332 15.268 60.5C15.436 60.656 15.52 60.854 15.52 61.094C15.52 61.274 15.418 61.46 15.214 61.652C15.022 61.844 14.836 61.94 14.656 61.94H12.784V63.776H13.288C13.732 63.368 14.188 62.918 14.656 62.426C15.136 61.922 15.586 61.4 16.006 60.86C16.426 60.308 16.774 59.768 17.05 59.24L18.922 60.392C18.454 61.028 17.932 61.628 17.356 62.192C16.792 62.744 16.21 63.272 15.61 63.776H19.75C19.75 63.5 19.834 63.278 20.002 63.11C20.182 62.93 20.404 62.84 20.668 62.84C20.908 62.84 21.112 62.918 21.28 63.074C21.448 63.218 21.532 63.41 21.532 63.65ZM19.282 91.07C19.282 92.306 18.994 93.38 18.418 94.292C17.854 95.192 17.05 95.96 16.006 96.596C15.598 96.848 15.118 97.088 14.566 97.316C14.014 97.532 13.492 97.64 13 97.64C12.952 97.64 12.898 97.628 12.838 97.604C12.79 97.568 12.766 97.52 12.766 97.46C12.766 97.376 12.808 97.316 12.892 97.28C12.988 97.244 13.06 97.214 13.108 97.19C13.48 97.022 13.84 96.842 14.188 96.65C14.536 96.446 14.86 96.212 15.16 95.948C15.868 95.348 16.414 94.616 16.798 93.752C17.182 92.888 17.374 91.994 17.374 91.07C17.374 90.242 17.194 89.504 16.834 88.856C16.474 88.208 15.976 87.704 15.34 87.344C14.704 86.972 13.966 86.786 13.126 86.786C12.454 86.786 11.812 86.936 11.2 87.236C10.6 87.524 10.066 87.92 9.598 88.424C9.13 88.928 8.758 89.492 8.482 90.116C8.218 90.74 8.086 91.382 8.086 92.042C8.086 92.162 8.092 92.336 8.104 92.564C8.128 92.78 8.164 93.008 8.212 93.248C8.272 93.476 8.35 93.674 8.446 93.842C8.554 93.998 8.698 94.076 8.878 94.076C9.106 94.076 9.358 93.938 9.634 93.662C9.91 93.386 10.186 93.038 10.462 92.618C10.75 92.186 11.02 91.742 11.272 91.286C11.524 90.818 11.746 90.386 11.938 89.99C12.13 89.594 12.268 89.294 12.352 89.09L14.026 90.17C13.858 90.494 13.624 90.872 13.324 91.304C13.036 91.736 12.7 92.186 12.316 92.654C11.944 93.11 11.542 93.536 11.11 93.932C10.69 94.316 10.264 94.634 9.832 94.886C9.412 95.126 9.004 95.246 8.608 95.246C8.248 95.246 7.936 95.144 7.672 94.94C7.408 94.736 7.192 94.478 7.024 94.166C6.856 93.842 6.73 93.506 6.646 93.158C6.574 92.81 6.538 92.486 6.538 92.186C6.538 91.262 6.736 90.422 7.132 89.666C7.54 88.898 8.08 88.238 8.752 87.686C9.424 87.122 10.18 86.69 11.02 86.39C11.86 86.09 12.712 85.94 13.576 85.94C14.632 85.94 15.592 86.138 16.456 86.534C17.32 86.918 18.004 87.488 18.508 88.244C19.024 89 19.282 89.942 19.282 91.07ZM8.356 115.286V112.856H7.024V115.286H8.356ZM8.356 112.244V109.796H7.024V112.244H8.356ZM11.38 109.796H9.814V112.244H9.994C10.018 112.1 10.078 111.962 10.174 111.83C10.27 111.698 10.402 111.632 10.57 111.632C10.738 111.632 10.876 111.698 10.984 111.83C11.092 111.95 11.146 112.094 11.146 112.262C11.146 112.502 11.068 112.664 10.912 112.748C10.756 112.82 10.576 112.856 10.372 112.856C10.168 112.856 9.982 112.856 9.814 112.856V115.286H10.066C10.39 115.286 10.648 115.196 10.84 115.016C11.032 114.824 11.17 114.596 11.254 114.332C11.338 114.056 11.38 113.786 11.38 113.522V109.796ZM8.716 116.636C8.584 117.164 8.386 117.74 8.122 118.364C7.87 118.988 7.558 119.606 7.186 120.218C6.826 120.83 6.43 121.388 5.998 121.892C5.566 122.384 5.104 122.768 4.612 123.044C4.564 123.068 4.51 123.092 4.45 123.116C4.402 123.152 4.348 123.17 4.288 123.17C4.24 123.17 4.216 123.146 4.216 123.098C4.216 123.038 4.228 122.984 4.252 122.936C4.288 122.9 4.318 122.864 4.342 122.828C4.534 122.564 4.72 122.3 4.9 122.036C5.08 121.784 5.248 121.52 5.404 121.244C5.788 120.5 6.13 119.672 6.43 118.76C6.73 117.848 6.934 116.978 7.042 116.15L8.716 116.636ZM14.764 120.65C14.764 120.698 14.746 120.752 14.71 120.812C14.674 120.872 14.62 120.902 14.548 120.902C14.488 120.902 14.428 120.86 14.368 120.776C14.248 120.632 14.134 120.482 14.026 120.326C13.93 120.158 13.822 119.996 13.702 119.84C13.294 120.008 12.88 120.176 12.46 120.344C12.052 120.5 11.632 120.638 11.2 120.758L10.714 119.912C10.858 119.78 10.996 119.546 11.128 119.21C11.272 118.874 11.41 118.502 11.542 118.094C11.674 117.674 11.788 117.278 11.884 116.906C11.992 116.522 12.07 116.222 12.118 116.006C12.322 116.09 12.526 116.168 12.73 116.24C12.946 116.312 13.15 116.396 13.342 116.492C13.39 116.516 13.426 116.54 13.45 116.564C13.474 116.588 13.486 116.63 13.486 116.69C13.486 116.714 13.432 116.822 13.324 117.014C13.228 117.206 13.102 117.44 12.946 117.716C12.802 117.98 12.646 118.25 12.478 118.526C12.322 118.802 12.178 119.048 12.046 119.264C11.926 119.468 11.842 119.6 11.794 119.66C12.07 119.636 12.34 119.6 12.604 119.552C12.88 119.492 13.15 119.438 13.414 119.39C13.354 119.282 13.288 119.18 13.216 119.084C13.144 118.976 13.072 118.874 13 118.778C13.18 118.706 13.354 118.634 13.522 118.562C13.702 118.478 13.876 118.394 14.044 118.31C14.128 118.478 14.224 118.712 14.332 119.012C14.452 119.312 14.554 119.612 14.638 119.912C14.722 120.212 14.764 120.458 14.764 120.65ZM21.64 120.848C21.64 121.064 21.556 121.268 21.388 121.46C21.22 121.64 21.01 121.802 20.758 121.946C20.518 122.078 20.272 122.192 20.02 122.288C19.768 122.384 19.558 122.462 19.39 122.522C18.478 122.798 17.5 123.002 16.456 123.134C15.412 123.266 14.41 123.332 13.45 123.332C13.102 123.332 12.682 123.302 12.19 123.242C11.698 123.182 11.212 123.074 10.732 122.918C10.252 122.762 9.85 122.534 9.526 122.234C9.214 121.934 9.058 121.55 9.058 121.082C9.058 120.23 9.064 119.372 9.076 118.508C9.1 117.644 9.118 116.786 9.13 115.934H5.512V109.112H7.726C7.894 108.728 8.05 108.338 8.194 107.942C8.338 107.534 8.47 107.126 8.59 106.718C8.83 106.766 9.07 106.814 9.31 106.862C9.562 106.91 9.808 106.958 10.048 107.006C10.144 107.018 10.24 107.036 10.336 107.06C10.444 107.072 10.546 107.09 10.642 107.114C10.762 107.138 10.822 107.198 10.822 107.294C10.822 107.402 10.72 107.546 10.516 107.726C10.312 107.906 10.066 108.092 9.778 108.284C9.502 108.476 9.232 108.65 8.968 108.806C8.716 108.95 8.536 109.052 8.428 109.112H12.982V113.27C12.982 114.002 12.784 114.608 12.388 115.088C11.992 115.556 11.428 115.832 10.696 115.916C10.696 116.744 10.684 117.572 10.66 118.4C10.648 119.228 10.642 120.056 10.642 120.884C10.642 121.196 10.768 121.442 11.02 121.622C11.284 121.79 11.602 121.91 11.974 121.982C12.358 122.054 12.73 122.096 13.09 122.108C13.462 122.132 13.756 122.144 13.972 122.144C15.016 122.144 16.066 122.108 17.122 122.036C18.19 121.964 19.234 121.814 20.254 121.586C19.978 121.406 19.84 121.16 19.84 120.848C19.84 120.608 19.924 120.392 20.092 120.2C20.272 120.008 20.488 119.912 20.74 119.912C20.992 119.912 21.202 120.008 21.37 120.2C21.55 120.392 21.64 120.608 21.64 120.848ZM21.496 117.878C21.496 118.07 21.424 118.238 21.28 118.382C21.136 118.526 20.962 118.598 20.758 118.598C20.698 118.598 20.62 118.592 20.524 118.58C20.44 118.556 20.374 118.526 20.326 118.49C19.942 118.274 19.582 117.98 19.246 117.608C18.91 117.224 18.604 116.816 18.328 116.384C18.064 115.952 17.83 115.544 17.626 115.16V120.218H16.114V115.412C15.838 115.892 15.466 116.384 14.998 116.888C14.542 117.392 14.074 117.788 13.594 118.076C13.522 118.124 13.456 118.148 13.396 118.148C13.312 118.148 13.27 118.118 13.27 118.058C13.27 118.022 13.282 117.992 13.306 117.968C13.33 117.932 13.348 117.902 13.36 117.878C13.66 117.47 13.966 117.002 14.278 116.474C14.59 115.934 14.878 115.388 15.142 114.836C15.418 114.284 15.628 113.768 15.772 113.288H13.522V112.622H16.114V110.534H13.828V109.904H16.114V107.42H17.626V109.904H18.886C18.874 109.868 18.868 109.82 18.868 109.76C18.868 109.532 18.946 109.334 19.102 109.166C19.27 108.986 19.468 108.896 19.696 108.896C19.936 108.896 20.134 108.986 20.29 109.166C20.458 109.334 20.542 109.532 20.542 109.76C20.542 110.012 20.452 110.204 20.272 110.336C20.092 110.468 19.882 110.534 19.642 110.534H17.626V112.622H19.552C19.552 112.37 19.624 112.148 19.768 111.956C19.924 111.764 20.134 111.668 20.398 111.668C20.638 111.668 20.836 111.746 20.992 111.902C21.148 112.046 21.226 112.238 21.226 112.478C21.226 112.778 21.118 112.988 20.902 113.108C20.686 113.228 20.452 113.288 20.2 113.288H17.626V114.278L18.652 113.918C18.772 114.506 18.964 115.142 19.228 115.826C19.492 116.498 19.774 117.098 20.074 117.626C20.122 117.482 20.206 117.356 20.326 117.248C20.458 117.14 20.602 117.086 20.758 117.086C20.962 117.086 21.136 117.17 21.28 117.338C21.424 117.494 21.496 117.674 21.496 117.878ZM19.354 135.578C19.354 136.658 19.324 137.744 19.264 138.836C19.216 139.916 19.126 140.996 18.994 142.076C18.946 142.496 18.868 142.97 18.76 143.498C18.664 144.014 18.514 144.518 18.31 145.01C18.106 145.49 17.824 145.886 17.464 146.198C17.104 146.51 16.648 146.666 16.096 146.666C15.724 146.666 15.334 146.54 14.926 146.288C14.518 146.036 14.134 145.736 13.774 145.388C13.426 145.04 13.144 144.722 12.928 144.434C12.904 144.41 12.892 144.386 12.892 144.362C12.892 144.314 12.916 144.29 12.964 144.29C13.012 144.29 13.072 144.314 13.144 144.362C13.504 144.554 13.888 144.734 14.296 144.902C14.716 145.058 15.136 145.136 15.556 145.136C15.94 145.136 16.234 145.01 16.438 144.758C16.654 144.494 16.816 144.2 16.924 143.876C17.02 143.588 17.104 143.198 17.176 142.706C17.248 142.214 17.308 141.674 17.356 141.086C17.404 140.486 17.44 139.886 17.464 139.286C17.488 138.674 17.506 138.11 17.518 137.594C17.53 137.066 17.536 136.634 17.536 136.298H13.414C13.198 137.894 12.808 139.358 12.244 140.69C11.692 142.01 10.828 143.234 9.652 144.362C9.316 144.686 8.902 145.028 8.41 145.388C7.918 145.736 7.408 146.054 6.88 146.342C6.364 146.63 5.878 146.852 5.422 147.008C5.374 147.02 5.32 147.032 5.26 147.044C5.2 147.068 5.14 147.08 5.08 147.08C5.044 147.08 5.002 147.068 4.954 147.044C4.906 147.032 4.882 147.002 4.882 146.954C4.882 146.87 4.936 146.792 5.044 146.72C5.152 146.66 5.23 146.612 5.278 146.576C5.938 146.18 6.502 145.79 6.97 145.406C7.45 145.022 7.936 144.536 8.428 143.948C9.388 142.832 10.102 141.638 10.57 140.366C11.05 139.094 11.386 137.738 11.578 136.298H5.998V135.578H11.65C11.71 134.87 11.764 134.168 11.812 133.472C11.86 132.764 11.89 132.062 11.902 131.366L13.882 131.42C13.87 132.116 13.828 132.812 13.756 133.508C13.684 134.204 13.606 134.894 13.522 135.578H19.354Z" fill="white"/>
<rect x="21" width="30" height="0.999999" transform="rotate(90 21 0)" fill="#A4A4A4"/>
</svg>
