<svg width="38" height="151" viewBox="0 0 38 151" fill="none" xmlns="http://www.w3.org/2000/svg">
<path d="M13 133.5C16.312 133.5 19.2482 134.465 21.3184 135.949C23.3909 137.435 24.4998 139.354 24.5 141.32C24.5 143.287 23.3911 145.206 21.3184 146.692C19.2482 148.177 16.312 149.142 13 149.142C9.68798 149.142 6.75179 148.177 4.68164 146.692C2.60895 145.206 1.5 143.287 1.5 141.32C1.50017 139.354 2.60913 137.435 4.68164 135.949C6.75179 134.465 9.68798 133.5 13 133.5Z" stroke="white" stroke-width="3"/>
<mask id="path-2-inside-1_1296_1839" fill="white">
<ellipse cx="9.07407" cy="141.321" rx="1.22641" ry="2.45283"/>
</mask>
<ellipse cx="9.07407" cy="141.321" rx="1.22641" ry="2.45283" fill="white"/>
<path d="M10.3005 141.321H8.30049C8.30049 141.755 8.20824 142.049 8.15242 142.16C8.12479 142.216 8.14358 142.152 8.25976 142.054C8.38891 141.944 8.66969 141.773 9.07407 141.773V143.773V145.773C10.5784 145.773 11.4019 144.606 11.7301 143.949C12.1182 143.173 12.3005 142.241 12.3005 141.321H10.3005ZM9.07407 143.773V141.773C9.47845 141.773 9.75923 141.944 9.88838 142.054C10.0046 142.152 10.0233 142.216 9.99572 142.16C9.9399 142.049 9.84766 141.755 9.84766 141.321H7.84766H5.84766C5.84766 142.241 6.02995 143.173 6.41801 143.949C6.74625 144.606 7.56975 145.773 9.07407 145.773V143.773ZM7.84766 141.321H9.84766C9.84766 140.886 9.9399 140.592 9.99572 140.481C10.0233 140.425 10.0046 140.489 9.88838 140.587C9.75923 140.697 9.47845 140.868 9.07407 140.868V138.868V136.868C7.56975 136.868 6.74625 138.035 6.41801 138.692C6.02995 139.468 5.84766 140.4 5.84766 141.321H7.84766ZM9.07407 138.868V140.868C8.66969 140.868 8.38891 140.697 8.25976 140.587C8.14358 140.489 8.12479 140.425 8.15242 140.481C8.20824 140.592 8.30049 140.886 8.30049 141.321H10.3005H12.3005C12.3005 140.4 12.1182 139.468 11.7301 138.692C11.4019 138.035 10.5784 136.868 9.07407 136.868V138.868Z" fill="white" mask="url(#path-2-inside-1_1296_1839)"/>
<mask id="path-4-inside-2_1296_1839" fill="white">
<ellipse cx="16.9256" cy="141.321" rx="1.22641" ry="2.45283"/>
</mask>
<ellipse cx="16.9256" cy="141.321" rx="1.22641" ry="2.45283" fill="white"/>
<path d="M18.152 141.321H16.152C16.152 141.755 16.0598 142.049 16.004 142.16C15.9764 142.216 15.9951 142.152 16.1113 142.054C16.2405 141.944 16.5213 141.773 16.9256 141.773V143.773V145.773C18.43 145.773 19.2535 144.606 19.5817 143.949C19.9698 143.173 20.152 142.241 20.152 141.321H18.152ZM16.9256 143.773V141.773C17.33 141.773 17.6108 141.944 17.7399 142.054C17.8561 142.152 17.8749 142.216 17.8473 142.16C17.7915 142.049 17.6992 141.755 17.6992 141.321H15.6992H13.6992C13.6992 142.241 13.8815 143.173 14.2696 143.949C14.5978 144.606 15.4213 145.773 16.9256 145.773V143.773ZM15.6992 141.321H17.6992C17.6992 140.886 17.7915 140.592 17.8473 140.481C17.8749 140.425 17.8561 140.489 17.7399 140.587C17.6108 140.697 17.33 140.868 16.9256 140.868V138.868V136.868C15.4213 136.868 14.5978 138.035 14.2696 138.692C13.8815 139.468 13.6992 140.4 13.6992 141.321H15.6992ZM16.9256 138.868V140.868C16.5213 140.868 16.2405 140.697 16.1113 140.587C15.9951 140.489 15.9764 140.425 16.004 140.481C16.0598 140.592 16.152 140.886 16.152 141.321H18.152H20.152C20.152 140.4 19.9698 139.468 19.5817 138.692C19.2535 138.035 18.43 136.868 16.9256 136.868V138.868Z" fill="white" mask="url(#path-4-inside-2_1296_1839)"/>
<path d="M30.12 41.02C30.12 41.0467 30.1 41.06 30.06 41.06C30.02 41.06 30 41.0467 30 41.02C30 40.8933 30.0067 40.6967 30.02 40.43C30.0333 40.1633 30.04 39.9667 30.04 39.84C30.04 39.6867 30.0333 39.4967 30.02 39.27C30.0067 39.0567 30 38.89 30 38.77C30 38.7433 30.02 38.73 30.06 38.73C30.1 38.73 30.12 38.7433 30.12 38.77C30.12 39.01 30.14 39.18 30.18 39.28C30.2267 39.3867 30.3067 39.44 30.42 39.44C30.52 39.44 30.67 39.3933 30.87 39.3L32.67 38.44L32.67 36.05L31.3 35.46C31.1 35.3733 30.9167 35.33 30.75 35.33C30.33 35.33 30.12 35.6533 30.12 36.3C30.12 36.3333 30.1 36.35 30.06 36.35C30.02 36.35 30 36.3333 30 36.3C30 36.18 30.0067 36.0067 30.02 35.78C30.0333 35.5267 30.04 35.3067 30.04 35.12C30.04 34.9533 30.0333 34.75 30.02 34.51C30.0067 34.31 30 34.14 30 34C30 33.9667 30.02 33.95 30.06 33.95C30.1 33.95 30.12 33.9667 30.12 34C30.12 34.1867 30.1533 34.3433 30.22 34.47C30.2933 34.6033 30.42 34.73 30.6 34.85C30.78 34.97 31.0433 35.1033 31.39 35.25L36.33 37.36C36.35 37.3733 36.36 37.4 36.36 37.44C36.36 37.48 36.35 37.5033 36.33 37.51L31.37 39.89C30.8833 40.1167 30.5533 40.31 30.38 40.47C30.2067 40.63 30.12 40.8133 30.12 41.02ZM32.88 36.14L32.88 38.34L35.3 37.18L32.88 36.14ZM29.88 45.351C29.88 44.9177 29.9733 44.5543 30.16 44.261C30.3533 43.9677 30.6 43.7477 30.9 43.601C31.2 43.461 31.5167 43.391 31.85 43.391C32.2767 43.391 32.6467 43.501 32.96 43.721C33.28 43.941 33.5233 44.221 33.69 44.561C33.8633 44.901 33.95 45.251 33.95 45.611C33.95 45.911 33.89 46.181 33.77 46.421C33.65 46.6677 33.5 46.791 33.32 46.791C33.22 46.791 33.1367 46.7543 33.07 46.681C33.0033 46.6143 32.97 46.5243 32.97 46.411C32.97 46.1977 33.09 46.0377 33.33 45.931C33.4767 45.8577 33.5833 45.771 33.65 45.671C33.7167 45.5777 33.75 45.441 33.75 45.261C33.75 44.901 33.6033 44.621 33.31 44.421C33.0233 44.221 32.64 44.121 32.16 44.121C31.6 44.121 31.14 44.2577 30.78 44.531C30.4267 44.8043 30.25 45.221 30.25 45.781C30.25 46.161 30.3567 46.4943 30.57 46.781L30.57 46.801C30.57 46.821 30.56 46.8377 30.54 46.851C30.52 46.871 30.5033 46.871 30.49 46.851C30.2767 46.6177 30.12 46.381 30.02 46.141C29.9267 45.9077 29.88 45.6443 29.88 45.351ZM29.88 51.4233C29.88 50.9899 29.9733 50.6266 30.16 50.3333C30.3533 50.0399 30.6 49.8199 30.9 49.6733C31.2 49.5333 31.5167 49.4633 31.85 49.4633C32.2767 49.4633 32.6467 49.5733 32.96 49.7933C33.28 50.0133 33.5233 50.2933 33.69 50.6333C33.8633 50.9733 33.95 51.3233 33.95 51.6833C33.95 51.9833 33.89 52.2533 33.77 52.4933C33.65 52.7399 33.5 52.8633 33.32 52.8633C33.22 52.8633 33.1367 52.8266 33.07 52.7533C33.0033 52.6866 32.97 52.5966 32.97 52.4833C32.97 52.2699 33.09 52.1099 33.33 52.0033C33.4767 51.9299 33.5833 51.8433 33.65 51.7433C33.7167 51.6499 33.75 51.5133 33.75 51.3333C33.75 50.9733 33.6033 50.6933 33.31 50.4933C33.0233 50.2933 32.64 50.1933 32.16 50.1933C31.6 50.1933 31.14 50.3299 30.78 50.6033C30.4267 50.8766 30.25 51.2933 30.25 51.8533C30.25 52.2333 30.3567 52.5666 30.57 52.8533L30.57 52.8733C30.57 52.8933 30.56 52.9099 30.54 52.9233C30.52 52.9433 30.5033 52.9433 30.49 52.9233C30.2767 52.6899 30.12 52.4533 30.02 52.2133C29.9267 51.9799 29.88 51.7166 29.88 51.4233ZM30.58 58.8255C30.58 58.8455 30.5667 58.8622 30.54 58.8755C30.52 58.8955 30.5 58.8989 30.48 58.8855C30.08 58.4389 29.88 57.9455 29.88 57.4055C29.88 57.0122 29.9667 56.6755 30.14 56.3955C30.32 56.1155 30.5567 55.9022 30.85 55.7555C31.15 55.6089 31.47 55.5355 31.81 55.5355C32.2033 55.5355 32.5633 55.6289 32.89 55.8155C33.2167 56.0089 33.4733 56.2689 33.66 56.5955C33.8533 56.9222 33.95 57.2822 33.95 57.6755C33.95 58.0622 33.85 58.3555 33.65 58.5555C33.4567 58.7622 33.1767 58.8655 32.81 58.8655C32.63 58.8655 32.54 58.8255 32.54 58.7455L32.53 56.2755C32.3833 56.2622 32.27 56.2555 32.19 56.2555C31.61 56.2555 31.1433 56.3922 30.79 56.6655C30.4367 56.9389 30.26 57.3255 30.26 57.8255C30.26 58.0255 30.2833 58.1922 30.33 58.3255C30.3833 58.4655 30.4667 58.6289 30.58 58.8155L30.58 58.8255ZM33.75 57.3355C33.75 57.0555 33.6533 56.8255 33.46 56.6455C33.2733 56.4655 33.01 56.3489 32.67 56.2955L32.71 58.1155C33.05 58.1155 33.3067 58.0455 33.48 57.9055C33.66 57.7722 33.75 57.5822 33.75 57.3355ZM33.28 62.3173C33.0533 62.3173 32.87 62.3907 32.73 62.5373C32.59 62.684 32.4433 62.904 32.29 63.1973C32.17 63.4307 32.0667 63.614 31.98 63.7473C31.8933 63.8807 31.7767 63.994 31.63 64.0873C31.49 64.1807 31.32 64.2273 31.12 64.2273C30.78 64.2273 30.49 64.1007 30.25 63.8473C30.01 63.594 29.89 63.244 29.89 62.7973C29.89 62.624 29.9133 62.4573 29.96 62.2973C30.0067 62.144 30.0833 61.9873 30.19 61.8273C30.2167 61.7873 30.2567 61.7673 30.31 61.7673L31.12 61.7473C31.14 61.7473 31.15 61.764 31.15 61.7973C31.1567 61.8373 31.15 61.8607 31.13 61.8673C30.7967 61.9873 30.5367 62.154 30.35 62.3673C30.17 62.5807 30.08 62.8207 30.08 63.0873C30.08 63.2807 30.1267 63.4307 30.22 63.5373C30.3133 63.644 30.4533 63.6973 30.64 63.6973C30.9067 63.6973 31.11 63.6207 31.25 63.4673C31.3967 63.3207 31.5467 63.0973 31.7 62.7973C31.8133 62.5707 31.9133 62.394 32 62.2673C32.0867 62.1407 32.2 62.0307 32.34 61.9373C32.48 61.8507 32.6533 61.8073 32.86 61.8073C33.2267 61.8073 33.5033 61.9407 33.69 62.2073C33.8833 62.4807 33.98 62.8073 33.98 63.1873C33.98 63.454 33.93 63.704 33.83 63.9373C33.8033 63.9973 33.7667 64.0273 33.72 64.0273C33.58 64.0273 33.47 64.024 33.39 64.0173L32.96 64.0073C32.9467 64.0073 32.94 63.9873 32.94 63.9473C32.94 63.9073 32.9467 63.8873 32.96 63.8873C33.1667 63.8873 33.3533 63.774 33.52 63.5473C33.6933 63.3273 33.78 63.0907 33.78 62.8373C33.78 62.6773 33.74 62.5507 33.66 62.4573C33.58 62.364 33.4533 62.3173 33.28 62.3173ZM33.28 67.6377C33.0533 67.6377 32.87 67.711 32.73 67.8577C32.59 68.0043 32.4433 68.2243 32.29 68.5177C32.17 68.751 32.0667 68.9343 31.98 69.0677C31.8933 69.201 31.7767 69.3143 31.63 69.4077C31.49 69.501 31.32 69.5477 31.12 69.5477C30.78 69.5477 30.49 69.421 30.25 69.1677C30.01 68.9143 29.89 68.5643 29.89 68.1177C29.89 67.9443 29.9133 67.7777 29.96 67.6177C30.0067 67.4643 30.0833 67.3077 30.19 67.1477C30.2167 67.1077 30.2567 67.0877 30.31 67.0877L31.12 67.0677C31.14 67.0677 31.15 67.0843 31.15 67.1177C31.1567 67.1577 31.15 67.181 31.13 67.1877C30.7967 67.3077 30.5367 67.4743 30.35 67.6877C30.17 67.901 30.08 68.141 30.08 68.4077C30.08 68.601 30.1267 68.751 30.22 68.8577C30.3133 68.9643 30.4533 69.0177 30.64 69.0177C30.9067 69.0177 31.11 68.941 31.25 68.7877C31.3967 68.641 31.5467 68.4177 31.7 68.1177C31.8133 67.891 31.9133 67.7143 32 67.5877C32.0867 67.461 32.2 67.351 32.34 67.2577C32.48 67.171 32.6533 67.1277 32.86 67.1277C33.2267 67.1277 33.5033 67.261 33.69 67.5277C33.8833 67.801 33.98 68.1277 33.98 68.5077C33.98 68.7743 33.93 69.0243 33.83 69.2577C33.8033 69.3177 33.7667 69.3477 33.72 69.3477C33.58 69.3477 33.47 69.3443 33.39 69.3377L32.96 69.3277C32.9467 69.3277 32.94 69.3077 32.94 69.2677C32.94 69.2277 32.9467 69.2077 32.96 69.2077C33.1667 69.2077 33.3533 69.0943 33.52 68.8677C33.6933 68.6477 33.78 68.411 33.78 68.1577C33.78 67.9977 33.74 67.871 33.66 67.7777C33.58 67.6843 33.4533 67.6377 33.28 67.6377Z" fill="#A4A4A4"/>
<path d="M18.62 46.36H11.58V51.18H17.42C17.8467 51.18 18.1533 51.0333 18.34 50.74C18.5267 50.4333 18.62 50.0867 18.62 49.7V46.36ZM22.18 36.94C22.18 37.2067 22.08 37.4467 21.88 37.66C21.6933 37.86 21.4667 37.96 21.2 37.96H8.72V40.02C8.72 41.2067 8.67333 42.4333 8.58 43.7C8.5 44.9533 8.28 46.1533 7.92 47.3C7.76 47.82 7.54 48.3667 7.26 48.94C6.98 49.5 6.65333 50.0333 6.28 50.54C5.92 51.0467 5.52667 51.48 5.1 51.84C5.04667 51.8933 4.98 51.9467 4.9 52C4.83333 52.0533 4.76 52.08 4.68 52.08C4.61333 52.08 4.58 52.04 4.58 51.96C4.58 51.8933 4.59333 51.8267 4.62 51.76C4.66 51.7067 4.7 51.6533 4.74 51.6C5.16667 50.8933 5.51333 50.1467 5.78 49.36C6.04667 48.56 6.24667 47.7533 6.38 46.94C6.47333 46.4333 6.53333 45.9333 6.56 45.44C6.58667 44.9333 6.61333 44.4267 6.64 43.92C6.68 42.9333 6.7 41.9533 6.7 40.98C6.7 40.3533 6.69333 39.72 6.68 39.08C6.68 38.44 6.68 37.8 6.68 37.16H13.3L12.86 34.42L15.28 34.52C15.3867 34.52 15.48 34.5467 15.56 34.6C15.6533 34.6533 15.7 34.74 15.7 34.86C15.7 34.94 15.6533 35.0867 15.56 35.3C15.48 35.5 15.3733 35.7267 15.24 35.98C15.12 36.2333 15 36.4733 14.88 36.7C14.7733 36.9133 14.6933 37.0667 14.64 37.16H20.1C20.0867 37.12 20.08 37.0467 20.08 36.94C20.08 36.66 20.18 36.42 20.38 36.22C20.5933 36.0067 20.84 35.9 21.12 35.9C21.4 35.9 21.6467 36.0067 21.86 36.22C22.0733 36.42 22.18 36.66 22.18 36.94ZM22.22 41.44C22.22 41.7333 22.1133 41.96 21.9 42.12C21.7 42.28 21.46 42.36 21.18 42.36H15.6V45.64H20.46V49.42C20.46 50.1 20.3333 50.62 20.08 50.98C19.8267 51.34 19.4733 51.5867 19.02 51.72C18.5667 51.8667 18.0333 51.94 17.42 51.94H9.86V45.64H13.84V38.6H15.6V41.54H20.26C20.26 41.2467 20.3467 40.9933 20.52 40.78C20.7067 40.5667 20.9467 40.46 21.24 40.46C21.5067 40.46 21.7333 40.56 21.92 40.76C22.12 40.9467 22.22 41.1733 22.22 41.44ZM7.52 70.78V74.98H8.46C8.95333 74.98 9.36 74.9 9.68 74.74C10.0133 74.58 10.18 74.2133 10.18 73.64C10.18 73.16 10.18 72.6867 10.18 72.22C10.1933 71.74 10.2 71.26 10.2 70.78H7.52ZM16.7 70.54V68.24H14.94V70.54H16.7ZM16.7 67.52V65.18H14.94V67.52H16.7ZM11.82 73.38C11.82 74.1133 11.6933 74.6467 11.44 74.98C11.2 75.3133 10.8533 75.52 10.4 75.6C9.94667 75.6933 9.4 75.74 8.76 75.74H5.82V70.06H11.82V73.38ZM12.6 68C12.6 68.2133 12.52 68.3867 12.36 68.52C12.2133 68.6533 12.04 68.72 11.84 68.72C10.68 68.72 9.52 68.72 8.36 68.72C7.2 68.7067 6.03333 68.7 4.86 68.7V67.88H8.24V65.76H6.12V65H8.24V63.2H9.92V65H10.98C10.9933 64.8133 11.0733 64.6533 11.22 64.52C11.3667 64.3733 11.5333 64.3 11.72 64.3C11.92 64.3 12.0933 64.38 12.24 64.54C12.4 64.6867 12.48 64.86 12.48 65.06C12.48 65.3133 12.38 65.4933 12.18 65.6C11.9933 65.7067 11.7867 65.76 11.56 65.76H9.92V67.88H11.1C11.1267 67.7067 11.2133 67.56 11.36 67.44C11.5067 67.3067 11.6667 67.24 11.84 67.24C12.0533 67.24 12.2333 67.32 12.38 67.48C12.5267 67.6267 12.6 67.8 12.6 68ZM12.52 63.14C12.52 63.26 12.4667 63.32 12.36 63.32C12.1867 63.32 11.9667 63.2133 11.7 63C11.4333 62.7733 11.16 62.5067 10.88 62.2C10.6133 61.8933 10.3667 61.5933 10.14 61.3C9.92667 61.0067 9.76667 60.7867 9.66 60.64C9.56667 60.6933 9.42667 60.7933 9.24 60.94C9.06667 61.0867 8.94667 61.2 8.88 61.28C8.82667 61.36 8.77333 61.4467 8.72 61.54C8.68 61.6333 8.62667 61.72 8.56 61.8C8.46667 61.9733 8.36 62.1467 8.24 62.32C8.13333 62.48 8.02 62.64 7.9 62.8C7.47333 63.3733 7.00667 63.9067 6.5 64.4C5.99333 64.88 5.46 65.34 4.9 65.78C4.84667 65.82 4.74667 65.8933 4.6 66C4.45333 66.0933 4.35333 66.14 4.3 66.14C4.27333 66.14 4.23333 66.14 4.18 66.14C4.14 66.1267 4.12 66.1 4.12 66.06C4.12 66.0333 4.16667 65.9533 4.26 65.82C4.35333 65.6867 4.44667 65.5533 4.54 65.42C4.64667 65.2867 4.71333 65.2 4.74 65.16C5.15333 64.5467 5.56667 63.8533 5.98 63.08C6.39333 62.2933 6.76 61.4933 7.08 60.68C7.41333 59.8533 7.65333 59.0867 7.8 58.38L9.8 58.96C9.72 59.2 9.62667 59.44 9.52 59.68C9.41333 59.92 9.3 60.1533 9.18 60.38C9.27333 60.3133 9.43333 60.2 9.66 60.04C9.88667 59.8667 10.1133 59.7133 10.34 59.58C10.5667 59.4333 10.72 59.36 10.8 59.36C10.8933 59.36 10.9667 59.3933 11.02 59.46C11.0867 59.5133 11.14 59.5733 11.18 59.64C11.2733 59.7867 11.3467 59.9533 11.4 60.14C11.4533 60.3133 11.5067 60.4867 11.56 60.66C11.68 60.9933 11.8067 61.3267 11.94 61.66C12.0733 61.98 12.2133 62.3067 12.36 62.64C12.3867 62.72 12.42 62.8 12.46 62.88C12.5 62.96 12.52 63.0467 12.52 63.14ZM23.72 61.52C23.72 61.7733 23.6267 61.98 23.44 62.14C23.2533 62.3 23.04 62.38 22.8 62.38H18.48V64.4H22.52C22.52 65.9733 22.52 67.5467 22.52 69.12C22.5333 70.6933 22.54 72.2667 22.54 73.84C22.54 74.28 22.4867 74.6933 22.38 75.08C22.2867 75.4667 22.1 75.78 21.82 76.02C21.54 76.2733 21.14 76.4 20.62 76.4C20.3933 76.4 20.1533 76.3267 19.9 76.18C19.66 76.0333 19.4267 75.86 19.2 75.66C18.9867 75.4733 18.8 75.3 18.64 75.14C18.5867 75.0867 18.56 75.0333 18.56 74.98C18.56 74.94 18.58 74.92 18.62 74.92C18.6333 74.92 18.6467 74.9267 18.66 74.94C18.6733 74.94 18.6867 74.94 18.7 74.94C18.9133 74.9933 19.12 75.04 19.32 75.08C19.52 75.1333 19.7267 75.16 19.94 75.16C20.3133 75.16 20.54 75.0333 20.62 74.78C20.7 74.5267 20.74 74.2533 20.74 73.96V65.18H18.48V67.52H19.04C19.0667 67.36 19.14 67.22 19.26 67.1C19.3933 66.9667 19.54 66.9 19.7 66.9C19.8867 66.9 20.04 66.9667 20.16 67.1C20.2933 67.22 20.36 67.3733 20.36 67.56C20.36 67.84 20.2867 68.0267 20.14 68.12C19.9933 68.2 19.7933 68.24 19.54 68.24H18.48V70.54H19.04C19.0667 70.3667 19.14 70.22 19.26 70.1C19.38 69.98 19.5267 69.92 19.7 69.92C19.8867 69.92 20.0467 69.9933 20.18 70.14C20.3133 70.2867 20.38 70.4533 20.38 70.64C20.38 70.8533 20.3 71.0133 20.14 71.12C19.98 71.2133 19.8 71.26 19.6 71.26H18.48V76.16H16.7V71.26H14.94V76.2H13.24V64.4H16.68V62.38H12.52V61.54H16.68V58.52H18.48V61.54H21.88C21.88 61.2867 21.9667 61.0667 22.14 60.88C22.3267 60.68 22.5467 60.58 22.8 60.58C23.0533 60.58 23.2667 60.68 23.44 60.88C23.6267 61.0667 23.72 61.28 23.72 61.52ZM22.16 58.96C22.16 59.0533 22.0467 59.22 21.82 59.46C21.5933 59.7 21.3267 59.9533 21.02 60.22C20.7133 60.4867 20.42 60.72 20.14 60.92C19.8733 61.1067 19.6933 61.2 19.6 61.2C19.48 61.2 19.42 61.1333 19.42 61C19.42 60.9733 19.46 60.8333 19.54 60.58C19.6333 60.3267 19.74 60.0333 19.86 59.7C19.98 59.3533 20.0867 59.0333 20.18 58.74C20.2867 58.4333 20.3533 58.2333 20.38 58.14C20.6467 58.2067 20.9133 58.2867 21.18 58.38C21.46 58.46 21.72 58.56 21.96 58.68C22.0267 58.72 22.0733 58.76 22.1 58.8C22.14 58.84 22.16 58.8933 22.16 58.96ZM7.26 87.36C7.26 87.4133 7.24667 87.4667 7.22 87.52C7.07333 87.9467 6.86667 88.44 6.6 89C6.34667 89.5467 6.05333 90.0733 5.72 90.58C5.4 91.0733 5.04667 91.4533 4.66 91.72C4.60667 91.7467 4.55333 91.7733 4.5 91.8C4.46 91.8267 4.41333 91.84 4.36 91.84C4.29333 91.84 4.26 91.8067 4.26 91.74C4.26 91.7133 4.26 91.6867 4.26 91.66C4.27333 91.6333 4.28667 91.6067 4.3 91.58C4.56667 90.7933 4.78667 90 4.96 89.2C5.14667 88.3867 5.29333 87.5733 5.4 86.76C5.68 86.8267 5.96 86.8867 6.24 86.94C6.53333 86.9933 6.81333 87.0733 7.08 87.18C7.12 87.1933 7.16 87.2133 7.2 87.24C7.24 87.2667 7.26 87.3067 7.26 87.36ZM9.42 100.4H7.52V82.94H9.42V100.4ZM21.6 91.4V98C21.6 98.2133 21.5933 98.4333 21.58 98.66C21.5667 98.8733 21.5267 99.0867 21.46 99.3C21.34 99.7 21.14 100.02 20.86 100.26C20.58 100.513 20.2267 100.64 19.8 100.64C19.4933 100.64 19.1667 100.547 18.82 100.36C18.4867 100.173 18.1667 99.9467 17.86 99.68C17.5667 99.4133 17.3267 99.1667 17.14 98.94C17.0867 98.9133 17.06 98.8733 17.06 98.82C17.06 98.78 17.0933 98.76 17.16 98.76C17.1867 98.76 17.2133 98.7667 17.24 98.78C17.2667 98.78 17.2933 98.7867 17.32 98.8C17.5467 98.8933 17.82 98.9667 18.14 99.02C18.46 99.0867 18.7467 99.12 19 99.12C19.08 99.12 19.16 99.1133 19.24 99.1C19.3333 99.1 19.4067 99.0733 19.46 99.02C19.5533 98.9533 19.6133 98.84 19.64 98.68C19.68 98.5067 19.7 98.3333 19.7 98.16C19.7133 97.9733 19.72 97.8333 19.72 97.74C19.72 96.8067 19.7133 95.8733 19.7 94.94C19.7 94.0067 19.7 93.0733 19.7 92.14H14.06V93.76H17.6C17.6267 93.5867 17.7067 93.4467 17.84 93.34C17.9733 93.22 18.1267 93.16 18.3 93.16C18.4867 93.16 18.6467 93.2267 18.78 93.36C18.9267 93.4933 19 93.6533 19 93.84C19 94.0133 18.9333 94.16 18.8 94.28C18.6667 94.4 18.5133 94.46 18.34 94.46H14.06V96.04H17.6C17.6267 95.8933 17.7 95.76 17.82 95.64C17.9533 95.52 18.1067 95.46 18.28 95.46C18.4533 95.46 18.6133 95.52 18.76 95.64C18.92 95.76 19 95.9133 19 96.1C19 96.34 18.92 96.5133 18.76 96.62C18.6133 96.7133 18.4333 96.76 18.22 96.76H14.06V100.58H12.32V91.4H21.6ZM23.74 89.3C23.74 89.5533 23.6467 89.7667 23.46 89.94C23.2733 90.1 23.06 90.18 22.82 90.18H10.42V89.44H11.44C11.0667 89.0933 10.72 88.7133 10.4 88.3C10.08 87.8733 9.78667 87.4467 9.52 87.02C9.78667 86.8733 10.0533 86.7333 10.32 86.6C10.6 86.4667 10.88 86.3333 11.16 86.2C11.2533 86.5333 11.3467 86.8733 11.44 87.22C11.5333 87.5533 11.6333 87.8867 11.74 88.22C11.8067 88.3933 11.8733 88.56 11.94 88.72C12.0067 88.88 12.0667 89.04 12.12 89.2C12.1333 89.24 12.14 89.28 12.14 89.32C12.14 89.36 12.14 89.4 12.14 89.44H15.8V87.78H12.5V86.98H15.8V85.38H11.6V84.6H15.8V82.54H17.7V84.6H21.32C21.32 84.3733 21.4 84.1733 21.56 84C21.72 83.8133 21.9133 83.72 22.14 83.72C22.3667 83.72 22.5733 83.8067 22.76 83.98C22.9467 84.1533 23.04 84.3533 23.04 84.58C23.04 84.78 22.9667 84.9667 22.82 85.14C22.6733 85.3 22.5 85.38 22.3 85.38H17.7V86.96H20.2C20.2267 86.76 20.3133 86.5867 20.46 86.44C20.6067 86.2933 20.78 86.22 20.98 86.22C21.1933 86.22 21.3733 86.3 21.52 86.46C21.68 86.62 21.76 86.8133 21.76 87.04C21.76 87.32 21.6667 87.5133 21.48 87.62C21.2933 87.7267 21.0733 87.78 20.82 87.78H17.7V89.44H21.92C21.9067 89.4133 21.9 89.3667 21.9 89.3C21.9 89.06 21.9867 88.8467 22.16 88.66C22.3467 88.46 22.5667 88.36 22.82 88.36C23.0733 88.36 23.2867 88.46 23.46 88.66C23.6467 88.8467 23.74 89.06 23.74 89.3ZM14.3 116C14.3 116.307 14.2 116.527 14 116.66C13.8133 116.793 13.58 116.86 13.3 116.86H10.5V119.2H12.1C12.1133 118.973 12.2 118.78 12.36 118.62C12.5333 118.46 12.7267 118.38 12.94 118.38C13.1667 118.38 13.3667 118.447 13.54 118.58C13.7133 118.713 13.8 118.9 13.8 119.14C13.8 119.473 13.6933 119.713 13.48 119.86C13.28 119.993 13.0267 120.06 12.72 120.06H10.5V124.34H8.66V120.06H5.68V119.2H8.66V116.86H4.72V116.06H12.62C12.62 115.807 12.6933 115.587 12.84 115.4C12.9867 115.213 13.1933 115.12 13.46 115.12C13.7 115.12 13.9 115.213 14.06 115.4C14.22 115.573 14.3 115.773 14.3 116ZM8.42 115.48C8.42 115.56 8.39333 115.633 8.34 115.7C8.3 115.767 8.23333 115.8 8.14 115.8C8.08667 115.8 8.03333 115.787 7.98 115.76C7.94 115.733 7.9 115.707 7.86 115.68C7.54 115.4 7.22 115.093 6.9 114.76C6.58 114.413 6.28 114.073 6 113.74C6.10667 113.7 6.28667 113.64 6.54 113.56C6.79333 113.467 7.04 113.387 7.28 113.32C7.53333 113.24 7.68667 113.2 7.74 113.2C7.83333 113.2 7.90667 113.233 7.96 113.3C7.98667 113.34 8.02 113.46 8.06 113.66C8.11333 113.86 8.16667 114.093 8.22 114.36C8.27333 114.613 8.32 114.847 8.36 115.06C8.4 115.273 8.42 115.413 8.42 115.48ZM12.96 113.76C12.96 113.853 12.8467 114.02 12.62 114.26C12.3933 114.487 12.1267 114.727 11.82 114.98C11.5133 115.233 11.22 115.453 10.94 115.64C10.6733 115.827 10.4867 115.92 10.38 115.92C10.2733 115.92 10.22 115.867 10.22 115.76C10.22 115.72 10.2533 115.587 10.32 115.36C10.4 115.133 10.4933 114.873 10.6 114.58C10.7067 114.287 10.8 114.007 10.88 113.74C10.9733 113.473 11.0333 113.28 11.06 113.16C11.3267 113.24 11.5933 113.32 11.86 113.4C12.14 113.467 12.42 113.533 12.7 113.6C12.74 113.613 12.7933 113.627 12.86 113.64C12.9267 113.653 12.96 113.693 12.96 113.76ZM14.28 111.98C14.28 112.3 14.18 112.527 13.98 112.66C13.7933 112.78 13.5533 112.84 13.26 112.84H4.68V112.02H8.66V109.66H5.68V108.82H8.66V106.52H10.5V108.82H11.8C11.8 108.593 11.88 108.393 12.04 108.22C12.2133 108.047 12.42 107.96 12.66 107.96C12.8867 107.96 13.08 108.047 13.24 108.22C13.4133 108.393 13.5 108.593 13.5 108.82C13.5 109.073 13.4067 109.28 13.22 109.44C13.0333 109.587 12.82 109.66 12.58 109.66H10.5V112.02H12.62C12.62 111.78 12.6933 111.573 12.84 111.4C13 111.227 13.2067 111.14 13.46 111.14C13.7 111.14 13.8933 111.22 14.04 111.38C14.2 111.54 14.28 111.74 14.28 111.98ZM23.78 123.26C23.78 123.473 23.7067 123.667 23.56 123.84C23.4267 124.027 23.2467 124.12 23.02 124.12C22.7533 124.12 22.4533 124.013 22.12 123.8C21.7867 123.6 21.4533 123.34 21.12 123.02C20.7867 122.713 20.48 122.407 20.2 122.1C19.9333 121.793 19.72 121.54 19.56 121.34C19.4533 121.46 19.2733 121.653 19.02 121.92C18.7667 122.173 18.4867 122.44 18.18 122.72C17.8867 123 17.6 123.233 17.32 123.42C17.0533 123.62 16.8467 123.72 16.7 123.72C16.5667 123.72 16.5 123.667 16.5 123.56C16.5 123.493 16.52 123.433 16.56 123.38C16.6 123.327 16.64 123.273 16.68 123.22C17.12 122.74 17.52 122.24 17.88 121.72C18.24 121.2 18.56 120.647 18.84 120.06C17.9867 118.767 17.3533 117.353 16.94 115.82L18.52 115.1C18.6667 115.647 18.8133 116.2 18.96 116.76C19.1067 117.307 19.2933 117.84 19.52 118.36C19.7067 117.773 19.8667 117.173 20 116.56C20.1467 115.947 20.2533 115.333 20.32 114.72H16.44V124.2H14.64V107.48H22.6C22.5333 108.027 22.44 108.587 22.32 109.16C22.2133 109.733 22.06 110.28 21.86 110.8C21.66 111.307 21.3867 111.667 21.04 111.88C20.6933 112.08 20.2533 112.18 19.72 112.18C19.64 112.18 19.4867 112.16 19.26 112.12C19.0333 112.067 18.8133 112 18.6 111.92C18.4 111.84 18.3 111.76 18.3 111.68C18.3 111.64 18.3267 111.613 18.38 111.6C18.4333 111.587 18.4733 111.58 18.5 111.58C18.6467 111.553 18.7867 111.527 18.92 111.5C19.0667 111.46 19.2067 111.393 19.34 111.3C19.6333 111.113 19.8467 110.847 19.98 110.5C20.1267 110.14 20.2267 109.76 20.28 109.36C20.3467 108.96 20.4 108.607 20.44 108.3H16.44V113.94H22.5C22.4067 114.993 22.2067 116.04 21.9 117.08C21.5933 118.12 21.1467 119.093 20.56 120C20.7867 120.493 21.04 121.013 21.32 121.56C21.6133 122.093 21.9467 122.56 22.32 122.96C22.36 122.8 22.4467 122.667 22.58 122.56C22.7133 122.453 22.8667 122.4 23.04 122.4C23.2667 122.4 23.4467 122.493 23.58 122.68C23.7133 122.853 23.78 123.047 23.78 123.26Z" fill="white"/>
<rect x="21" width="30" height="0.999999" transform="rotate(90 21 0)" fill="#A4A4A4"/>
</svg>
