<svg width="39" height="197" viewBox="0 0 39 197" fill="none" xmlns="http://www.w3.org/2000/svg">
<path d="M14.0693 179.5C17.4884 179.5 20.5196 180.47 22.6553 181.96C24.7958 183.454 25.9246 185.373 25.9248 187.32C25.9248 189.268 24.796 191.188 22.6553 192.682C20.5196 194.172 17.4884 195.142 14.0693 195.142C10.6503 195.142 7.61915 194.172 5.4834 192.682C3.34259 191.188 2.21289 189.268 2.21289 187.32C2.21306 185.373 3.34275 183.454 5.4834 181.96C7.61915 180.47 10.6503 179.5 14.0693 179.5Z" stroke="white" stroke-width="3"/>
<mask id="path-2-inside-1_1296_1838" fill="white">
<ellipse cx="10.0354" cy="187.321" rx="1.26002" ry="2.45283"/>
</mask>
<ellipse cx="10.0354" cy="187.321" rx="1.26002" ry="2.45283" fill="white"/>
<path d="M11.2954 187.321H9.29542C9.29542 187.747 9.20232 188.034 9.14737 188.141C9.1205 188.193 9.13979 188.131 9.25459 188.037C9.38244 187.931 9.65212 187.773 10.0354 187.773V189.773V191.773C11.5206 191.773 12.3581 190.645 12.7054 189.969C13.1065 189.188 13.2954 188.249 13.2954 187.321H11.2954ZM10.0354 189.773V187.773C10.4187 187.773 10.6884 187.931 10.8162 188.037C10.931 188.131 10.9503 188.193 10.9234 188.141C10.8685 188.034 10.7754 187.747 10.7754 187.321H8.77539H6.77539C6.77539 188.249 6.96436 189.188 7.36544 189.969C7.7127 190.645 8.55017 191.773 10.0354 191.773V189.773ZM8.77539 187.321H10.7754C10.7754 186.894 10.8685 186.607 10.9234 186.5C10.9503 186.448 10.931 186.51 10.8162 186.604C10.6884 186.71 10.4187 186.868 10.0354 186.868V184.868V182.868C8.55017 182.868 7.7127 183.996 7.36544 184.672C6.96436 185.453 6.77539 186.392 6.77539 187.321H8.77539ZM10.0354 184.868V186.868C9.65212 186.868 9.38244 186.71 9.25459 186.604C9.13979 186.51 9.1205 186.448 9.14737 186.5C9.20232 186.607 9.29542 186.894 9.29542 187.321H11.2954H13.2954C13.2954 186.392 13.1065 185.453 12.7054 184.672C12.3581 183.996 11.5206 182.868 10.0354 182.868V184.868Z" fill="white" mask="url(#path-2-inside-1_1296_1838)"/>
<mask id="path-4-inside-2_1296_1838" fill="white">
<ellipse cx="18.1018" cy="187.321" rx="1.26002" ry="2.45283"/>
</mask>
<ellipse cx="18.1018" cy="187.321" rx="1.26002" ry="2.45283" fill="white"/>
<path d="M19.3618 187.321H17.3618C17.3618 187.747 17.2687 188.034 17.2138 188.141C17.1869 188.193 17.2062 188.131 17.321 188.037C17.4489 187.931 17.7185 187.773 18.1018 187.773V189.773V191.773C19.587 191.773 20.4245 190.645 20.7718 189.969C21.1729 189.188 21.3618 188.249 21.3618 187.321H19.3618ZM18.1018 189.773V187.773C18.4851 187.773 18.7548 187.931 18.8826 188.037C18.9974 188.131 19.0167 188.193 18.9898 188.141C18.9349 188.034 18.8418 187.747 18.8418 187.321H16.8418H14.8418C14.8418 188.249 15.0308 189.188 15.4318 189.969C15.7791 190.645 16.6166 191.773 18.1018 191.773V189.773ZM16.8418 187.321H18.8418C18.8418 186.894 18.9349 186.607 18.9898 186.5C19.0167 186.448 18.9974 186.51 18.8826 186.604C18.7548 186.71 18.4851 186.868 18.1018 186.868V184.868V182.868C16.6166 182.868 15.7791 183.996 15.4318 184.672C15.0308 185.453 14.8418 186.392 14.8418 187.321H16.8418ZM18.1018 184.868V186.868C17.7185 186.868 17.4489 186.71 17.321 186.604C17.2062 186.51 17.1869 186.448 17.2138 186.5C17.2687 186.607 17.3618 186.894 17.3618 187.321H19.3618H21.3618C21.3618 186.392 21.1729 185.453 20.7718 184.672C20.4245 183.996 19.587 182.868 18.1018 182.868V184.868Z" fill="white" mask="url(#path-4-inside-2_1296_1838)"/>
<path d="M28.11 34.52C28.11 34.4267 28.1633 34.38 28.27 34.38C28.3767 34.38 28.43 34.4267 28.43 34.52C28.43 34.7533 28.47 34.9 28.55 34.96C28.63 35.02 28.76 35.05 28.94 35.05L33.47 35.05C33.63 35.05 33.7367 35.0333 33.79 35C33.8433 34.9733 33.88 34.9167 33.9 34.83C33.9133 34.79 33.9233 34.74 33.93 34.68C33.9433 34.6267 33.9533 34.5833 33.96 34.55C33.9667 34.4633 34.02 34.42 34.12 34.42C34.16 34.42 34.1967 34.43 34.23 34.45C34.2633 34.4767 34.28 34.5133 34.28 34.56C34.28 34.58 34.28 34.6367 34.28 34.73C34.2867 34.83 34.29 34.9433 34.29 35.07C34.29 35.1967 34.29 35.3133 34.29 35.42C34.2967 35.5267 34.3 35.5967 34.3 35.63C34.3 35.7833 34.23 35.86 34.09 35.86L33.8 35.86C33.76 35.86 33.7367 35.87 33.73 35.89C33.7233 35.9167 33.7367 35.9433 33.77 35.97C33.8367 36.0233 33.92 36.0967 34.02 36.19C34.1267 36.29 34.22 36.4167 34.3 36.57C34.38 36.7233 34.42 36.9033 34.42 37.11C34.42 37.39 34.3467 37.6633 34.2 37.93C34.0533 38.2033 33.8167 38.4267 33.49 38.6C33.17 38.78 32.75 38.87 32.23 38.87C31.6967 38.87 31.2533 38.7767 30.9 38.59C30.5533 38.4033 30.2967 38.1767 30.13 37.91C29.9633 37.6433 29.88 37.3833 29.88 37.13C29.88 36.8433 29.9333 36.6133 30.04 36.44C30.1467 36.2667 30.2567 36.12 30.37 36C30.41 35.9533 30.42 35.92 30.4 35.9C30.3867 35.88 30.3633 35.87 30.33 35.87L28.92 35.87C28.7333 35.87 28.6067 35.91 28.54 35.99C28.4667 36.0767 28.43 36.2333 28.43 36.46C28.43 36.5533 28.3767 36.6 28.27 36.6C28.1633 36.6 28.11 36.5533 28.11 36.46C28.11 36.4133 28.1133 36.33 28.12 36.21C28.12 36.0967 28.1233 35.97 28.13 35.83C28.13 35.69 28.13 35.5667 28.13 35.46C28.13 35.3 28.1267 35.12 28.12 34.92C28.1133 34.7267 28.11 34.5933 28.11 34.52ZM30.26 36.88C30.26 37.2867 30.4433 37.57 30.81 37.73C31.1833 37.89 31.6767 37.97 32.29 37.97C32.8033 37.97 33.1833 37.9167 33.43 37.81C33.6767 37.7033 33.84 37.57 33.92 37.41C34 37.2567 34.04 37.1033 34.04 36.95C34.04 36.79 33.98 36.6267 33.86 36.46C33.7467 36.2933 33.58 36.1533 33.36 36.04C33.1467 35.9267 32.89 35.87 32.59 35.87L31.39 35.87C31.2233 35.87 31.05 35.91 30.87 35.99C30.6967 36.0767 30.55 36.1933 30.43 36.34C30.3167 36.4933 30.26 36.6733 30.26 36.88ZM30 41.5486C30 41.4619 30.0533 41.4186 30.16 41.4186C30.2667 41.4186 30.32 41.4619 30.32 41.5486C30.32 41.8019 30.3567 41.9786 30.43 42.0786C30.5033 42.1786 30.6333 42.2286 30.82 42.2286L33.47 42.2286C33.6033 42.2286 33.7067 42.2153 33.78 42.1886C33.8533 42.1619 33.8933 42.1086 33.9 42.0286C33.9067 41.9753 33.9167 41.8819 33.93 41.7486C33.9433 41.6219 33.9533 41.5353 33.96 41.4886C33.9667 41.4019 34.02 41.3586 34.12 41.3586C34.22 41.3586 34.2767 41.4053 34.29 41.4986C34.29 41.5186 34.29 41.5886 34.29 41.7086C34.29 41.8286 34.29 41.9619 34.29 42.1086C34.2967 42.2619 34.3 42.4019 34.3 42.5286C34.3 42.6553 34.3 42.7386 34.3 42.7786C34.3 42.9253 34.2233 42.9986 34.07 42.9986L33.55 42.9986C33.53 42.9986 33.5167 43.0086 33.51 43.0286C33.5033 43.0486 33.5133 43.0686 33.54 43.0886C33.6733 43.1953 33.8067 43.3153 33.94 43.4486C34.0733 43.5886 34.1867 43.7453 34.28 43.9186C34.3733 44.0919 34.42 44.2819 34.42 44.4886C34.42 44.8019 34.3533 45.0353 34.22 45.1886C34.0867 45.3486 33.9133 45.4286 33.7 45.4286C33.58 45.4286 33.4567 45.3819 33.33 45.2886C33.21 45.2019 33.15 45.0686 33.15 44.8886C33.15 44.6819 33.2033 44.5419 33.31 44.4686C33.4167 44.3953 33.5067 44.3586 33.58 44.3586C33.6 44.3586 33.63 44.3586 33.67 44.3586C33.7833 44.3586 33.8667 44.3486 33.92 44.3286C33.98 44.3153 34.01 44.2586 34.01 44.1586C34.01 44.0319 33.9567 43.9019 33.85 43.7686C33.7433 43.6419 33.6033 43.5219 33.43 43.4086C33.2633 43.3019 33.08 43.2153 32.88 43.1486C32.68 43.0819 32.4867 43.0486 32.3 43.0486L30.84 43.0486C30.6467 43.0486 30.51 43.1086 30.43 43.2286C30.3567 43.3553 30.32 43.5286 30.32 43.7486C30.32 43.8419 30.2667 43.8886 30.16 43.8886C30.0533 43.8886 30 43.8419 30 43.7486C30 43.6819 30.0033 43.5619 30.01 43.3886C30.0167 43.2219 30.02 42.9719 30.02 42.6386C30.02 42.3586 30.0167 42.1253 30.01 41.9386C30.0033 41.7519 30 41.6219 30 41.5486ZM30 48.181C30 48.0877 30.0533 48.041 30.16 48.041C30.2667 48.041 30.32 48.0877 30.32 48.181C30.32 48.4143 30.36 48.561 30.44 48.621C30.52 48.681 30.65 48.711 30.83 48.711L33.47 48.711C33.6367 48.711 33.7467 48.6943 33.8 48.661C33.86 48.6277 33.8933 48.5677 33.9 48.481C33.9133 48.4343 33.9233 48.371 33.93 48.291C33.9367 48.211 33.9433 48.151 33.95 48.111C33.97 48.0243 34.0267 47.981 34.12 47.981C34.16 47.981 34.1967 47.9943 34.23 48.021C34.2633 48.0477 34.28 48.081 34.28 48.121C34.28 48.141 34.28 48.2043 34.28 48.311C34.2867 48.4243 34.29 48.551 34.29 48.691C34.29 48.831 34.29 48.9577 34.29 49.071C34.2967 49.191 34.3 49.2677 34.3 49.301C34.3 49.4543 34.22 49.531 34.06 49.531L30.83 49.531C30.65 49.531 30.52 49.5577 30.44 49.611C30.36 49.671 30.32 49.7977 30.32 49.991C30.32 50.0843 30.2667 50.131 30.16 50.131C30.0533 50.131 30 50.0843 30 49.991C30 49.9243 30.0033 49.801 30.01 49.621C30.0167 49.441 30.02 49.2743 30.02 49.121C30.02 48.961 30.0167 48.781 30.01 48.581C30.0033 48.3877 30 48.2543 30 48.181ZM35.73 49.051C35.73 48.8977 35.7833 48.7677 35.89 48.661C36.0033 48.5543 36.1333 48.501 36.28 48.501C36.4333 48.501 36.5633 48.5543 36.67 48.661C36.7767 48.7677 36.83 48.8977 36.83 49.051C36.83 49.2043 36.7767 49.3343 36.67 49.441C36.5633 49.5477 36.4333 49.601 36.28 49.601C36.1333 49.601 36.0033 49.5477 35.89 49.441C35.7833 49.3343 35.73 49.2043 35.73 49.051ZM29.88 55.0019C29.88 54.6552 29.9567 54.3219 30.11 54.0019C30.27 53.6819 30.51 53.4185 30.83 53.2119C31.1567 53.0052 31.57 52.9019 32.07 52.9019C32.49 52.9019 32.8767 52.9952 33.23 53.1819C33.59 53.3685 33.8767 53.6285 34.09 53.9619C34.31 54.3019 34.42 54.6952 34.42 55.1419C34.42 55.3819 34.38 55.6119 34.3 55.8319C34.22 56.0519 34.1033 56.2319 33.95 56.3719C33.7967 56.5185 33.6133 56.5919 33.4 56.5919C33.24 56.5919 33.09 56.5352 32.95 56.4219C32.81 56.3152 32.74 56.1785 32.74 56.0119C32.74 55.8719 32.7833 55.7452 32.87 55.6319C32.9567 55.5252 33.0733 55.4719 33.22 55.4719C33.4067 55.4719 33.5667 55.5652 33.7 55.7519C33.76 55.8319 33.83 55.8285 33.91 55.7419C33.9967 55.6619 34.04 55.4819 34.04 55.2019C34.04 55.0819 34.0067 54.9452 33.94 54.7919C33.88 54.6385 33.7733 54.4885 33.62 54.3419C33.4733 54.2019 33.2733 54.0852 33.02 53.9919C32.7667 53.9052 32.45 53.8619 32.07 53.8619C31.5367 53.8619 31.11 53.9852 30.79 54.2319C30.4767 54.4785 30.32 54.7885 30.32 55.1619C30.32 55.4152 30.3733 55.6319 30.48 55.8119C30.5933 55.9985 30.7233 56.1485 30.87 56.2619C31.0233 56.3819 31.1533 56.4652 31.26 56.5119C31.36 56.5585 31.3867 56.6352 31.34 56.7419C31.3 56.8352 31.2333 56.8652 31.14 56.8319C30.9867 56.7785 30.81 56.6819 30.61 56.5419C30.4167 56.4019 30.2467 56.2085 30.1 55.9619C29.9533 55.7152 29.88 55.3952 29.88 55.0019ZM29.88 61.701C29.88 61.2677 29.9767 60.8843 30.17 60.551C30.3633 60.2243 30.6233 59.971 30.95 59.791C31.2833 59.611 31.66 59.521 32.08 59.521C32.3733 59.521 32.6567 59.571 32.93 59.671C33.21 59.7777 33.46 59.9243 33.68 60.111C33.9067 60.3043 34.0867 60.531 34.22 60.791C34.3533 61.051 34.42 61.3343 34.42 61.641C34.42 61.9677 34.35 62.2477 34.21 62.481C34.07 62.7143 33.89 62.9077 33.67 63.061C33.4567 63.2143 33.23 63.3277 32.99 63.401C32.7567 63.4743 32.5433 63.511 32.35 63.511C32.25 63.511 32.2 63.451 32.2 63.331L32.2 60.641C32.2 60.5743 32.19 60.531 32.17 60.511C32.15 60.491 32.1133 60.481 32.06 60.481C31.62 60.481 31.2733 60.541 31.02 60.661C30.7667 60.781 30.5867 60.941 30.48 61.141C30.3733 61.341 30.32 61.5577 30.32 61.791C30.32 62.031 30.3633 62.241 30.45 62.421C30.5367 62.601 30.6367 62.751 30.75 62.871C30.8633 62.991 30.9633 63.0843 31.05 63.151C31.1433 63.2177 31.1567 63.2977 31.09 63.391C31.0367 63.4777 30.9633 63.4943 30.87 63.441C30.7567 63.3743 30.62 63.2643 30.46 63.111C30.3067 62.9643 30.17 62.7743 30.05 62.541C29.9367 62.3077 29.88 62.0277 29.88 61.701ZM32.59 60.671L32.59 62.341C32.59 62.4677 32.6467 62.531 32.76 62.531C32.9467 62.531 33.1433 62.5043 33.35 62.451C33.5567 62.3977 33.73 62.3043 33.87 62.171C34.0167 62.0377 34.09 61.8543 34.09 61.621C34.09 61.421 34.0233 61.2477 33.89 61.101C33.7567 60.961 33.5867 60.8443 33.38 60.751C33.1733 60.6643 32.9533 60.5977 32.72 60.551C32.6333 60.531 32.59 60.571 32.59 60.671Z" fill="#A4A4A4"/>
<path d="M13.352 41.378C13.352 41.558 13.268 41.72 13.1 41.864C12.944 42.008 12.782 42.08 12.614 42.08H10.724V43.574C10.928 43.478 11.132 43.382 11.336 43.286C11.54 43.19 11.738 43.094 11.93 42.998C12.11 43.454 12.302 43.898 12.506 44.33C12.722 44.762 12.944 45.188 13.172 45.608C13.196 45.68 13.208 45.722 13.208 45.734C13.208 45.842 13.148 45.896 13.028 45.896C12.908 45.896 12.734 45.812 12.506 45.644C12.29 45.464 12.056 45.254 11.804 45.014C11.564 44.774 11.342 44.546 11.138 44.33C10.934 44.102 10.796 43.934 10.724 43.826V51.08H9.14V44.024C8.924 44.552 8.624 45.128 8.24 45.752C7.856 46.364 7.418 46.934 6.926 47.462C6.446 47.99 5.936 48.386 5.396 48.65C5.348 48.686 5.282 48.704 5.198 48.704C5.138 48.704 5.108 48.68 5.108 48.632C5.108 48.608 5.156 48.524 5.252 48.38C5.36 48.224 5.468 48.062 5.576 47.894C5.684 47.726 5.75 47.624 5.774 47.588C6.014 47.204 6.242 46.82 6.458 46.436C6.686 46.04 6.896 45.644 7.088 45.248C7.328 44.744 7.55 44.228 7.754 43.7C7.97 43.16 8.138 42.62 8.258 42.08H6.062V41.396H9.14V35.672H10.724V41.396H11.876C11.888 41.192 11.966 41.024 12.11 40.892C12.254 40.748 12.422 40.676 12.614 40.676C12.806 40.676 12.974 40.742 13.118 40.874C13.274 41.006 13.352 41.174 13.352 41.378ZM8.402 40.064C8.402 40.124 8.39 40.202 8.366 40.298C8.354 40.394 8.3 40.442 8.204 40.442C8.132 40.442 8.066 40.412 8.006 40.352C7.958 40.292 7.916 40.238 7.88 40.19C7.568 39.794 7.256 39.392 6.944 38.984C6.632 38.576 6.314 38.174 5.99 37.778C6.05 37.742 6.164 37.682 6.332 37.598C6.5 37.514 6.68 37.424 6.872 37.328C7.064 37.232 7.238 37.154 7.394 37.094C7.55 37.022 7.646 36.986 7.682 36.986C7.742 36.986 7.79 37.022 7.826 37.094C7.874 37.19 7.928 37.376 7.988 37.652C8.06 37.916 8.126 38.216 8.186 38.552C8.246 38.876 8.294 39.182 8.33 39.47C8.378 39.746 8.402 39.944 8.402 40.064ZM16.898 43.538C16.898 43.586 16.874 43.622 16.826 43.646C16.79 43.67 16.754 43.682 16.718 43.682C16.694 43.682 16.586 43.64 16.394 43.556C16.214 43.472 15.986 43.37 15.71 43.25C15.434 43.13 15.152 43.004 14.864 42.872C14.588 42.74 14.336 42.626 14.108 42.53C13.88 42.422 13.724 42.35 13.64 42.314C13.712 42.218 13.826 42.062 13.982 41.846C14.138 41.618 14.306 41.408 14.486 41.216C14.666 41.024 14.816 40.928 14.936 40.928C15.032 40.928 15.188 41.042 15.404 41.27C15.62 41.498 15.842 41.768 16.07 42.08C16.298 42.392 16.49 42.686 16.646 42.962C16.814 43.238 16.898 43.43 16.898 43.538ZM13.802 37.616C13.802 37.676 13.718 37.802 13.55 37.994C13.394 38.174 13.196 38.384 12.956 38.624C12.716 38.852 12.464 39.08 12.2 39.308C11.948 39.524 11.72 39.71 11.516 39.866C11.324 40.01 11.192 40.082 11.12 40.082C11.072 40.082 11.048 40.052 11.048 39.992C11.048 39.956 11.054 39.926 11.066 39.902C11.09 39.866 11.108 39.83 11.12 39.794C11.36 39.326 11.564 38.84 11.732 38.336C11.912 37.832 12.074 37.322 12.218 36.806C12.278 36.83 12.392 36.878 12.56 36.95C12.728 37.01 12.908 37.082 13.1 37.166C13.292 37.25 13.454 37.334 13.586 37.418C13.73 37.49 13.802 37.556 13.802 37.616ZM22.694 43.25C22.694 43.49 22.616 43.688 22.46 43.844C22.304 43.988 22.124 44.096 21.92 44.168L19.76 44.906V51.224H18.14V45.374L12.578 47.174L12.344 46.454L18.14 44.582V35.69H19.76V44.114L21.02 43.7C20.984 43.592 20.966 43.478 20.966 43.358C20.966 43.118 21.05 42.908 21.218 42.728C21.386 42.536 21.596 42.44 21.848 42.44C22.088 42.44 22.286 42.518 22.442 42.674C22.61 42.818 22.694 43.01 22.694 43.25ZM17.33 39.848C17.33 39.992 17.264 40.064 17.132 40.064C17.072 40.064 17.018 40.04 16.97 39.992C16.49 39.716 16.01 39.452 15.53 39.2C15.062 38.936 14.588 38.678 14.108 38.426C14.288 38.222 14.468 38.024 14.648 37.832C14.84 37.64 15.026 37.448 15.206 37.256C15.254 37.196 15.302 37.142 15.35 37.094C15.398 37.046 15.458 37.022 15.53 37.022C15.638 37.022 15.788 37.148 15.98 37.4C16.184 37.64 16.388 37.928 16.592 38.264C16.796 38.6 16.97 38.924 17.114 39.236C17.258 39.536 17.33 39.74 17.33 39.848ZM11.948 73.136C11.948 73.184 11.924 73.232 11.876 73.28C11.828 73.328 11.78 73.352 11.732 73.352C11.66 73.352 11.528 73.286 11.336 73.154C11.156 73.022 10.94 72.854 10.688 72.65C10.436 72.446 10.178 72.236 9.914 72.02C9.662 71.792 9.434 71.594 9.23 71.426C9.026 71.246 8.876 71.126 8.78 71.066L9.788 70.31C9.86 70.25 9.926 70.19 9.986 70.13C10.058 70.07 10.13 70.016 10.202 69.968C10.274 69.932 10.34 69.914 10.4 69.914C10.52 69.914 10.622 69.968 10.706 70.076C10.766 70.16 10.862 70.346 10.994 70.634C11.126 70.922 11.264 71.246 11.408 71.606C11.564 71.954 11.69 72.272 11.786 72.56C11.894 72.848 11.948 73.04 11.948 73.136ZM19.022 70.85C19.022 70.922 18.932 71.06 18.752 71.264C18.572 71.456 18.338 71.672 18.05 71.912C17.774 72.152 17.492 72.386 17.204 72.614C16.916 72.842 16.652 73.034 16.412 73.19C16.184 73.334 16.028 73.406 15.944 73.406C15.896 73.406 15.848 73.394 15.8 73.37C15.764 73.334 15.746 73.292 15.746 73.244C15.746 73.22 15.758 73.184 15.782 73.136C16.082 72.62 16.34 72.098 16.556 71.57C16.772 71.042 16.988 70.502 17.204 69.95C17.48 70.046 17.75 70.16 18.014 70.292C18.278 70.412 18.542 70.532 18.806 70.652C18.854 70.664 18.902 70.688 18.95 70.724C18.998 70.748 19.022 70.79 19.022 70.85ZM22.676 66.008C22.676 66.248 22.574 66.452 22.37 66.62C22.166 66.776 21.95 66.854 21.722 66.854C21.014 66.854 20.33 66.71 19.67 66.422C19.01 66.122 18.404 65.762 17.852 65.342C17.828 65.534 17.738 65.708 17.582 65.864C17.426 66.02 17.246 66.098 17.042 66.098H14.792V68.402H19.4C19.4 68.162 19.49 67.946 19.67 67.754C19.85 67.55 20.066 67.448 20.318 67.448C20.558 67.448 20.762 67.538 20.93 67.718C21.11 67.886 21.2 68.09 21.2 68.33C21.2 68.57 21.116 68.762 20.948 68.906C20.78 69.05 20.576 69.122 20.336 69.122H14.792V74.216H19.526C19.526 74.192 19.52 74.162 19.508 74.126C19.508 74.102 19.508 74.078 19.508 74.054C19.508 73.778 19.61 73.544 19.814 73.352C20.03 73.16 20.27 73.064 20.534 73.064C20.798 73.064 21.032 73.166 21.236 73.37C21.44 73.562 21.542 73.79 21.542 74.054C21.542 74.318 21.434 74.54 21.218 74.72C21.014 74.9 20.786 74.99 20.534 74.99H6.566V74.216H13.01V69.122H6.818V68.402H13.01V66.098H9.734V65.342H16.142C16.13 65.318 16.124 65.288 16.124 65.252C16.124 65.06 16.172 64.886 16.268 64.73C16.376 64.562 16.526 64.454 16.718 64.406C16.262 63.914 15.818 63.416 15.386 62.912C14.966 62.396 14.582 61.856 14.234 61.292C14.138 61.328 13.976 61.406 13.748 61.526C13.532 61.634 13.316 61.754 13.1 61.886C12.896 62.006 12.764 62.102 12.704 62.174C12.644 62.246 12.584 62.324 12.524 62.408C12.464 62.48 12.404 62.552 12.344 62.624C12.212 62.78 12.08 62.936 11.948 63.092C11.828 63.236 11.702 63.38 11.57 63.524C10.766 64.424 9.902 65.228 8.978 65.936C8.054 66.632 7.022 67.19 5.882 67.61C5.858 67.622 5.828 67.634 5.792 67.646C5.756 67.658 5.72 67.664 5.684 67.664C5.588 67.664 5.54 67.634 5.54 67.574C5.54 67.514 5.558 67.466 5.594 67.43C5.642 67.394 5.684 67.358 5.72 67.322C6.212 66.902 6.698 66.482 7.178 66.062C7.658 65.63 8.108 65.168 8.528 64.676C9.236 63.848 9.89 62.966 10.49 62.03C11.09 61.082 11.594 60.098 12.002 59.078L13.892 59.618C14.048 59.678 14.126 59.768 14.126 59.888C14.126 59.96 14.048 60.104 13.892 60.32C13.748 60.524 13.592 60.734 13.424 60.95C13.256 61.154 13.142 61.292 13.082 61.364C13.166 61.316 13.322 61.226 13.55 61.094C13.79 60.95 14.042 60.8 14.306 60.644C14.582 60.488 14.828 60.356 15.044 60.248C15.26 60.128 15.398 60.068 15.458 60.068C15.638 60.068 15.752 60.104 15.8 60.176C15.848 60.236 15.902 60.332 15.962 60.464C16.226 61.04 16.532 61.604 16.88 62.156C17.24 62.696 17.624 63.212 18.032 63.704C18.416 64.16 18.866 64.598 19.382 65.018C19.91 65.438 20.432 65.804 20.948 66.116C20.948 66.092 20.942 66.074 20.93 66.062C20.93 66.038 20.93 66.02 20.93 66.008C20.93 65.78 21.02 65.576 21.2 65.396C21.38 65.204 21.584 65.108 21.812 65.108C22.052 65.108 22.256 65.204 22.424 65.396C22.592 65.576 22.676 65.78 22.676 66.008ZM13.37 91.196C13.37 91.316 13.316 91.4 13.208 91.448C13.1 91.484 12.998 91.502 12.902 91.502C12.83 91.502 12.686 91.466 12.47 91.394C12.266 91.322 12.05 91.25 11.822 91.178C11.606 91.094 11.444 91.034 11.336 90.998C11.024 90.89 10.706 90.788 10.382 90.692C10.058 90.596 9.728 90.524 9.392 90.476C9.332 90.464 9.218 90.446 9.05 90.422C8.894 90.398 8.744 90.362 8.6 90.314C8.468 90.266 8.402 90.2 8.402 90.116C8.402 90.056 8.468 89.924 8.6 89.72C8.744 89.516 8.888 89.312 9.032 89.108C9.188 88.904 9.29 88.772 9.338 88.712C10.094 88.868 10.814 89.102 11.498 89.414C12.194 89.726 12.776 90.206 13.244 90.854C13.328 90.974 13.37 91.088 13.37 91.196ZM20.66 87.794C20.66 88.022 20.618 88.31 20.534 88.658C20.45 88.994 20.342 89.348 20.21 89.72C20.078 90.08 19.94 90.428 19.796 90.764C19.652 91.088 19.526 91.358 19.418 91.574C18.542 93.278 17.318 94.658 15.746 95.714C14.834 96.314 13.82 96.812 12.704 97.208C11.588 97.604 10.484 97.88 9.392 98.036L8.492 96.416C9.128 96.332 9.818 96.194 10.562 96.002C11.306 95.81 12.038 95.576 12.758 95.3C13.478 95.024 14.114 94.73 14.666 94.418C15.746 93.806 16.724 92.996 17.6 91.988C18.488 90.98 19.178 89.912 19.67 88.784L19.58 88.802C19.316 88.814 19.064 88.736 18.824 88.568C18.584 88.388 18.464 88.148 18.464 87.848C18.464 87.548 18.566 87.296 18.77 87.092C18.974 86.876 19.226 86.768 19.526 86.768C19.814 86.768 20.072 86.864 20.3 87.056C20.54 87.236 20.66 87.482 20.66 87.794ZM14.234 88.046C14.234 88.166 14.18 88.25 14.072 88.298C13.976 88.334 13.88 88.352 13.784 88.352C13.664 88.352 13.478 88.316 13.226 88.244C12.974 88.16 12.698 88.064 12.398 87.956C12.098 87.848 11.81 87.746 11.534 87.65C11.258 87.554 11.036 87.488 10.868 87.452C10.772 87.428 10.67 87.41 10.562 87.398C10.454 87.374 10.346 87.356 10.238 87.344C10.166 87.332 10.052 87.32 9.896 87.308C9.74 87.284 9.596 87.248 9.464 87.2C9.332 87.152 9.266 87.08 9.266 86.984C9.266 86.924 9.332 86.798 9.464 86.606C9.596 86.402 9.734 86.198 9.878 85.994C10.034 85.79 10.136 85.658 10.184 85.598C10.928 85.73 11.66 85.952 12.38 86.264C13.1 86.576 13.676 87.056 14.108 87.704C14.132 87.752 14.156 87.806 14.18 87.866C14.216 87.926 14.234 87.986 14.234 88.046ZM21.56 120.668C21.56 120.98 21.434 121.226 21.182 121.406C20.942 121.574 20.678 121.658 20.39 121.658C20.174 121.658 19.946 121.622 19.706 121.55C19.466 121.466 19.244 121.382 19.04 121.298C18.452 121.034 17.876 120.68 17.312 120.236C16.748 119.792 16.208 119.312 15.692 118.796C15.188 118.268 14.732 117.764 14.324 117.284C13.964 117.728 13.58 118.154 13.172 118.562C12.776 118.958 12.35 119.33 11.894 119.678C11.522 119.966 11.06 120.272 10.508 120.596C9.968 120.92 9.404 121.196 8.816 121.424C8.24 121.64 7.712 121.748 7.232 121.748C6.968 121.748 6.734 121.646 6.53 121.442C6.338 121.238 6.242 121.004 6.242 120.74C6.242 120.428 6.35 120.17 6.566 119.966C6.794 119.75 7.058 119.642 7.358 119.642C7.682 119.642 7.958 119.768 8.186 120.02C8.414 120.26 8.51 120.542 8.474 120.866C9.146 120.434 9.788 119.936 10.4 119.372C11.012 118.796 11.564 118.202 12.056 117.59C12.512 117.026 12.944 116.378 13.352 115.646C13.76 114.902 14.114 114.14 14.414 113.36C14.726 112.58 14.942 111.836 15.062 111.128H9.014V110.264H17.564C17.372 111.188 17.108 112.094 16.772 112.982C16.436 113.858 16.022 114.698 15.53 115.502C15.806 116.018 16.16 116.588 16.592 117.212C17.024 117.836 17.486 118.442 17.978 119.03C18.47 119.618 18.926 120.122 19.346 120.542C19.406 120.302 19.526 120.098 19.706 119.93C19.898 119.75 20.126 119.66 20.39 119.66C20.678 119.66 20.942 119.75 21.182 119.93C21.434 120.11 21.56 120.356 21.56 120.668ZM21.128 137.378C21.128 137.714 20.996 137.966 20.732 138.134C20.48 138.302 20.204 138.386 19.904 138.386H15.278C15.23 139.07 15.116 139.772 14.936 140.492C14.768 141.212 14.528 141.878 14.216 142.49C13.724 143.474 13.106 144.272 12.362 144.884C11.63 145.484 10.748 145.97 9.716 146.342C9.5 146.426 9.278 146.498 9.05 146.558C8.822 146.618 8.594 146.648 8.366 146.648C8.09 146.648 7.832 146.558 7.592 146.378C7.352 146.21 7.232 145.976 7.232 145.676C7.232 145.364 7.346 145.106 7.574 144.902C7.802 144.698 8.066 144.596 8.366 144.596C8.654 144.596 8.906 144.704 9.122 144.92C9.35 145.124 9.47 145.364 9.482 145.64C10.262 145.16 10.916 144.518 11.444 143.714C11.984 142.91 12.392 142.04 12.668 141.104C12.956 140.168 13.106 139.262 13.118 138.386H7.124V137.486H18.896C18.896 137.462 18.896 137.444 18.896 137.432C18.896 137.408 18.896 137.39 18.896 137.378C18.896 137.066 19.01 136.808 19.238 136.604C19.466 136.4 19.73 136.298 20.03 136.298C20.33 136.298 20.588 136.406 20.804 136.622C21.02 136.826 21.128 137.078 21.128 137.378ZM19.202 133.634C19.202 133.922 19.088 134.162 18.86 134.354C18.632 134.534 18.38 134.624 18.104 134.624H8.834V133.742H16.97C16.958 133.73 16.952 133.706 16.952 133.67C16.952 133.358 17.066 133.1 17.294 132.896C17.522 132.692 17.786 132.59 18.086 132.59C18.374 132.59 18.632 132.686 18.86 132.878C19.088 133.07 19.202 133.322 19.202 133.634ZM18.266 166.292C18.266 166.316 18.254 166.34 18.23 166.364C18.218 166.388 18.206 166.412 18.194 166.436C17.606 166.88 17.06 167.228 16.556 167.48C16.052 167.72 15.434 167.912 14.702 168.056C13.61 168.272 12.506 168.428 11.39 168.524C10.274 168.62 9.158 168.692 8.042 168.74L7.79 167.516C8.138 167.36 8.408 167.198 8.6 167.03C8.804 166.85 9.002 166.598 9.194 166.274C9.626 165.59 9.98 164.87 10.256 164.114C10.544 163.358 10.814 162.596 11.066 161.828C11.306 161.12 11.534 160.406 11.75 159.686C11.966 158.966 12.17 158.24 12.362 157.508L14.522 158.048C14.33 158.732 14.084 159.398 13.784 160.046C13.484 160.694 13.178 161.342 12.866 161.99C12.434 162.866 11.984 163.736 11.516 164.6C11.06 165.464 10.568 166.304 10.04 167.12C10.856 167.096 11.678 167.066 12.506 167.03C13.334 166.994 14.156 166.916 14.972 166.796C15.464 166.712 15.944 166.61 16.412 166.49C16.88 166.358 17.348 166.232 17.816 166.112C17.84 166.1 17.888 166.094 17.96 166.094C18.02 166.094 18.086 166.106 18.158 166.13C18.23 166.154 18.266 166.208 18.266 166.292ZM20.57 168.398C20.57 168.746 20.462 169.022 20.246 169.226C20.03 169.43 19.748 169.532 19.4 169.532C19.112 169.532 18.878 169.448 18.698 169.28C18.53 169.112 18.446 168.884 18.446 168.596C18.446 168.356 18.536 168.158 18.716 168.002C18.908 167.834 19.124 167.75 19.364 167.75C19.424 167.75 19.478 167.75 19.526 167.75C19.586 167.75 19.64 167.762 19.688 167.786C19.472 167.234 19.13 166.664 18.662 166.076C18.206 165.488 17.708 164.93 17.168 164.402C16.64 163.862 16.154 163.4 15.71 163.016L17.114 161.828C17.51 162.212 17.912 162.662 18.32 163.178C18.728 163.694 19.1 164.246 19.436 164.834C19.784 165.422 20.06 166.022 20.264 166.634C20.468 167.234 20.57 167.822 20.57 168.398Z" fill="white"/>
<rect x="22" width="30" height="0.999999" transform="rotate(90 22 0)" fill="#A4A4A4"/>
</svg>
