<svg width="37" height="149" viewBox="0 0 37 149" fill="none" xmlns="http://www.w3.org/2000/svg">
<path d="M13.3564 131.5C16.7755 131.5 19.8067 132.47 21.9424 133.96C24.0829 135.454 25.2117 137.373 25.2119 139.32C25.2119 141.268 24.0831 143.188 21.9424 144.682C19.8067 146.172 16.7755 147.142 13.3564 147.142C9.93739 147.142 6.90626 146.172 4.77051 144.682C2.6297 143.188 1.5 141.268 1.5 139.32C1.50017 137.373 2.62986 135.454 4.77051 133.96C6.90626 132.47 9.93736 131.5 13.3564 131.5Z" stroke="#241A08" stroke-width="3"/>
<mask id="path-2-inside-1_1274_1845" fill="white">
<ellipse cx="9.32252" cy="139.321" rx="1.26002" ry="2.45283"/>
</mask>
<ellipse cx="9.32252" cy="139.321" rx="1.26002" ry="2.45283" fill="white"/>
<path d="M10.5825 139.321H8.58253C8.58253 139.747 8.48943 140.034 8.43448 140.141C8.40761 140.193 8.4269 140.131 8.5417 140.037C8.66955 139.931 8.93923 139.773 9.32252 139.773V141.773V143.773C10.8077 143.773 11.6452 142.645 11.9925 141.969C12.3936 141.188 12.5825 140.249 12.5825 139.321H10.5825ZM9.32252 141.773V139.773C9.7058 139.773 9.97548 139.931 10.1033 140.037C10.2181 140.131 10.2374 140.193 10.2106 140.141C10.1556 140.034 10.0625 139.747 10.0625 139.321H8.0625H6.0625C6.0625 140.249 6.25147 141.188 6.65255 141.969C6.99981 142.645 7.83728 143.773 9.32252 143.773V141.773ZM8.0625 139.321H10.0625C10.0625 138.894 10.1556 138.607 10.2106 138.5C10.2374 138.448 10.2181 138.51 10.1033 138.604C9.97548 138.71 9.7058 138.868 9.32252 138.868V136.868V134.868C7.83728 134.868 6.99981 135.996 6.65255 136.672C6.25147 137.453 6.0625 138.392 6.0625 139.321H8.0625ZM9.32252 136.868V138.868C8.93923 138.868 8.66955 138.71 8.5417 138.604C8.4269 138.51 8.40761 138.448 8.43448 138.5C8.48943 138.607 8.58253 138.894 8.58253 139.321H10.5825H12.5825C12.5825 138.392 12.3936 137.453 11.9925 136.672C11.6452 135.996 10.8077 134.868 9.32252 134.868V136.868Z" fill="#241A08" mask="url(#path-2-inside-1_1274_1845)"/>
<mask id="path-4-inside-2_1274_1845" fill="white">
<ellipse cx="17.3889" cy="139.321" rx="1.26002" ry="2.45283"/>
</mask>
<ellipse cx="17.3889" cy="139.321" rx="1.26002" ry="2.45283" fill="white"/>
<path d="M18.6489 139.321H16.6489C16.6489 139.747 16.5558 140.034 16.5009 140.141C16.474 140.193 16.4933 140.131 16.6081 140.037C16.736 139.931 17.0056 139.773 17.3889 139.773V141.773V143.773C18.8742 143.773 19.7116 142.645 20.0589 141.969C20.46 141.188 20.6489 140.249 20.6489 139.321H18.6489ZM17.3889 141.773V139.773C17.7722 139.773 18.0419 139.931 18.1697 140.037C18.2845 140.131 18.3038 140.193 18.277 140.141C18.222 140.034 18.1289 139.747 18.1289 139.321H16.1289H14.1289C14.1289 140.249 14.3179 141.188 14.719 141.969C15.0662 142.645 15.9037 143.773 17.3889 143.773V141.773ZM16.1289 139.321H18.1289C18.1289 138.894 18.222 138.607 18.277 138.5C18.3038 138.448 18.2845 138.51 18.1697 138.604C18.0419 138.71 17.7722 138.868 17.3889 138.868V136.868V134.868C15.9037 134.868 15.0662 135.996 14.719 136.672C14.3179 137.453 14.1289 138.392 14.1289 139.321H16.1289ZM17.3889 136.868V138.868C17.0056 138.868 16.736 138.71 16.6081 138.604C16.4933 138.51 16.474 138.448 16.5009 138.5C16.5558 138.607 16.6489 138.894 16.6489 139.321H18.6489H20.6489C20.6489 138.392 20.46 137.453 20.0589 136.672C19.7116 135.996 18.8742 134.868 17.3889 134.868V136.868Z" fill="#241A08" mask="url(#path-4-inside-2_1274_1845)"/>
<path d="M27.3045 40.02C27.2978 39.92 27.3078 39.8433 27.3345 39.79C27.3611 39.7433 27.4078 39.7 27.4745 39.66C27.6078 39.5867 27.8111 39.4633 28.0845 39.29C28.3645 39.1233 28.6845 38.9233 29.0445 38.69C29.4045 38.4633 29.7845 38.22 30.1845 37.96C30.5845 37.7067 30.9778 37.4533 31.3645 37.2C31.7511 36.9533 32.1045 36.7233 32.4245 36.51C32.7511 36.3033 33.0211 36.1267 33.2345 35.98C33.4545 35.84 33.5878 35.7533 33.6345 35.72C33.6545 35.7067 33.6611 35.6867 33.6545 35.66C33.6545 35.6333 33.6411 35.62 33.6145 35.62L28.9945 35.62C28.4878 35.62 28.1345 35.7033 27.9345 35.87C27.7411 36.0433 27.6445 36.24 27.6445 36.46C27.6445 36.5067 27.6278 36.54 27.5945 36.56C27.5611 36.5867 27.5211 36.6 27.4745 36.6C27.4345 36.6 27.3978 36.5867 27.3645 36.56C27.3311 36.54 27.3145 36.5067 27.3145 36.46C27.3145 36.3933 27.3178 36.2833 27.3245 36.13C27.3378 35.9767 27.3445 35.75 27.3445 35.45C27.3445 35.1033 27.3378 34.8667 27.3245 34.74C27.3178 34.62 27.3145 34.5233 27.3145 34.45C27.3145 34.4033 27.3311 34.3667 27.3645 34.34C27.3978 34.32 27.4345 34.31 27.4745 34.31C27.5211 34.31 27.5611 34.32 27.5945 34.34C27.6278 34.3667 27.6445 34.4033 27.6445 34.45C27.6445 34.6833 27.7411 34.8733 27.9345 35.02C28.1345 35.1667 28.4845 35.24 28.9845 35.24L33.5545 35.24C33.8611 35.24 34.0511 35.1667 34.1245 35.02C34.2045 34.88 34.2445 34.71 34.2445 34.51C34.2445 34.4633 34.2611 34.4267 34.2945 34.4C34.3278 34.38 34.3678 34.37 34.4145 34.37C34.4545 34.37 34.4911 34.38 34.5245 34.4C34.5578 34.4267 34.5745 34.4633 34.5745 34.51C34.5745 34.5633 34.5711 34.6867 34.5645 34.88C34.5578 35.0733 34.5545 35.4167 34.5545 35.91C34.5545 36.0233 34.5345 36.11 34.4945 36.17C34.4611 36.23 34.4045 36.2833 34.3245 36.33C34.2711 36.3633 34.1411 36.4467 33.9345 36.58C33.7278 36.7133 33.4678 36.88 33.1545 37.08C32.8478 37.28 32.5145 37.4967 32.1545 37.73C31.7945 37.97 31.4345 38.2067 31.0745 38.44C30.7145 38.6733 30.3811 38.89 30.0745 39.09C29.7678 39.2967 29.5111 39.4667 29.3045 39.6C29.1045 39.74 28.9811 39.8267 28.9345 39.86C28.9078 39.8867 28.8978 39.9133 28.9045 39.94C28.9111 39.9667 28.9311 39.98 28.9645 39.98L32.8845 39.98C33.3778 39.98 33.7278 39.9033 33.9345 39.75C34.1411 39.5967 34.2445 39.4133 34.2445 39.2C34.2445 39.1533 34.2611 39.1167 34.2945 39.09C34.3278 39.07 34.3678 39.06 34.4145 39.06C34.4545 39.06 34.4911 39.07 34.5245 39.09C34.5578 39.1167 34.5745 39.1533 34.5745 39.2C34.5745 39.2667 34.5711 39.3633 34.5645 39.49C34.5578 39.6233 34.5545 39.8433 34.5545 40.15C34.5545 40.43 34.5578 40.6367 34.5645 40.77C34.5711 40.9033 34.5745 41.0033 34.5745 41.07C34.5745 41.11 34.5578 41.1433 34.5245 41.17C34.4911 41.1967 34.4545 41.21 34.4145 41.21C34.3678 41.21 34.3278 41.1967 34.2945 41.17C34.2611 41.1433 34.2445 41.11 34.2445 41.07C34.2445 40.97 34.2011 40.8633 34.1145 40.75C34.0278 40.6433 33.8845 40.55 33.6845 40.47C33.4845 40.3967 33.2145 40.36 32.8745 40.36L29.1245 40.36C29.0578 40.36 28.9945 40.36 28.9345 40.36C28.8811 40.36 28.8311 40.36 28.7845 40.36C28.5511 40.36 28.3511 40.36 28.1845 40.36C28.0178 40.3667 27.8211 40.3767 27.5945 40.39C27.5078 40.3967 27.4378 40.3533 27.3845 40.26C27.3311 40.1733 27.3045 40.0933 27.3045 40.02ZM27.1945 45.867C27.1945 45.4337 27.2911 45.0504 27.4845 44.717C27.6778 44.3904 27.9378 44.137 28.2645 43.957C28.5978 43.777 28.9745 43.687 29.3945 43.687C29.6878 43.687 29.9711 43.737 30.2445 43.837C30.5245 43.9437 30.7745 44.0904 30.9945 44.277C31.2211 44.4704 31.4011 44.697 31.5345 44.957C31.6678 45.217 31.7345 45.5004 31.7345 45.807C31.7345 46.1337 31.6645 46.4137 31.5245 46.647C31.3845 46.8804 31.2045 47.0737 30.9845 47.227C30.7711 47.3804 30.5445 47.4937 30.3045 47.567C30.0711 47.6404 29.8578 47.677 29.6645 47.677C29.5645 47.677 29.5145 47.617 29.5145 47.497L29.5145 44.807C29.5145 44.7404 29.5045 44.697 29.4845 44.677C29.4645 44.657 29.4278 44.647 29.3745 44.647C28.9345 44.647 28.5878 44.707 28.3345 44.827C28.0811 44.947 27.9011 45.107 27.7945 45.307C27.6878 45.507 27.6345 45.7237 27.6345 45.957C27.6345 46.197 27.6778 46.407 27.7645 46.587C27.8511 46.767 27.9511 46.917 28.0645 47.037C28.1778 47.157 28.2778 47.2504 28.3645 47.317C28.4578 47.3837 28.4711 47.4637 28.4045 47.557C28.3511 47.6437 28.2778 47.6604 28.1845 47.607C28.0711 47.5404 27.9345 47.4304 27.7745 47.277C27.6211 47.1304 27.4845 46.9404 27.3645 46.707C27.2511 46.4737 27.1945 46.1937 27.1945 45.867ZM29.9045 44.837L29.9045 46.507C29.9045 46.6337 29.9611 46.697 30.0745 46.697C30.2611 46.697 30.4578 46.6704 30.6645 46.617C30.8711 46.5637 31.0445 46.4704 31.1845 46.337C31.3311 46.2037 31.4045 46.0204 31.4045 45.787C31.4045 45.587 31.3378 45.4137 31.2045 45.267C31.0711 45.127 30.9011 45.0104 30.6945 44.917C30.4878 44.8304 30.2678 44.7637 30.0345 44.717C29.9478 44.697 29.9045 44.737 29.9045 44.837ZM27.1945 51.9159C27.1945 51.7826 27.2645 51.6926 27.4045 51.6459C27.4445 51.6326 27.5445 51.6026 27.7045 51.5559C27.8711 51.5093 28.0711 51.4526 28.3045 51.3859C28.5445 51.3259 28.7945 51.2593 29.0545 51.1859C29.3145 51.1126 29.5645 51.0393 29.8045 50.9659C30.0445 50.8993 30.2511 50.8426 30.4245 50.7959C30.5978 50.7493 30.7111 50.7159 30.7645 50.6959C30.9578 50.6359 31.0911 50.5793 31.1645 50.5259C31.2445 50.4726 31.2845 50.3826 31.2845 50.2559C31.2845 50.2093 31.3011 50.1726 31.3345 50.1459C31.3678 50.1259 31.4078 50.1159 31.4545 50.1159C31.4945 50.1159 31.5311 50.1259 31.5645 50.1459C31.5978 50.1726 31.6145 50.2093 31.6145 50.2559C31.6145 50.3226 31.6078 50.4193 31.5945 50.5459C31.5878 50.6726 31.5845 50.8159 31.5845 50.9759C31.5845 51.1359 31.5878 51.2859 31.5945 51.4259C31.6078 51.5659 31.6145 51.6693 31.6145 51.7359C31.6145 51.7826 31.5978 51.8159 31.5645 51.8359C31.5311 51.8626 31.4945 51.8759 31.4545 51.8759C31.4078 51.8759 31.3678 51.8626 31.3345 51.8359C31.3011 51.8159 31.2845 51.7826 31.2845 51.7359C31.2845 51.6226 31.2545 51.5393 31.1945 51.4859C31.1345 51.4393 31.0578 51.4293 30.9645 51.4559C30.9178 51.4693 30.8045 51.4993 30.6245 51.5459C30.4445 51.5926 30.2345 51.6459 29.9945 51.7059C29.7611 51.7726 29.5278 51.8359 29.2945 51.8959C29.0678 51.9559 28.8711 52.0059 28.7045 52.0459C28.5445 52.0926 28.4545 52.1193 28.4345 52.1259C28.3945 52.1393 28.3745 52.1593 28.3745 52.1859C28.3745 52.2193 28.3878 52.2393 28.4145 52.2459C28.4611 52.2593 28.5578 52.2893 28.7045 52.3359C28.8511 52.3893 29.0245 52.4459 29.2245 52.5059C29.4245 52.5726 29.6211 52.6359 29.8145 52.6959C30.0145 52.7559 30.1878 52.8093 30.3345 52.8559C30.4878 52.9093 30.5878 52.9426 30.6345 52.9559C30.8678 53.0293 31.0345 53.0226 31.1345 52.9359C31.2345 52.8559 31.2845 52.7459 31.2845 52.6059C31.2845 52.5593 31.3011 52.5226 31.3345 52.4959C31.3678 52.4759 31.4078 52.4659 31.4545 52.4659C31.4945 52.4659 31.5311 52.4759 31.5645 52.4959C31.5978 52.5226 31.6145 52.5593 31.6145 52.6059C31.6145 52.6726 31.6078 52.7626 31.5945 52.8759C31.5878 52.9893 31.5845 53.1259 31.5845 53.2859C31.5845 53.4459 31.5878 53.5926 31.5945 53.7259C31.6078 53.8593 31.6145 53.9593 31.6145 54.0259C31.6145 54.0726 31.5978 54.1059 31.5645 54.1259C31.5311 54.1526 31.4945 54.1659 31.4545 54.1659C31.4078 54.1659 31.3678 54.1526 31.3345 54.1259C31.3011 54.1059 31.2845 54.0726 31.2845 54.0259C31.2845 53.9259 31.2511 53.8593 31.1845 53.8259C31.1178 53.7993 31.0511 53.7959 30.9845 53.8159C30.9311 53.8359 30.8145 53.8759 30.6345 53.9359C30.4545 53.9959 30.2445 54.0626 30.0045 54.1359C29.7711 54.2159 29.5378 54.2926 29.3045 54.3659C29.0711 54.4459 28.8711 54.5126 28.7045 54.5659C28.5445 54.6193 28.4545 54.6493 28.4345 54.6559C28.3945 54.6693 28.3745 54.6859 28.3745 54.7059C28.3745 54.7326 28.3878 54.7493 28.4145 54.7559C28.4545 54.7693 28.5478 54.7959 28.6945 54.8359C28.8411 54.8759 29.0111 54.9226 29.2045 54.9759C29.4045 55.0293 29.6045 55.0826 29.8045 55.1359C30.0045 55.1959 30.1811 55.2459 30.3345 55.2859C30.4878 55.3259 30.5878 55.3526 30.6345 55.3659C30.8678 55.4326 31.0345 55.4193 31.1345 55.3259C31.2345 55.2326 31.2845 55.1126 31.2845 54.9659C31.2845 54.9193 31.3011 54.8826 31.3345 54.8559C31.3678 54.8359 31.4078 54.8259 31.4545 54.8259C31.4945 54.8259 31.5311 54.8359 31.5645 54.8559C31.5978 54.8826 31.6145 54.9193 31.6145 54.9659C31.6145 55.0393 31.6078 55.1326 31.5945 55.2459C31.5878 55.3593 31.5845 55.4959 31.5845 55.6559C31.5845 55.8093 31.5878 55.9326 31.5945 56.0259C31.6078 56.1193 31.6145 56.1993 31.6145 56.2659C31.6145 56.3126 31.5978 56.3459 31.5645 56.3659C31.5311 56.3926 31.4945 56.4059 31.4545 56.4059C31.4078 56.4059 31.3678 56.3926 31.3345 56.3659C31.3011 56.3459 31.2845 56.3126 31.2845 56.2659C31.2845 56.1593 31.2178 56.0459 31.0845 55.9259C30.9578 55.8059 30.7478 55.7026 30.4545 55.6159C30.4078 55.6026 30.2778 55.5659 30.0645 55.5059C29.8578 55.4459 29.6111 55.3759 29.3245 55.2959C29.0445 55.2159 28.7611 55.1359 28.4745 55.0559C28.1945 54.9826 27.9545 54.9159 27.7545 54.8559C27.5545 54.8026 27.4345 54.7693 27.3945 54.7559C27.3278 54.7359 27.2778 54.7059 27.2445 54.6659C27.2111 54.6259 27.1945 54.5626 27.1945 54.4759C27.1945 54.3493 27.2645 54.2626 27.4045 54.2159C27.4511 54.2026 27.5711 54.1626 27.7645 54.0959C27.9578 54.0293 28.1845 53.9526 28.4445 53.8659C28.7111 53.7859 28.9778 53.7026 29.2445 53.6159C29.5111 53.5293 29.7378 53.4526 29.9245 53.3859C30.1178 53.3193 30.2378 53.2793 30.2845 53.2659C30.3245 53.2593 30.3445 53.2393 30.3445 53.2059C30.3445 53.1793 30.3278 53.1593 30.2945 53.1459C30.1678 53.1059 29.9978 53.0493 29.7845 52.9759C29.5711 52.9093 29.3411 52.8359 29.0945 52.7559C28.8478 52.6759 28.6045 52.5959 28.3645 52.5159C28.1311 52.4426 27.9278 52.3759 27.7545 52.3159C27.5811 52.2559 27.4611 52.2159 27.3945 52.1959C27.3278 52.1693 27.2778 52.1359 27.2445 52.0959C27.2111 52.0626 27.1945 52.0026 27.1945 51.9159ZM27.1945 60.7748C27.1945 60.5548 27.2245 60.3414 27.2845 60.1348C27.3378 59.9348 27.4011 59.7581 27.4745 59.6048C27.5411 59.4581 27.5411 59.3381 27.4745 59.2448C27.4545 59.2181 27.4278 59.1881 27.3945 59.1548C27.3611 59.1214 27.3311 59.0914 27.3045 59.0648C27.2445 59.0048 27.2278 58.9414 27.2545 58.8748C27.2745 58.8148 27.3278 58.7848 27.4145 58.7848L28.6045 58.7848C28.6845 58.7848 28.7311 58.8181 28.7445 58.8848C28.7578 58.9581 28.7345 59.0148 28.6745 59.0548C28.3078 59.2814 28.0378 59.5314 27.8645 59.8048C27.6978 60.0848 27.6145 60.4148 27.6145 60.7948C27.6145 61.0881 27.6778 61.3348 27.8045 61.5348C27.9311 61.7414 28.1145 61.8448 28.3545 61.8448C28.5345 61.8448 28.6711 61.7714 28.7645 61.6248C28.8578 61.4848 28.9311 61.3014 28.9845 61.0748C29.0378 60.8481 29.0911 60.6081 29.1445 60.3548C29.2045 60.1081 29.2811 59.8714 29.3745 59.6448C29.4745 59.4181 29.6111 59.2314 29.7845 59.0848C29.9645 58.9448 30.2045 58.8748 30.5045 58.8748C30.7111 58.8748 30.9078 58.9248 31.0945 59.0248C31.2811 59.1314 31.4345 59.2948 31.5545 59.5148C31.6745 59.7414 31.7345 60.0281 31.7345 60.3748C31.7345 60.5814 31.7111 60.7714 31.6645 60.9448C31.6178 61.1248 31.5645 61.2881 31.5045 61.4348C31.4378 61.6148 31.4278 61.7348 31.4745 61.7948C31.4945 61.8214 31.5178 61.8514 31.5445 61.8848C31.5778 61.9248 31.6078 61.9581 31.6345 61.9848C31.6745 62.0381 31.6878 62.0881 31.6745 62.1348C31.6611 62.1814 31.6145 62.2048 31.5345 62.2048L30.4845 62.2048C30.4045 62.2048 30.3545 62.1681 30.3345 62.0948C30.3211 62.0214 30.3478 61.9714 30.4145 61.9448C30.7745 61.7981 31.0211 61.5914 31.1545 61.3248C31.2945 61.0648 31.3645 60.7948 31.3645 60.5148C31.3645 60.1948 31.2911 59.9514 31.1445 59.7848C31.0045 59.6248 30.8478 59.5448 30.6745 59.5448C30.5078 59.5448 30.3811 59.6148 30.2945 59.7548C30.2078 59.9014 30.1378 60.0848 30.0845 60.3048C30.0378 60.5314 29.9878 60.7681 29.9345 61.0148C29.8878 61.2681 29.8145 61.5048 29.7145 61.7248C29.6211 61.9514 29.4845 62.1348 29.3045 62.2748C29.1245 62.4214 28.8778 62.4948 28.5645 62.4948C28.1845 62.4948 27.8611 62.3414 27.5945 62.0348C27.3278 61.7348 27.1945 61.3148 27.1945 60.7748Z" fill="#A4A4A4"/>
<path d="M11.5485 41.612C11.5485 41.828 11.4585 42.014 11.2785 42.17C11.1105 42.326 10.9185 42.404 10.7025 42.404H8.07445V44.132H9.19045C9.20245 43.892 9.28645 43.694 9.44245 43.538C9.59845 43.382 9.79045 43.304 10.0185 43.304C10.2345 43.304 10.4265 43.376 10.5945 43.52C10.7625 43.664 10.8465 43.85 10.8465 44.078C10.8465 44.306 10.7745 44.498 10.6305 44.654C10.4865 44.798 10.2945 44.87 10.0545 44.87H8.07445V51.296H6.47245L6.52645 46.454C6.09445 47.162 5.54245 47.846 4.87045 48.506C4.21045 49.154 3.50245 49.664 2.74645 50.036C2.67445 50.072 2.60845 50.09 2.54845 50.09C2.46445 50.09 2.42245 50.06 2.42245 50C2.42245 49.964 2.43445 49.934 2.45845 49.91C2.49445 49.874 2.52445 49.844 2.54845 49.82C2.96845 49.424 3.38245 48.95 3.79045 48.398C4.21045 47.834 4.58245 47.246 4.90645 46.634C5.24245 46.01 5.48245 45.422 5.62645 44.87H3.48445V44.132H6.49045V42.404H3.39445V41.648H7.53445C7.69045 41.168 7.83445 40.688 7.96645 40.208C8.11045 39.728 8.24245 39.248 8.36245 38.768C8.63845 38.852 8.90845 38.93 9.17245 39.002C9.43645 39.074 9.70045 39.158 9.96445 39.254C10.0245 39.266 10.0665 39.284 10.0905 39.308C10.1145 39.332 10.1265 39.374 10.1265 39.434C10.1265 39.506 10.0365 39.65 9.85645 39.866C9.67645 40.07 9.46045 40.298 9.20845 40.55C8.95645 40.79 8.71645 41.018 8.48845 41.234C8.27245 41.438 8.12245 41.576 8.03845 41.648H9.80245C9.81445 41.408 9.89845 41.198 10.0545 41.018C10.2225 40.838 10.4325 40.748 10.6845 40.748C10.9125 40.748 11.1105 40.838 11.2785 41.018C11.4585 41.186 11.5485 41.384 11.5485 41.612ZM10.7925 48.002C10.7925 48.146 10.7265 48.218 10.5945 48.218C10.4985 48.218 10.3425 48.146 10.1265 48.002C9.91045 47.846 9.67645 47.666 9.42445 47.462C9.18445 47.258 8.95645 47.066 8.74045 46.886C8.53645 46.694 8.38645 46.556 8.29045 46.472L9.55045 45.68C9.59845 45.764 9.68845 45.92 9.82045 46.148C9.95245 46.364 10.0905 46.61 10.2345 46.886C10.3905 47.15 10.5225 47.39 10.6305 47.606C10.7385 47.81 10.7925 47.942 10.7925 48.002ZM6.49045 40.316C6.49045 40.388 6.49045 40.514 6.49045 40.694C6.50245 40.862 6.49045 41.018 6.45445 41.162C6.41845 41.306 6.33445 41.378 6.20245 41.378C6.13045 41.378 6.06445 41.354 6.00445 41.306C5.95645 41.258 5.90845 41.21 5.86045 41.162C5.59645 40.862 5.33245 40.568 5.06845 40.28C4.81645 39.98 4.55845 39.686 4.29445 39.398C4.36645 39.374 4.49245 39.332 4.67245 39.272C4.85245 39.2 5.04445 39.134 5.24845 39.074C5.46445 39.002 5.65645 38.942 5.82445 38.894C6.00445 38.846 6.11845 38.822 6.16645 38.822C6.32245 38.822 6.41245 38.918 6.43645 39.11C6.46045 39.302 6.47245 39.5 6.47245 39.704C6.48445 39.908 6.49045 40.112 6.49045 40.316ZM11.1885 37.58C11.1885 37.808 11.0925 38.006 10.9005 38.174C10.7085 38.342 10.4985 38.426 10.2705 38.426H3.59245V37.67H6.74245C6.62245 37.25 6.50845 36.836 6.40045 36.428C6.30445 36.008 6.20845 35.594 6.11245 35.186H6.88645C7.12645 35.186 7.36645 35.192 7.60645 35.204C7.84645 35.216 8.08045 35.246 8.30845 35.294C8.41645 35.306 8.50645 35.336 8.57845 35.384C8.65045 35.42 8.68645 35.504 8.68645 35.636C8.68645 35.768 8.62645 35.972 8.50645 36.248C8.38645 36.512 8.25445 36.782 8.11045 37.058C7.96645 37.334 7.85245 37.538 7.76845 37.67H9.40645C9.40645 37.646 9.40045 37.628 9.38845 37.616C9.38845 37.604 9.38845 37.592 9.38845 37.58C9.38845 37.34 9.47845 37.13 9.65845 36.95C9.85045 36.758 10.0665 36.662 10.3065 36.662C10.5465 36.662 10.7505 36.758 10.9185 36.95C11.0985 37.13 11.1885 37.34 11.1885 37.58ZM19.8105 41.432C19.8105 41.672 19.7205 41.894 19.5405 42.098C19.3605 42.29 19.1445 42.386 18.8925 42.386H17.0565V51.368H15.3825V42.386H13.8525C13.8165 43.322 13.7385 44.18 13.6185 44.96C13.4985 45.74 13.2885 46.46 12.9885 47.12C12.7005 47.768 12.2865 48.368 11.7465 48.92C11.2065 49.46 10.4925 49.97 9.60445 50.45C9.55645 50.474 9.50845 50.486 9.46045 50.486C9.42445 50.486 9.38245 50.474 9.33445 50.45C9.29845 50.438 9.28045 50.408 9.28045 50.36C9.28045 50.312 9.31645 50.252 9.38845 50.18C10.0485 49.544 10.5645 48.932 10.9365 48.344C11.3205 47.744 11.6025 47.126 11.7825 46.49C11.9625 45.854 12.0765 45.176 12.1245 44.456C12.1845 43.736 12.2145 42.944 12.2145 42.08C12.2145 41.264 12.2025 40.454 12.1785 39.65C12.1545 38.834 12.1305 38.024 12.1065 37.22L13.7985 37.418C14.3985 37.154 14.9805 36.86 15.5445 36.536C16.1205 36.2 16.6845 35.852 17.2365 35.492C17.2965 35.528 17.4165 35.612 17.5965 35.744C17.7765 35.864 17.9685 36.002 18.1725 36.158C18.3885 36.314 18.5685 36.458 18.7125 36.59C18.8685 36.71 18.9465 36.8 18.9465 36.86C18.9465 36.98 18.8985 37.064 18.8025 37.112C18.7185 37.16 18.6105 37.196 18.4785 37.22C18.3465 37.232 18.2325 37.25 18.1365 37.274C17.4285 37.406 16.7145 37.52 15.9945 37.616C15.2865 37.7 14.5665 37.742 13.8345 37.742C13.8345 38.402 13.8405 39.062 13.8525 39.722C13.8645 40.382 13.8645 41.042 13.8525 41.702H17.8665C17.8545 41.654 17.8425 41.612 17.8305 41.576C17.8305 41.528 17.8305 41.48 17.8305 41.432C17.8305 41.168 17.9265 40.934 18.1185 40.73C18.3225 40.514 18.5565 40.406 18.8205 40.406C19.0965 40.406 19.3305 40.514 19.5225 40.73C19.7145 40.934 19.8105 41.168 19.8105 41.432ZM15.5805 68.924H9.31645V70.238H13.1505C13.1625 70.07 13.2285 69.926 13.3485 69.806C13.4805 69.674 13.6305 69.608 13.7985 69.608C13.9905 69.608 14.1525 69.674 14.2845 69.806C14.4285 69.938 14.5005 70.094 14.5005 70.274C14.5005 70.478 14.4285 70.64 14.2845 70.76C14.1525 70.88 13.9845 70.94 13.7805 70.94H9.31645V72.182H13.1505C13.1625 72.014 13.2285 71.864 13.3485 71.732C13.4805 71.588 13.6305 71.516 13.7985 71.516C13.9785 71.516 14.1405 71.582 14.2845 71.714C14.4285 71.846 14.5005 72.002 14.5005 72.182C14.5005 72.362 14.4405 72.524 14.3205 72.668C14.2005 72.8 14.0445 72.866 13.8525 72.866H9.31645V74.378H14.3385C14.7585 74.378 15.0705 74.228 15.2745 73.928C15.4785 73.616 15.5805 73.274 15.5805 72.902V68.924ZM19.7385 65.702C19.7385 65.894 19.6605 66.08 19.5045 66.26C19.3485 66.428 19.1685 66.512 18.9645 66.512H9.80245C9.64645 66.8 9.49045 67.088 9.33445 67.376C9.19045 67.664 9.03445 67.952 8.86645 68.24L17.3265 68.222V72.38C17.3265 73.364 17.0865 74.072 16.6065 74.504C16.1265 74.936 15.4065 75.152 14.4465 75.152H7.84045V69.806C7.48045 70.334 7.04245 70.88 6.52645 71.444C6.02245 71.996 5.47045 72.5 4.87045 72.956C4.28245 73.412 3.68245 73.76 3.07045 74C2.99845 74.024 2.93245 74.036 2.87245 74.036C2.80045 74.036 2.76445 74.012 2.76445 73.964C2.76445 73.928 2.77645 73.898 2.80045 73.874C2.83645 73.838 2.86045 73.808 2.87245 73.784C3.97645 72.764 4.94245 71.654 5.77045 70.454C6.59845 69.254 7.23445 67.94 7.67845 66.512H3.48445V65.792H10.4685V64.514H6.02245V63.794H10.4685V62.372H4.40245V61.652H8.84845C8.26045 60.992 7.69645 60.302 7.15645 59.582C7.24045 59.558 7.37845 59.516 7.57045 59.456C7.76245 59.384 7.96645 59.312 8.18245 59.24C8.41045 59.168 8.61445 59.108 8.79445 59.06C8.98645 59 9.11245 58.97 9.17245 58.97C9.26845 58.97 9.33445 59.018 9.37045 59.114C9.39445 59.186 9.42445 59.336 9.46045 59.564C9.49645 59.78 9.53245 60.032 9.56845 60.32C9.60445 60.596 9.63445 60.86 9.65845 61.112C9.69445 61.364 9.71845 61.544 9.73045 61.652H12.8265C12.9585 61.196 13.0845 60.746 13.2045 60.302C13.3365 59.846 13.4625 59.39 13.5825 58.934C13.8825 59.018 14.1825 59.09 14.4825 59.15C14.7945 59.198 15.0945 59.27 15.3825 59.366C15.4425 59.378 15.5025 59.402 15.5625 59.438C15.6345 59.462 15.6705 59.522 15.6705 59.618C15.6705 59.702 15.5805 59.84 15.4005 60.032C15.2325 60.224 15.0225 60.434 14.7705 60.662C14.5305 60.878 14.3025 61.082 14.0865 61.274C13.8705 61.454 13.7205 61.58 13.6365 61.652H16.7865C16.7865 61.412 16.8645 61.202 17.0205 61.022C17.1765 60.83 17.3805 60.734 17.6325 60.734C17.8485 60.734 18.0465 60.806 18.2265 60.95C18.4065 61.094 18.4965 61.286 18.4965 61.526C18.4965 61.79 18.4065 62 18.2265 62.156C18.0585 62.3 17.8545 62.372 17.6145 62.372H12.1785V63.794H15.0405C15.0405 63.554 15.1245 63.344 15.2925 63.164C15.4605 62.984 15.6645 62.894 15.9045 62.894C16.1205 62.894 16.3185 62.966 16.4985 63.11C16.6785 63.254 16.7685 63.446 16.7685 63.686C16.7685 63.95 16.6785 64.154 16.4985 64.298C16.3305 64.442 16.1205 64.514 15.8685 64.514H12.1785V65.792H18.0285C18.0285 65.78 18.0225 65.768 18.0105 65.756C18.0105 65.732 18.0105 65.714 18.0105 65.702C18.0105 65.474 18.0945 65.276 18.2625 65.108C18.4425 64.928 18.6465 64.838 18.8745 64.838C19.1145 64.838 19.3185 64.928 19.4865 65.108C19.6545 65.276 19.7385 65.474 19.7385 65.702ZM5.24845 87.524C5.24845 87.572 5.23645 87.62 5.21245 87.668C5.08045 88.052 4.89445 88.496 4.65445 89C4.42645 89.492 4.16245 89.966 3.86245 90.422C3.57445 90.866 3.25645 91.208 2.90845 91.448C2.86045 91.472 2.81245 91.496 2.76445 91.52C2.72845 91.544 2.68645 91.556 2.63845 91.556C2.57845 91.556 2.54845 91.526 2.54845 91.466C2.54845 91.442 2.54845 91.418 2.54845 91.394C2.56045 91.37 2.57245 91.346 2.58445 91.322C2.82445 90.614 3.02245 89.9 3.17845 89.18C3.34645 88.448 3.47845 87.716 3.57445 86.984C3.82645 87.044 4.07845 87.098 4.33045 87.146C4.59445 87.194 4.84645 87.266 5.08645 87.362C5.12245 87.374 5.15845 87.392 5.19445 87.416C5.23045 87.44 5.24845 87.476 5.24845 87.524ZM7.19245 99.26H5.48245V83.546H7.19245V99.26ZM18.1545 91.16V97.1C18.1545 97.292 18.1485 97.49 18.1365 97.694C18.1245 97.886 18.0885 98.078 18.0285 98.27C17.9205 98.63 17.7405 98.918 17.4885 99.134C17.2365 99.362 16.9185 99.476 16.5345 99.476C16.2585 99.476 15.9645 99.392 15.6525 99.224C15.3525 99.056 15.0645 98.852 14.7885 98.612C14.5245 98.372 14.3085 98.15 14.1405 97.946C14.0925 97.922 14.0685 97.886 14.0685 97.838C14.0685 97.802 14.0985 97.784 14.1585 97.784C14.1825 97.784 14.2065 97.79 14.2305 97.802C14.2545 97.802 14.2785 97.808 14.3025 97.82C14.5065 97.904 14.7525 97.97 15.0405 98.018C15.3285 98.078 15.5865 98.108 15.8145 98.108C15.8865 98.108 15.9585 98.102 16.0305 98.09C16.1145 98.09 16.1805 98.066 16.2285 98.018C16.3125 97.958 16.3665 97.856 16.3905 97.712C16.4265 97.556 16.4445 97.4 16.4445 97.244C16.4565 97.076 16.4625 96.95 16.4625 96.866C16.4625 96.026 16.4565 95.186 16.4445 94.346C16.4445 93.506 16.4445 92.666 16.4445 91.826H11.3685V93.284H14.5545C14.5785 93.128 14.6505 93.002 14.7705 92.906C14.8905 92.798 15.0285 92.744 15.1845 92.744C15.3525 92.744 15.4965 92.804 15.6165 92.924C15.7485 93.044 15.8145 93.188 15.8145 93.356C15.8145 93.512 15.7545 93.644 15.6345 93.752C15.5145 93.86 15.3765 93.914 15.2205 93.914H11.3685V95.336H14.5545C14.5785 95.204 14.6445 95.084 14.7525 94.976C14.8725 94.868 15.0105 94.814 15.1665 94.814C15.3225 94.814 15.4665 94.868 15.5985 94.976C15.7425 95.084 15.8145 95.222 15.8145 95.39C15.8145 95.606 15.7425 95.762 15.5985 95.858C15.4665 95.942 15.3045 95.984 15.1125 95.984H11.3685V99.422H9.80245V91.16H18.1545ZM20.0805 89.27C20.0805 89.498 19.9965 89.69 19.8285 89.846C19.6605 89.99 19.4685 90.062 19.2525 90.062H8.09245V89.396H9.01045C8.67445 89.084 8.36245 88.742 8.07445 88.37C7.78645 87.986 7.52245 87.602 7.28245 87.218C7.52245 87.086 7.76245 86.96 8.00245 86.84C8.25445 86.72 8.50645 86.6 8.75845 86.48C8.84245 86.78 8.92645 87.086 9.01045 87.398C9.09445 87.698 9.18445 87.998 9.28045 88.298C9.34045 88.454 9.40045 88.604 9.46045 88.748C9.52045 88.892 9.57445 89.036 9.62245 89.18C9.63445 89.216 9.64045 89.252 9.64045 89.288C9.64045 89.324 9.64045 89.36 9.64045 89.396H12.9345V87.902H9.96445V87.182H12.9345V85.742H9.15445V85.04H12.9345V83.186H14.6445V85.04H17.9025C17.9025 84.836 17.9745 84.656 18.1185 84.5C18.2625 84.332 18.4365 84.248 18.6405 84.248C18.8445 84.248 19.0305 84.326 19.1985 84.482C19.3665 84.638 19.4505 84.818 19.4505 85.022C19.4505 85.202 19.3845 85.37 19.2525 85.526C19.1205 85.67 18.9645 85.742 18.7845 85.742H14.6445V87.164H16.8945C16.9185 86.984 16.9965 86.828 17.1285 86.696C17.2605 86.564 17.4165 86.498 17.5965 86.498C17.7885 86.498 17.9505 86.57 18.0825 86.714C18.2265 86.858 18.2985 87.032 18.2985 87.236C18.2985 87.488 18.2145 87.662 18.0465 87.758C17.8785 87.854 17.6805 87.902 17.4525 87.902H14.6445V89.396H18.4425C18.4305 89.372 18.4245 89.33 18.4245 89.27C18.4245 89.054 18.5025 88.862 18.6585 88.694C18.8265 88.514 19.0245 88.424 19.2525 88.424C19.4805 88.424 19.6725 88.514 19.8285 88.694C19.9965 88.862 20.0805 89.054 20.0805 89.27ZM11.5845 115.7C11.5845 115.976 11.4945 116.174 11.3145 116.294C11.1465 116.414 10.9365 116.474 10.6845 116.474H8.16445V118.58H9.60445C9.61645 118.376 9.69445 118.202 9.83845 118.058C9.99445 117.914 10.1685 117.842 10.3605 117.842C10.5645 117.842 10.7445 117.902 10.9005 118.022C11.0565 118.142 11.1345 118.31 11.1345 118.526C11.1345 118.826 11.0385 119.042 10.8465 119.174C10.6665 119.294 10.4385 119.354 10.1625 119.354H8.16445V123.206H6.50845V119.354H3.82645V118.58H6.50845V116.474H2.96245V115.754H10.0725C10.0725 115.526 10.1385 115.328 10.2705 115.16C10.4025 114.992 10.5885 114.908 10.8285 114.908C11.0445 114.908 11.2245 114.992 11.3685 115.16C11.5125 115.316 11.5845 115.496 11.5845 115.7ZM6.29245 115.232C6.29245 115.304 6.26845 115.37 6.22045 115.43C6.18445 115.49 6.12445 115.52 6.04045 115.52C5.99245 115.52 5.94445 115.508 5.89645 115.484C5.86045 115.46 5.82445 115.436 5.78845 115.412C5.50045 115.16 5.21245 114.884 4.92445 114.584C4.63645 114.272 4.36645 113.966 4.11445 113.666C4.21045 113.63 4.37245 113.576 4.60045 113.504C4.82845 113.42 5.05045 113.348 5.26645 113.288C5.49445 113.216 5.63245 113.18 5.68045 113.18C5.76445 113.18 5.83045 113.21 5.87845 113.27C5.90245 113.306 5.93245 113.414 5.96845 113.594C6.01645 113.774 6.06445 113.984 6.11245 114.224C6.16045 114.452 6.20245 114.662 6.23845 114.854C6.27445 115.046 6.29245 115.172 6.29245 115.232ZM10.3785 113.684C10.3785 113.768 10.2765 113.918 10.0725 114.134C9.86845 114.338 9.62845 114.554 9.35245 114.782C9.07645 115.01 8.81245 115.208 8.56045 115.376C8.32045 115.544 8.15245 115.628 8.05645 115.628C7.96045 115.628 7.91245 115.58 7.91245 115.484C7.91245 115.448 7.94245 115.328 8.00245 115.124C8.07445 114.92 8.15845 114.686 8.25445 114.422C8.35045 114.158 8.43445 113.906 8.50645 113.666C8.59045 113.426 8.64445 113.252 8.66845 113.144C8.90845 113.216 9.14845 113.288 9.38845 113.36C9.64045 113.42 9.89245 113.48 10.1445 113.54C10.1805 113.552 10.2285 113.564 10.2885 113.576C10.3485 113.588 10.3785 113.624 10.3785 113.684ZM11.5665 112.082C11.5665 112.37 11.4765 112.574 11.2965 112.694C11.1285 112.802 10.9125 112.856 10.6485 112.856H2.92645V112.118H6.50845V109.994H3.82645V109.238H6.50845V107.168H8.16445V109.238H9.33445C9.33445 109.034 9.40645 108.854 9.55045 108.698C9.70645 108.542 9.89245 108.464 10.1085 108.464C10.3125 108.464 10.4865 108.542 10.6305 108.698C10.7865 108.854 10.8645 109.034 10.8645 109.238C10.8645 109.466 10.7805 109.652 10.6125 109.796C10.4445 109.928 10.2525 109.994 10.0365 109.994H8.16445V112.118H10.0725C10.0725 111.902 10.1385 111.716 10.2705 111.56C10.4145 111.404 10.6005 111.326 10.8285 111.326C11.0445 111.326 11.2185 111.398 11.3505 111.542C11.4945 111.686 11.5665 111.866 11.5665 112.082ZM20.1165 122.234C20.1165 122.426 20.0505 122.6 19.9185 122.756C19.7985 122.924 19.6365 123.008 19.4325 123.008C19.1925 123.008 18.9225 122.912 18.6225 122.72C18.3225 122.54 18.0225 122.306 17.7225 122.018C17.4225 121.742 17.1465 121.466 16.8945 121.19C16.6545 120.914 16.4625 120.686 16.3185 120.506C16.2225 120.614 16.0605 120.788 15.8325 121.028C15.6045 121.256 15.3525 121.496 15.0765 121.748C14.8125 122 14.5545 122.21 14.3025 122.378C14.0625 122.558 13.8765 122.648 13.7445 122.648C13.6245 122.648 13.5645 122.6 13.5645 122.504C13.5645 122.444 13.5825 122.39 13.6185 122.342C13.6545 122.294 13.6905 122.246 13.7265 122.198C14.1225 121.766 14.4825 121.316 14.8065 120.848C15.1305 120.38 15.4185 119.882 15.6705 119.354C14.9025 118.19 14.3325 116.918 13.9605 115.538L15.3825 114.89C15.5145 115.382 15.6465 115.88 15.7785 116.384C15.9105 116.876 16.0785 117.356 16.2825 117.824C16.4505 117.296 16.5945 116.756 16.7145 116.204C16.8465 115.652 16.9425 115.1 17.0025 114.548H13.5105V123.08H11.8905V108.032H19.0545C18.9945 108.524 18.9105 109.028 18.8025 109.544C18.7065 110.06 18.5685 110.552 18.3885 111.02C18.2085 111.476 17.9625 111.8 17.6505 111.992C17.3385 112.172 16.9425 112.262 16.4625 112.262C16.3905 112.262 16.2525 112.244 16.0485 112.208C15.8445 112.16 15.6465 112.1 15.4545 112.028C15.2745 111.956 15.1845 111.884 15.1845 111.812C15.1845 111.776 15.2085 111.752 15.2565 111.74C15.3045 111.728 15.3405 111.722 15.3645 111.722C15.4965 111.698 15.6225 111.674 15.7425 111.65C15.8745 111.614 16.0005 111.554 16.1205 111.47C16.3845 111.302 16.5765 111.062 16.6965 110.75C16.8285 110.426 16.9185 110.084 16.9665 109.724C17.0265 109.364 17.0745 109.046 17.1105 108.77H13.5105V113.846H18.9645C18.8805 114.794 18.7005 115.736 18.4245 116.672C18.1485 117.608 17.7465 118.484 17.2185 119.3C17.4225 119.744 17.6505 120.212 17.9025 120.704C18.1665 121.184 18.4665 121.604 18.8025 121.964C18.8385 121.82 18.9165 121.7 19.0365 121.604C19.1565 121.508 19.2945 121.46 19.4505 121.46C19.6545 121.46 19.8165 121.544 19.9365 121.712C20.0565 121.868 20.1165 122.042 20.1165 122.234Z" fill="#241A08"/>
<rect x="19.3145" width="30" height="0.999999" transform="rotate(90 19.3145 0)" fill="#A4A4A4"/>
</svg>
