<svg width="24" height="24" viewBox="0 0 24 24" fill="none" xmlns="http://www.w3.org/2000/svg">
<mask id="mask0_1304_1840" style="mask-type:alpha" maskUnits="userSpaceOnUse" x="0" y="0" width="24" height="24">
<rect width="24" height="24" fill="#D9D9D9"/>
</mask>
<g mask="url(#mask0_1304_1840)">
<rect width="24" height="24" fill="white"/>
<path d="M4 20V15H5V18.2923L8.6 14.6923L9.30775 15.4L5.70775 19H9V20H4ZM15 20V19H18.2923L14.6923 15.4L15.4 14.6923L19 18.2923V15H20V20H15ZM8.6 9.30775L5 5.70775V9H4V4H9V5H5.70775L9.30775 8.6L8.6 9.30775ZM15.4 9.30775L14.6923 8.6L18.2923 5H15V4H20V9H19V5.70775L15.4 9.30775ZM12 13.327C11.6352 13.327 11.3228 13.1971 11.0628 12.9373C10.8029 12.6773 10.673 12.3648 10.673 12C10.673 11.6352 10.8029 11.3228 11.0628 11.0628C11.3228 10.8029 11.6352 10.673 12 10.673C12.3648 10.673 12.6773 10.8029 12.9373 11.0628C13.1971 11.3228 13.327 11.6352 13.327 12C13.327 12.3648 13.1971 12.6773 12.9373 12.9373C12.6773 13.1971 12.3648 13.327 12 13.327Z" fill="#282828"/>
</g>
</svg>
