<svg width="18" height="18" viewBox="0 0 18 18" fill="none" xmlns="http://www.w3.org/2000/svg">
<path d="M9.00225 0C5.5844 0.00108984 2.8175 2.76964 2.81641 6.18585C2.81862 6.68848 2.92296 7.19276 3.08229 7.72559C3.36245 8.65505 3.82388 9.67071 4.3578 10.6979C5.95962 13.7692 8.23652 16.9343 8.24917 16.9519L9.00225 18L9.75428 16.9519C9.76307 16.9409 11.0891 15.0941 12.4267 12.8644C13.0952 11.7476 13.7676 10.5353 14.284 9.3889C14.5421 8.8154 14.7613 8.25785 14.9222 7.72555C15.0815 7.19272 15.1848 6.68844 15.187 6.18581C15.1859 2.76964 12.419 0.00108984 9.00225 0ZM13.1479 7.19276C12.9249 7.93652 12.5063 8.87695 12.0021 9.8421C11.2468 11.2929 10.3047 12.8084 9.55431 13.9537C9.35325 14.2603 9.16868 14.5376 9.00225 14.7832C8.47874 14.0098 7.7509 12.899 7.03899 11.6982C6.41605 10.6469 5.8063 9.52734 5.36358 8.52539C5.1422 8.02659 4.96312 7.55694 4.84394 7.15099C4.72363 6.7467 4.66816 6.40283 4.66981 6.18585C4.67037 4.9867 5.15321 3.91004 5.93818 3.12177C6.72536 2.3368 7.80202 1.85393 9.00225 1.85284C10.2014 1.85393 11.2786 2.3368 12.0652 3.12177C12.8513 3.91004 13.3336 4.9867 13.3342 6.18585C13.3358 6.41053 13.2765 6.76979 13.1479 7.19276Z" fill="white"/>
<path d="M9.00184 4.17383C7.89111 4.17383 6.99023 5.07527 6.99023 6.18596C6.99023 7.29722 7.89111 8.19757 9.00184 8.19757C10.112 8.19757 11.0134 7.29725 11.0134 6.18596C11.0134 5.07523 10.112 4.17383 9.00184 4.17383Z" fill="white"/>
</svg>
