<svg width="36" height="101" viewBox="0 0 36 101" fill="none" xmlns="http://www.w3.org/2000/svg">
<path d="M28 34.4C28 34.38 28.02 34.37 28.06 34.37C28.1 34.37 28.12 34.38 28.12 34.4C28.12 34.6467 28.1367 34.8267 28.17 34.94C28.2033 35.0533 28.2667 35.13 28.36 35.17C28.46 35.2167 28.61 35.24 28.81 35.24L33.44 35.24C33.64 35.24 33.7867 35.22 33.88 35.18C33.9733 35.14 34.0367 35.0633 34.07 34.95C34.11 34.8433 34.13 34.67 34.13 34.43C34.13 34.41 34.15 34.4 34.19 34.4C34.23 34.4 34.25 34.41 34.25 34.43L34.25 38.51C34.25 38.5767 34.22 38.61 34.16 38.61L32.9 38.63C32.88 38.63 32.8667 38.61 32.86 38.57C32.86 38.5367 32.87 38.5167 32.89 38.51C33.2567 38.4633 33.5367 38.3333 33.73 38.12C33.9233 37.9067 34.02 37.6267 34.02 37.28L34.02 36.77C34.02 36.4833 33.9767 36.2867 33.89 36.18C33.81 36.08 33.6567 36.03 33.43 36.03L28.85 36.03C28.6367 36.03 28.48 36.0567 28.38 36.11C28.2867 36.17 28.22 36.28 28.18 36.44C28.14 36.6 28.12 36.8533 28.12 37.2C28.12 37.2133 28.1 37.22 28.06 37.22C28.02 37.22 28 37.2133 28 37.2C28 36.9267 28.0033 36.7133 28.01 36.56L28.02 35.62L28.01 34.92C28.0033 34.7933 28 34.62 28 34.4ZM30.18 38.01C30.4667 38.01 30.6767 37.9233 30.81 37.75C30.95 37.5767 31.02 37.3 31.02 36.92L31.02 35.65L31.25 35.65L31.25 36.95C31.25 37.31 31.31 37.5733 31.43 37.74C31.55 37.9133 31.73 38 31.97 38C31.9833 38 31.99 38.02 31.99 38.06C31.99 38.1 31.9833 38.12 31.97 38.12L31.13 38.11C30.93 38.11 30.78 38.1133 30.68 38.12L30.18 38.13C30.1667 38.13 30.16 38.11 30.16 38.07C30.16 38.03 30.1667 38.01 30.18 38.01ZM28 41.507C28 41.4936 28.02 41.487 28.06 41.487C28.1 41.487 28.12 41.4936 28.12 41.507C28.12 41.7536 28.1633 41.9136 28.25 41.987C28.3433 42.067 28.53 42.107 28.81 42.107L33.95 42.117C34.19 42.117 34.36 42.0936 34.46 42.047C34.5667 42.0003 34.62 41.9203 34.62 41.807C34.62 41.6936 34.5767 41.5503 34.49 41.377L34.49 41.367C34.49 41.3403 34.5067 41.317 34.54 41.297C34.58 41.2836 34.6033 41.2903 34.61 41.317L35.24 42.657L35.25 42.697C35.25 42.717 35.24 42.7403 35.22 42.767C35.2 42.8003 35.1767 42.817 35.15 42.817L28.81 42.817C28.53 42.817 28.3433 42.8536 28.25 42.927C28.1633 43.007 28.12 43.167 28.12 43.407C28.12 43.4336 28.1 43.447 28.06 43.447C28.02 43.447 28 43.4336 28 43.407C28 43.2536 28.0033 43.1303 28.01 43.037L28.02 42.457L28.01 41.897C28.0033 41.8036 28 41.6736 28 41.507ZM27.87 48.0644C27.87 47.671 27.9633 47.3244 28.15 47.0244C28.3433 46.7244 28.6 46.491 28.92 46.3244C29.2467 46.1644 29.6 46.0844 29.98 46.0844C30.4133 46.0844 30.78 46.191 31.08 46.4044C31.3867 46.6177 31.6133 46.891 31.76 47.2244C31.9133 47.5577 31.99 47.8977 31.99 48.2444C31.99 48.6377 31.8933 48.9844 31.7 49.2844C31.5067 49.5844 31.25 49.8144 30.93 49.9744C30.6167 50.1344 30.2833 50.2144 29.93 50.2144C29.5233 50.2144 29.1633 50.1144 28.85 49.9144C28.5367 49.721 28.2933 49.461 28.12 49.1344C27.9533 48.8077 27.87 48.451 27.87 48.0644ZM28.06 48.3544C28.06 48.6877 28.19 48.9444 28.45 49.1244C28.71 49.3044 29.1033 49.3944 29.63 49.3944C30.0633 49.3944 30.4433 49.3277 30.77 49.1944C31.0967 49.0677 31.3467 48.891 31.52 48.6644C31.7 48.4377 31.79 48.1844 31.79 47.9044C31.79 47.5777 31.6633 47.3244 31.41 47.1444C31.1633 46.971 30.7967 46.8844 30.31 46.8844C29.89 46.8844 29.5067 46.9477 29.16 47.0744C28.82 47.201 28.55 47.3744 28.35 47.5944C28.1567 47.821 28.06 48.0744 28.06 48.3544ZM27.87 54.8886C27.87 54.4953 27.9633 54.1486 28.15 53.8486C28.3433 53.5486 28.6 53.3153 28.92 53.1486C29.2467 52.9886 29.6 52.9086 29.98 52.9086C30.4133 52.9086 30.78 53.0153 31.08 53.2286C31.3867 53.4419 31.6133 53.7153 31.76 54.0486C31.9133 54.3819 31.99 54.7219 31.99 55.0686C31.99 55.4619 31.8933 55.8086 31.7 56.1086C31.5067 56.4086 31.25 56.6386 30.93 56.7986C30.6167 56.9586 30.2833 57.0386 29.93 57.0386C29.5233 57.0386 29.1633 56.9386 28.85 56.7386C28.5367 56.5453 28.2933 56.2853 28.12 55.9586C27.9533 55.6319 27.87 55.2753 27.87 54.8886ZM28.06 55.1786C28.06 55.5119 28.19 55.7686 28.45 55.9486C28.71 56.1286 29.1033 56.2186 29.63 56.2186C30.0633 56.2186 30.4433 56.1519 30.77 56.0186C31.0967 55.8919 31.3467 55.7153 31.52 55.4886C31.7 55.2619 31.79 55.0086 31.79 54.7286C31.79 54.4019 31.6633 54.1486 31.41 53.9686C31.1633 53.7953 30.7967 53.7086 30.31 53.7086C29.89 53.7086 29.5067 53.7719 29.16 53.8986C28.82 54.0253 28.55 54.1986 28.35 54.4186C28.1567 54.6453 28.06 54.8986 28.06 55.1786ZM30.82 60.8128C31.2533 61.1728 31.55 61.4528 31.71 61.6528C31.87 61.8595 31.95 62.0461 31.95 62.2128C31.95 62.3661 31.9033 62.5095 31.81 62.6428C31.7233 62.7761 31.6167 62.8428 31.49 62.8428C31.39 62.8428 31.3033 62.8095 31.23 62.7428C31.1633 62.6761 31.13 62.5861 31.13 62.4728C31.13 62.3995 31.1433 62.3395 31.17 62.2928C31.2033 62.2461 31.25 62.1861 31.31 62.1128C31.37 62.0461 31.4133 61.9895 31.44 61.9428C31.4667 61.9028 31.48 61.8461 31.48 61.7728C31.48 61.6795 31.43 61.5728 31.33 61.4528C31.2367 61.3395 31.03 61.1461 30.71 60.8728L30.82 60.8128ZM28 59.8128C28 59.7928 28.02 59.7828 28.06 59.7828C28.1 59.7828 28.12 59.7928 28.12 59.8128C28.12 59.9795 28.1367 60.1028 28.17 60.1828C28.21 60.2695 28.2767 60.3261 28.37 60.3528C28.47 60.3861 28.6167 60.4028 28.81 60.4028L30.76 60.4028C30.98 60.4028 31.1367 60.3761 31.23 60.3228C31.33 60.2761 31.38 60.1928 31.38 60.0728C31.38 59.9595 31.3333 59.7828 31.24 59.5428L31.24 59.5228C31.24 59.5028 31.2567 59.4861 31.29 59.4728C31.3233 59.4661 31.3433 59.4728 31.35 59.4928L31.94 60.7228L31.95 60.7828C31.95 60.8495 31.87 60.9161 31.71 60.9828C31.5567 61.0561 31.3533 61.0928 31.1 61.0928L28.81 61.0928C28.6167 61.0928 28.47 61.1161 28.37 61.1628C28.2767 61.2161 28.21 61.3095 28.17 61.4428C28.1367 61.5761 28.12 61.7761 28.12 62.0428C28.12 62.0628 28.1 62.0728 28.06 62.0728C28.02 62.0728 28 62.0628 28 62.0428C28 61.8228 28.0033 61.6461 28.01 61.5128L28.02 60.7528L28.01 60.1928C28.0033 60.0995 28 59.9728 28 59.8128Z" fill="#A4A4A4"/>
<path d="M20.26 50.94C20.26 51.1933 20.1667 51.4333 19.98 51.66C19.7933 51.9 19.5667 52.02 19.3 52.02H4.06V51.12H10.96V46.98H6.26V46.12H16.36C16.3467 46.0933 16.34 46.06 16.34 46.02C16.34 45.7667 16.4333 45.54 16.62 45.34C16.82 45.14 17.0467 45.04 17.3 45.04C17.5667 45.04 17.8 45.1333 18 45.32C18.2133 45.5067 18.32 45.7333 18.32 46C18.32 46.24 18.2333 46.4667 18.06 46.68C17.8867 46.88 17.6733 46.98 17.42 46.98H13.02V51.12H18.2C18.1867 51.0933 18.18 51.0467 18.18 50.98C18.18 50.7133 18.2867 50.4733 18.5 50.26C18.7133 50.0467 18.9467 49.94 19.2 49.94C19.4667 49.94 19.7067 50.04 19.92 50.24C20.1467 50.4267 20.26 50.66 20.26 50.94ZM10.96 39.52C10.96 39.56 10.9533 39.6 10.94 39.64C10.9267 39.6667 10.9133 39.6933 10.9 39.72C10.2467 41.0533 9.34 42.22 8.18 43.22C7.02 44.2067 5.71333 44.88 4.26 45.24C4.24667 45.24 4.22667 45.2467 4.2 45.26C4.17333 45.26 4.14667 45.26 4.12 45.26C4.09333 45.26 4.05333 45.2533 4 45.24C3.96 45.2267 3.94 45.2 3.94 45.16C3.94 45.0933 3.96667 45.0467 4.02 45.02C4.07333 44.98 4.11333 44.9467 4.14 44.92C4.35333 44.7867 4.56 44.6533 4.76 44.52C4.97333 44.3867 5.17333 44.2467 5.36 44.1C6.17333 43.4333 6.88667 42.6467 7.5 41.74C8.12667 40.82 8.58 39.8533 8.86 38.84C9.16667 38.92 9.46667 39 9.76 39.08C10.0667 39.1467 10.3667 39.2267 10.66 39.32C10.7 39.3333 10.76 39.3533 10.84 39.38C10.92 39.4067 10.96 39.4533 10.96 39.52ZM20.64 37.2C20.5333 37.7067 20.3333 38.2333 20.04 38.78C19.76 39.3133 19.42 39.8133 19.02 40.28C18.6333 40.7333 18.2133 41.1 17.76 41.38C17.7067 41.3933 17.6533 41.4133 17.6 41.44C17.56 41.4667 17.5133 41.48 17.46 41.48C17.3533 41.48 17.3 41.4267 17.3 41.32C17.3 41.28 17.3133 41.22 17.34 41.14C17.4867 40.6333 17.62 40.1267 17.74 39.62C17.86 39.1 17.94 38.5733 17.98 38.04H5.86V41.64H3.9V37.2H11.02C10.94 36.6933 10.8533 36.1933 10.76 35.7C10.6667 35.1933 10.5667 34.6933 10.46 34.2C10.8867 34.2 11.3133 34.2067 11.74 34.22C12.1667 34.22 12.5867 34.2467 13 34.3C13.1467 34.3133 13.2733 34.3533 13.38 34.42C13.4867 34.4733 13.54 34.58 13.54 34.74C13.54 34.82 13.4867 34.9733 13.38 35.2C13.2867 35.4267 13.1667 35.6733 13.02 35.94C12.8867 36.2067 12.7533 36.46 12.62 36.7C12.5 36.9267 12.4133 37.0933 12.36 37.2H20.64ZM20.86 42C20.86 42.2933 20.7333 42.56 20.48 42.8C20.24 43.04 19.9267 43.2467 19.54 43.42C19.1533 43.5933 18.74 43.74 18.3 43.86C17.8733 43.9667 17.4667 44.0467 17.08 44.1C16.6933 44.1533 16.3867 44.18 16.16 44.18C15.7467 44.18 15.32 44.1533 14.88 44.1C14.44 44.0467 14.0267 43.94 13.64 43.78C13.2667 43.6067 12.96 43.36 12.72 43.04C12.4933 42.72 12.38 42.3 12.38 41.78V38.74H14.34V41.7C14.34 42.06 14.4467 42.34 14.66 42.54C14.8733 42.74 15.1333 42.8867 15.44 42.98C15.7467 43.06 16.0467 43.1 16.34 43.1C16.8467 43.1 17.3467 43.08 17.84 43.04C18.3467 42.9867 18.8467 42.8933 19.34 42.76C19.22 42.6933 19.1133 42.5933 19.02 42.46C18.94 42.3133 18.9 42.1733 18.9 42.04C18.9 41.7867 18.9933 41.56 19.18 41.36C19.38 41.16 19.6067 41.06 19.86 41.06C20.1267 41.06 20.36 41.1533 20.56 41.34C20.76 41.5133 20.86 41.7333 20.86 42ZM13.8 68.4H10V70.8H11.78L11.76 70.78C11.76 70.5533 11.84 70.3533 12 70.18C12.1733 70.0067 12.3667 69.92 12.58 69.92C12.8067 69.92 13 70.0067 13.16 70.18C13.32 70.3533 13.4 70.5533 13.4 70.78C13.4 70.9533 13.3267 71.1267 13.18 71.3C13.0467 71.46 12.8867 71.54 12.7 71.54H10V73.96H12.68C13.0933 73.96 13.38 73.8267 13.54 73.56C13.7133 73.2933 13.8 72.9733 13.8 72.6V68.4ZM9.24 63.6C9.24 63.0133 9.23333 62.4267 9.22 61.84C9.22 61.2533 9.22667 60.6733 9.24 60.1H6.06V62.68H7.2C7.2 62.4667 7.26667 62.28 7.4 62.12C7.54667 61.96 7.72667 61.88 7.94 61.88C8.14 61.88 8.30667 61.96 8.44 62.12C8.58667 62.28 8.66 62.4533 8.66 62.64C8.66 62.8667 8.58 63.0467 8.42 63.18C8.27333 63.3 8.09333 63.36 7.88 63.36H6.06V65.58H7.72C8.09333 65.58 8.38667 65.48 8.6 65.28C8.82667 65.08 8.98667 64.8267 9.08 64.52C9.18667 64.2133 9.24 63.9067 9.24 63.6ZM18 65.46V60.08H14.88V62.68H15.96C15.96 62.4667 16.0267 62.28 16.16 62.12C16.3067 61.96 16.4867 61.88 16.7 61.88C16.9 61.88 17.0733 61.96 17.22 62.12C17.3667 62.28 17.44 62.4533 17.44 62.64C17.44 62.8667 17.36 63.0467 17.2 63.18C17.04 63.3 16.8533 63.36 16.64 63.36H14.88V65.46H18ZM11.1 63.28C11.1 64.1333 10.96 64.7733 10.68 65.2C10.4 65.6267 10.02 65.92 9.54 66.08C9.06 66.2267 8.52 66.3067 7.92 66.32C7.32 66.32 6.7 66.32 6.06 66.32V76.3H4.18V59.32H11.1V63.28ZM15.56 72.32C15.56 73.1333 15.3667 73.7467 14.98 74.16C14.5933 74.56 13.9867 74.76 13.16 74.76H8.32V67.68H15.56V72.32ZM19.86 59.32V72.72C19.86 73.16 19.84 73.6067 19.8 74.06C19.76 74.5 19.66 74.9067 19.5 75.28C19.3533 75.6533 19.12 75.9533 18.8 76.18C18.48 76.4067 18.0333 76.52 17.46 76.52C17.1933 76.52 16.8867 76.46 16.54 76.34C16.2067 76.22 15.88 76.06 15.56 75.86C15.2533 75.6733 15.0067 75.48 14.82 75.28C14.7933 75.2533 14.7733 75.2267 14.76 75.2L14.8 75.18C15.0667 75.2067 15.3267 75.2533 15.58 75.32C15.8333 75.3867 16.1 75.42 16.38 75.42C16.9 75.42 17.2733 75.28 17.5 75C17.7267 74.7333 17.8667 74.4 17.92 74C17.9733 73.5867 18 73.1867 18 72.8V66.2H13.1V59.32H19.86Z" fill="white"/>
<rect x="19" width="30" height="0.999999" transform="rotate(90 19 0)" fill="#A4A4A4"/>
<path d="M13 83.5C16.312 83.5 19.2482 84.465 21.3184 85.9492C23.3909 87.4352 24.4998 89.3543 24.5 91.3203C24.5 93.2865 23.3911 95.2063 21.3184 96.6924C19.2482 98.1766 16.312 99.1416 13 99.1416C9.68798 99.1416 6.75179 98.1766 4.68164 96.6924C2.60895 95.2063 1.5 93.2865 1.5 91.3203C1.50017 89.3543 2.60913 87.4352 4.68164 85.9492C6.75179 84.465 9.68798 83.5 13 83.5Z" stroke="white" stroke-width="3"/>
<mask id="path-5-inside-1_1296_1837" fill="white">
<ellipse cx="9.07407" cy="91.3205" rx="1.22641" ry="2.45283"/>
</mask>
<ellipse cx="9.07407" cy="91.3205" rx="1.22641" ry="2.45283" fill="white"/>
<path d="M10.3005 91.3205H8.30049C8.30049 91.7547 8.20824 92.0489 8.15242 92.1605C8.12479 92.2158 8.14358 92.1519 8.25976 92.0536C8.38891 91.9444 8.66969 91.7733 9.07407 91.7733V93.7733V95.7733C10.5784 95.7733 11.4019 94.6058 11.7301 93.9493C12.1182 93.1732 12.3005 92.241 12.3005 91.3205H10.3005ZM9.07407 93.7733V91.7733C9.47845 91.7733 9.75923 91.9444 9.88838 92.0536C10.0046 92.1519 10.0233 92.2158 9.99572 92.1605C9.9399 92.0489 9.84766 91.7547 9.84766 91.3205H7.84766H5.84766C5.84766 92.241 6.02995 93.1732 6.41801 93.9493C6.74625 94.6058 7.56975 95.7733 9.07407 95.7733V93.7733ZM7.84766 91.3205H9.84766C9.84766 90.8863 9.9399 90.5922 9.99572 90.4805C10.0233 90.4253 10.0046 90.4891 9.88838 90.5874C9.75923 90.6966 9.47845 90.8677 9.07407 90.8677V88.8677V86.8677C7.56975 86.8677 6.74625 88.0352 6.41801 88.6917C6.02995 89.4678 5.84766 90.4 5.84766 91.3205H7.84766ZM9.07407 88.8677V90.8677C8.66969 90.8677 8.38891 90.6966 8.25976 90.5874C8.14358 90.4891 8.12479 90.4253 8.15242 90.4805C8.20824 90.5922 8.30049 90.8863 8.30049 91.3205H10.3005H12.3005C12.3005 90.4 12.1182 89.4678 11.7301 88.6917C11.4019 88.0352 10.5784 86.8677 9.07407 86.8677V88.8677Z" fill="white" mask="url(#path-5-inside-1_1296_1837)"/>
<mask id="path-7-inside-2_1296_1837" fill="white">
<ellipse cx="16.9256" cy="91.3205" rx="1.22641" ry="2.45283"/>
</mask>
<ellipse cx="16.9256" cy="91.3205" rx="1.22641" ry="2.45283" fill="white"/>
<path d="M18.152 91.3205H16.152C16.152 91.7547 16.0598 92.0489 16.004 92.1605C15.9764 92.2158 15.9951 92.1519 16.1113 92.0536C16.2405 91.9444 16.5213 91.7733 16.9256 91.7733V93.7733V95.7733C18.43 95.7733 19.2535 94.6058 19.5817 93.9493C19.9698 93.1732 20.152 92.241 20.152 91.3205H18.152ZM16.9256 93.7733V91.7733C17.33 91.7733 17.6108 91.9444 17.7399 92.0536C17.8561 92.1519 17.8749 92.2158 17.8473 92.1605C17.7915 92.0489 17.6992 91.7547 17.6992 91.3205H15.6992H13.6992C13.6992 92.241 13.8815 93.1732 14.2696 93.9493C14.5978 94.6058 15.4213 95.7733 16.9256 95.7733V93.7733ZM15.6992 91.3205H17.6992C17.6992 90.8863 17.7915 90.5922 17.8473 90.4805C17.8749 90.4253 17.8561 90.4891 17.7399 90.5874C17.6108 90.6966 17.33 90.8677 16.9256 90.8677V88.8677V86.8677C15.4213 86.8677 14.5978 88.0352 14.2696 88.6917C13.8815 89.4678 13.6992 90.4 13.6992 91.3205H15.6992ZM16.9256 88.8677V90.8677C16.5213 90.8677 16.2405 90.6966 16.1113 90.5874C15.9951 90.4891 15.9764 90.4253 16.004 90.4805C16.0598 90.5922 16.152 90.8863 16.152 91.3205H18.152H20.152C20.152 90.4 19.9698 89.4678 19.5817 88.6917C19.2535 88.0352 18.43 86.8677 16.9256 86.8677V88.8677Z" fill="white" mask="url(#path-7-inside-2_1296_1837)"/>
</svg>
